<?xml version="1.0" standalone="no"?>
<!DOCTYPE svg PUBLIC "-//W3C//DTD SVG 20010904//EN"
 "http://www.w3.org/TR/2001/REC-SVG-20010904/DTD/svg10.dtd">
<svg version="1.0" xmlns="http://www.w3.org/2000/svg"
 width="285.000000pt" height="285.000000pt" viewBox="0 0 285.000000 285.000000"
 preserveAspectRatio="xMidYMid meet">
<metadata>
Created by potrace 1.11, written by Peter Selinger 2001-2013
</metadata>
<g transform="translate(0.000000,285.000000) scale(0.100000,-0.100000)"
fill="#000000" stroke="none">
<path d="M1 2629 l1 -220 24 -9 c14 -6 27 -17 30 -25 4 -8 14 -15 23 -15 10 0
23 -11 29 -24 8 -17 22 -27 47 -32 19 -3 41 -14 48 -24 9 -13 31 -20 72 -24
40 -4 64 -11 72 -23 9 -12 32 -18 75 -21 62 -4 93 -16 83 -33 -7 -10 40 -18
125 -22 57 -2 66 -5 75 -24 7 -16 19 -23 40 -24 35 -1 99 -7 135 -13 28 -5 27
-9 21 90 0 13 -10 24 -22 27 -11 3 -23 15 -26 26 -3 12 -13 21 -23 21 -11 0
-20 10 -24 25 -4 16 -13 25 -26 25 -13 0 -22 9 -26 25 -4 16 -13 25 -25 25
-10 0 -19 6 -19 14 0 27 20 28 51 2 17 -14 41 -26 53 -26 13 0 31 -9 40 -19
10 -11 32 -23 50 -27 17 -4 43 -16 57 -28 17 -15 42 -23 75 -25 31 -1 56 -9
69 -21 11 -10 34 -22 50 -26 36 -8 57 -23 49 -35 -3 -5 8 -14 25 -20 17 -6 31
-17 31 -25 0 -8 9 -14 20 -14 12 0 22 -9 26 -24 3 -15 14 -26 27 -28 12 -2 22
-10 22 -18 0 -16 40 -40 68 -40 20 0 26 -12 30 -55 l2 -30 -725 -2 -725 -2 -3
-133 c-3 -145 1 -178 23 -178 18 0 27 -15 30 -50 3 -38 115 -150 150 -150 15
0 36 -11 49 -25 23 -25 26 -25 177 -26 l153 -1 21 26 c15 19 30 26 57 26 28 0
37 5 41 21 3 11 15 23 26 26 12 3 22 12 22 19 1 8 3 23 4 34 1 11 3 29 4 40 1
13 8 20 21 20 13 0 22 9 26 25 4 15 13 25 24 25 13 0 19 11 24 39 3 22 10 42
16 46 20 12 31 -41 34 -174 4 -144 7 -161 32 -161 8 0 15 -10 15 -25 4 -69 1
-85 -14 -85 -8 0 -22 -9 -32 -20 -12 -13 -31 -20 -55 -20 -29 0 -39 -4 -43
-20 -3 -13 1 -23 11 -28 14 -7 135 -9 178 -3 6 1 10 37 9 101 l-1 100 60 -6
c34 -3 79 -7 101 -8 40 -1 40 -1 38 -40 -1 -29 -8 -44 -29 -61 l-27 -21 24
-23 24 -23 -22 -15 c-18 -12 -23 -25 -23 -59 0 -37 -3 -44 -20 -44 -13 0 -22
-9 -26 -25 -3 -14 -13 -25 -23 -25 -9 0 -21 -10 -26 -22 -7 -17 -21 -24 -50
-28 -29 -4 -43 -11 -50 -27 -5 -13 -17 -23 -25 -23 -8 0 -20 -10 -25 -22 -9
-20 -19 -23 -77 -26 -44 -2 -68 -7 -69 -15 -1 -7 -2 -39 -3 -72 l-1 -60 -40
-3 c-41 -4 -69 -18 -60 -32 14 -23 -71 -26 -97 -3 -10 9 -43 20 -74 24 -34 5
-65 16 -78 28 -23 21 -22 21 -64 21 -19 0 -30 7 -37 23 -8 18 -21 23 -67 28
-35 4 -66 14 -83 27 -15 12 -42 24 -60 28 -24 4 -35 13 -39 30 -4 15 -14 24
-25 24 -11 0 -22 8 -24 18 -3 9 -5 -162 -6 -380 -1 -312 2 -398 12 -399 59 -4
74 -6 85 -13 7 -4 10 -11 7 -16 -9 -14 12 -21 67 -22 59 0 88 -11 88 -33 0 -9
10 -15 23 -16 104 -3 127 -10 127 -35 0 -12 42 -14 273 -14 l273 0 1 43 c2 94
3 99 23 104 22 6 21 -6 25 228 4 238 3 226 25 232 22 6 21 4 24 53 1 19 7 36
14 36 7 1 38 2 70 3 52 1 60 4 70 26 15 32 29 32 44 0 9 -21 18 -25 54 -25 33
0 44 4 49 19 7 22 25 30 70 29 107 -1 122 2 132 25 10 22 17 23 124 26 109 2
122 6 132 36 3 9 49 12 195 14 30 1 42 5 42 16 0 23 30 32 115 34 74 2 88 7
98 35 2 5 43 11 92 13 83 4 111 14 99 35 -6 10 -19 8 113 17 90 6 116 11 133
26 15 14 38 20 78 22 31 1 60 2 65 2 4 1 7 406 7 901 l0 900 -724 0 c-399 0
-727 -3 -729 -7 -2 -5 0 -27 5 -50 7 -33 14 -43 29 -43 20 0 23 -10 13 -59 -4
-17 -12 -31 -18 -31 -6 0 -16 -10 -21 -22 -10 -22 -14 -23 -155 -23 l-145 0
-1 25 c0 28 13 60 24 59 38 -6 70 3 75 22 3 11 15 23 26 26 21 5 22 8 25 53 1
14 5 31 9 38 7 9 -67 12 -353 12 -386 0 -402 -2 -312 -47 3 -1 9 -27 11 -45 1
-5 8 -8 16 -8 8 0 20 -9 27 -20 7 -11 21 -20 30 -20 10 0 18 -6 18 -13 0 -8
14 -26 30 -40 17 -15 30 -32 30 -37 0 -6 9 -10 20 -10 11 0 20 -3 21 -7 5 -51
9 -55 54 -55 29 0 39 -5 47 -24 6 -13 17 -24 25 -24 7 0 19 -11 25 -25 7 -16
20 -25 35 -26 12 -1 28 -3 33 -4 6 -1 14 -3 19 -4 5 0 13 -10 16 -21 3 -11 15
-20 25 -20 10 0 20 -10 24 -24 4 -15 16 -26 32 -30 21 -6 24 -9 14 -21 -21
-25 -75 -19 -94 10 -13 20 -25 25 -56 25 -34 0 -41 4 -46 25 -5 21 -12 25 -45
25 -30 0 -42 5 -55 24 -11 18 -26 26 -52 28 -27 2 -40 9 -47 26 -5 12 -18 22
-27 22 -16 0 -23 11 -19 32 1 11 -42 20 -75 16 -26 -3 -29 -7 -29 -43 -1 -50
4 -65 20 -65 22 0 29 -17 34 -82 0 -10 8 -18 16 -18 22 0 40 -39 21 -46 -23
-9 -91 0 -91 13 0 19 -13 26 -58 32 -23 3 -42 11 -42 18 0 23 -13 30 -63 32
-20 1 -32 8 -40 26 -6 14 -18 25 -26 25 -8 0 -18 9 -21 21 -4 11 -18 24 -31
30 -14 5 -23 13 -19 18 9 15 -14 24 -74 28 -66 4 -84 10 -77 22 5 8 -23 39
-31 34 -1 -2 -18 -3 -37 -3 -36 0 -36 0 -27 98 1 6 9 12 20 12 20 0 29 27 23
68 -2 14 -10 22 -23 22 -17 0 -24 16 -20 43 0 4 -12 7 -29 7 l-30 0 1 -221z
m1037 63 c19 -7 14 -32 -7 -32 -10 0 -26 -11 -34 -24 -15 -23 -22 -24 -104
-22 l-88 1 -1 35 c0 19 2 39 4 43 4 8 206 8 230 -1z m1682 -183 c14 -32 16
-86 5 -98 -9 -8 -54 45 -51 61 8 39 19 68 26 68 4 0 13 -14 20 -31z m-2566
-24 c4 -16 13 -25 25 -25 23 0 34 -23 18 -39 -18 -18 -36 -13 -43 14 -4 16
-13 25 -25 25 -14 0 -19 7 -19 25 0 18 5 25 19 25 12 0 21 -9 25 -25z m2376
-24 c0 -17 -33 -52 -42 -43 -14 14 8 63 27 56 8 -3 15 -9 15 -13z m-336 -223
c13 -68 53 -69 81 -3 22 54 65 44 65 -14 0 -10 29 -43 65 -75 36 -32 73 -69
82 -82 19 -30 28 -224 13 -294 -5 -25 -12 -87 -15 -139 -3 -51 -7 -97 -10
-101 -3 -5 -39 -27 -80 -49 -53 -30 -83 -53 -105 -86 -38 -56 -63 -58 -92 -10
-23 41 -35 41 -58 0 -23 -41 -37 -41 -61 -1 -33 56 -52 62 -88 25 -27 -26 -36
-42 -29 -51 1 -2 -4 -13 -10 -25 -14 -25 -34 -22 -69 10 -27 24 -29 44 -6 69
13 14 13 18 2 19 -8 0 -34 1 -59 2 -36 2 -45 6 -45 20 0 25 -41 57 -74 57 -17
0 -47 17 -83 47 -54 46 -55 48 -40 70 19 30 46 26 50 -7 8 -57 44 -66 232 -61
67 2 120 54 120 118 0 49 -11 71 -41 83 -31 13 -148 16 -198 5 -42 -9 -41 10
2 24 17 6 70 17 116 25 45 8 88 19 93 24 18 18 12 65 -12 84 -27 22 -42 23
-80 3 -17 -9 -33 -15 -37 -14 -24 3 -63 36 -69 58 l-7 26 -6 -25 c-6 -21 -14
-25 -49 -28 -32 -2 -42 0 -42 12 0 23 36 100 54 115 22 19 74 16 97 -5 11 -10
27 -14 41 -11 15 4 30 -1 45 -15 23 -21 28 -17 24 19 -2 18 59 123 72 124 7 0
32 2 57 4 31 2 48 9 55 21 20 36 64 74 78 68 8 -3 18 -19 21 -36z m-657 -284
c-3 -3 -12 -4 -19 -1 -8 3 -5 6 6 6 11 1 17 -2 13 -5z m-936 -121 c10 -10 6
-14 -14 -22 -14 -5 -28 -19 -32 -30 -3 -12 -15 -21 -25 -21 -13 0 -22 -9 -26
-25 -4 -16 -13 -25 -25 -25 -10 0 -19 -6 -19 -14 0 -8 -13 -24 -30 -36 -16
-12 -30 -28 -30 -36 0 -8 -9 -14 -19 -14 -11 0 -21 -9 -25 -24 -3 -13 -15 -26
-27 -29 -11 -3 -23 -15 -26 -26 -5 -19 -13 -21 -102 -21 l-97 0 1 36 c1 39 21
57 58 52 35 -4 44 8 41 52 -2 25 1 41 9 42 7 0 17 2 22 3 6 2 24 3 41 4 30 1
31 3 29 40 -3 52 3 59 55 63 25 2 45 8 45 13 1 27 18 32 99 31 51 -1 90 -6 97
-13z m147 -6 c2 -11 -3 -17 -16 -17 -13 0 -22 -9 -26 -25 -9 -35 -42 -33 -49
2 -8 44 8 63 51 59 25 -2 38 -8 40 -19z m501 8 c4 -5 6 -16 5 -22 -1 -7 -2
-22 -3 -32 -1 -16 -10 -20 -43 -23 -33 -2 -45 -8 -53 -25 -5 -13 -18 -23 -27
-23 -16 0 -23 -11 -19 -32 0 -4 -10 -10 -24 -14 -15 -4 -28 -16 -31 -30 -5
-20 -12 -24 -43 -24 -46 0 -58 9 -56 41 2 32 12 49 29 49 7 0 18 11 24 25 6
14 18 25 25 25 8 0 19 11 25 25 10 21 19 25 52 25 22 0 40 4 40 9 0 33 79 54
99 26z m199 -8 c2 -11 -3 -17 -16 -17 -13 0 -22 -9 -26 -25 -4 -16 -13 -25
-26 -25 -13 0 -22 -9 -26 -25 -4 -15 -13 -25 -24 -25 -11 0 -20 -10 -24 -25
-4 -16 -13 -25 -26 -25 -11 0 -21 -6 -21 -12 -1 -7 -3 -26 -4 -43 -2 -16 -3
-33 -4 -37 -1 -5 -10 -8 -21 -8 -18 0 -22 -6 -19 -26 1 -12 -26 -24 -57 -24
-17 0 -37 -7 -44 -15 -7 -8 -9 -15 -4 -15 23 -1 -24 -20 -48 -20 -43 0 -61 10
-47 26 6 8 17 14 25 14 7 0 15 9 19 19 6 19 32 34 51 30 26 -4 42 4 52 26 6
14 18 25 27 25 8 0 16 8 16 18 5 64 12 82 33 82 7 0 18 11 24 25 6 14 18 25
26 25 7 0 16 9 19 20 3 11 17 24 32 30 15 6 25 13 21 17 -13 13 16 30 51 29
27 -1 39 -6 41 -19z m182 2 c0 -5 -4 -9 -10 -9 -5 0 -10 7 -10 16 0 8 5 12 10
9 6 -3 10 -10 10 -16z m50 -64 c18 -22 8 -37 -44 -65 l-47 -25 -37 20 c-23 12
-38 29 -40 43 -3 19 1 22 35 22 21 0 45 5 53 10 23 15 66 12 80 -5z m-1025
-63 c-3 -8 -5 -20 -5 -28 0 -8 -8 -14 -19 -14 -10 0 -21 -9 -24 -20 -3 -11
-13 -23 -24 -27 -26 -9 -30 -19 -28 -64 l2 -39 -66 0 c-62 0 -94 -9 -92 -24 3
-20 -1 -25 -21 -28 -13 -2 -24 -9 -24 -15 -1 -7 -2 -17 -3 -23 -1 -11 -41 -14
-42 -2 0 4 -2 14 -3 22 -5 23 12 60 27 60 8 0 18 10 24 23 9 20 19 23 73 25
34 1 65 4 69 6 4 3 7 18 6 33 -2 34 11 63 29 63 8 0 16 9 19 21 3 11 15 23 26
26 12 3 21 9 21 13 0 5 8 16 17 25 16 16 17 16 30 -1 7 -10 11 -25 8 -32z
m855 -237 c-7 -8 -20 -14 -29 -14 -13 1 -13 2 2 6 9 2 17 9 17 14 0 5 5 9 11
9 8 0 8 -5 -1 -15z m-167 -112 c-7 -2 -19 -2 -25 0 -7 3 -2 5 12 5 14 0 19 -2
13 -5z m188 -44 c24 -13 24 -14 3 -17 -28 -4 -97 25 -90 37 7 11 50 1 87 -20z
m-155 -44 c-4 -16 -13 -25 -27 -25 -17 0 -18 3 -8 23 29 55 48 56 35 2z m507
26 c5 -1 6 -5 3 -10 -8 -13 -49 -19 -72 -10 -18 6 -17 8 6 17 14 5 32 8 40 6
8 -1 19 -3 23 -3z m-273 -11 c0 -5 -4 -10 -9 -10 -6 0 -13 5 -16 10 -3 6 1 10
9 10 9 0 16 -4 16 -10z m-332 -18 c6 -18 -15 -14 -22 4 -4 10 -1 14 6 12 6 -2
14 -10 16 -16z m1118 -49 c7 -8 10 -23 7 -33 -6 -23 -33 -27 -33 -6 0 7 -12
21 -26 31 -19 12 -23 19 -14 25 16 10 52 1 66 -17z m436 -45 c-10 -10 -15 -10
-22 2 -6 9 -5 17 3 22 18 11 33 -10 19 -24z m-959 -22 c25 -20 21 -36 -10 -36
-37 0 -57 14 -50 34 8 19 36 20 60 2z m64 -92 c-3 -3 -12 -4 -19 -1 -8 3 -5 6
6 6 11 1 17 -2 13 -5z m-788 -118 c10 -11 8 -16 -9 -21 -26 -8 -35 -1 -27 20
8 19 21 19 36 1z m-199 -112 c0 -16 -18 -18 -39 -5 -11 7 -10 11 5 19 21 12
34 7 34 -14z m-810 -70 c0 -12 -21 -44 -30 -44 -11 0 -40 29 -40 41 0 5 16 9
35 9 19 0 35 -3 35 -6z m709 -76 c4 -12 7 -36 6 -53 -2 -16 -3 -38 -4 -47 -1
-21 -40 -25 -42 -5 -8 82 0 127 22 127 5 0 13 -10 18 -22z m-522 -24 c-3 -3
-12 -4 -19 -1 -8 3 -5 6 6 6 11 1 17 -2 13 -5z m-205 -36 c-9 -9 -12 -7 -12
12 0 19 3 21 12 12 9 -9 9 -15 0 -24z m-9 -53 c8 -19 -13 -31 -23 -14 -9 14
-4 29 10 29 4 0 10 -7 13 -15z"/>
<path d="M2167 1988 c-25 -18 -32 -67 -11 -75 42 -16 139 0 153 25 13 25 2 38
-36 46 -18 3 -45 9 -60 12 -16 3 -36 0 -46 -8z"/>
<path d="M2135 1706 c-12 -8 -16 -24 -13 -56 l3 -45 60 -3 c76 -4 104 3 114
30 12 32 2 58 -25 69 -41 15 -121 18 -139 5z"/>
<path d="M111 2686 c-15 -18 1 -30 30 -21 16 5 18 10 8 21 -15 18 -23 18 -38
0z"/>
<path d="M759 1095 c-1 -8 -2 -30 -3 -47 l-1 -33 -120 -5 c-102 -4 -120 -8
-123 -22 -5 -25 56 -38 184 -38 l110 0 -1 68 c-1 37 -4 73 -9 80 -10 17 -36
15 -37 -3z"/>
<path d="M2840 478 c0 -6 -7 -19 -16 -29 -9 -10 -17 -41 -19 -75 -2 -45 -8
-61 -25 -74 -20 -15 -23 -28 -25 -100 -3 -70 -7 -86 -24 -99 -26 -21 -34 -66
-15 -86 10 -10 35 -15 75 -15 l59 0 0 245 c0 135 -2 245 -5 245 -3 0 -5 -5 -5
-12z"/>
<path d="M1956 435 c-22 -24 -25 -24 -205 -25 l-182 -2 -11 -24 c-6 -13 -19
-24 -28 -24 -19 0 -34 -46 -19 -56 17 -10 184 -5 187 6 11 31 32 35 183 38
151 2 154 2 174 27 15 18 30 25 57 25 39 0 51 14 36 43 -7 14 -23 17 -89 17
-72 0 -82 -2 -103 -25z"/>
<path d="M2104 285 c-6 -25 -7 -25 -119 -25 -82 0 -116 -4 -124 -13 -6 -8 -8
-17 -5 -20 8 -7 -37 -19 -62 -17 -11 1 -58 2 -105 1 l-86 -1 3 -27 c1 -16 2
-30 3 -33 1 -3 74 -4 163 -3 152 2 164 4 178 23 19 25 32 28 131 29 l76 1 -2
48 c-2 26 -4 50 -4 55 -1 4 -10 7 -21 7 -13 0 -22 -9 -26 -25z"/>
<path d="M1755 33 c1 -28 1 -28 76 -28 59 0 74 3 75 15 1 31 -18 40 -86 40
-67 0 -67 0 -65 -27z"/>
<path d="M42 3 c27 -2 69 -2 95 0 27 2 5 3 -47 3 -52 0 -74 -1 -48 -3z"/>
</g>
</svg>
