<?xml version="1.0" standalone="no"?>
<!DOCTYPE svg PUBLIC "-//W3C//DTD SVG 20010904//EN"
 "http://www.w3.org/TR/2001/REC-SVG-20010904/DTD/svg10.dtd">
<svg version="1.0" xmlns="http://www.w3.org/2000/svg"
 width="213.000000pt" height="213.000000pt" viewBox="0 0 213.000000 213.000000"
 preserveAspectRatio="xMidYMid meet">
<metadata>
Created by potrace 1.11, written by Peter Selinger 2001-2013
</metadata>
<g transform="translate(0.000000,213.000000) scale(0.100000,-0.100000)"
fill="#000000" stroke="none">
<path d="M0 1950 l0 -180 40 0 c33 0 40 -3 40 -20 0 -13 7 -20 19 -20 10 0 21
-9 24 -20 4 -15 14 -20 41 -20 29 0 36 -4 36 -20 0 -18 7 -20 60 -20 44 0 60
-4 60 -14 0 -17 44 -26 131 -26 52 0 69 -3 69 -14 0 -16 43 -26 111 -26 37 0
49 -4 49 -15 0 -8 9 -15 20 -15 18 0 20 7 20 60 0 53 -2 60 -20 60 -13 0 -20
7 -20 20 0 13 -7 20 -20 20 -11 0 -20 7 -20 15 0 11 11 15 40 15 33 0 40 -3
40 -20 0 -17 7 -20 40 -20 33 0 40 -3 40 -20 0 -17 7 -20 40 -20 27 0 40 -4
40 -14 0 -13 41 -26 85 -26 14 0 25 -7 28 -20 3 -12 14 -20 26 -20 14 0 21 -6
21 -20 0 -13 7 -20 20 -20 11 0 20 -6 20 -14 0 -9 15 -17 40 -21 38 -6 40 -9
40 -41 l0 -34 -580 0 -580 0 0 -125 c0 -118 1 -125 20 -125 17 0 20 -7 20 -40
0 -33 3 -40 20 -40 13 0 20 -7 20 -20 0 -13 7 -20 20 -20 13 0 20 -7 20 -20 0
-17 7 -20 40 -20 33 0 40 -3 40 -20 0 -19 7 -20 140 -20 133 0 140 1 140 20 0
17 7 20 40 20 33 0 40 3 40 20 0 13 7 20 20 20 13 0 20 7 20 20 0 13 7 20 20
20 13 0 20 7 20 20 0 17 7 20 40 20 l40 0 0 -135 0 -135 -40 0 c-36 0 -40 -2
-40 -25 0 -25 1 -25 80 -25 l80 0 0 60 0 60 60 0 c48 0 60 -3 60 -16 0 -9 -9
-18 -20 -21 -16 -4 -20 -14 -20 -44 0 -32 -3 -39 -20 -39 -16 0 -20 -7 -20
-35 0 -28 -4 -35 -20 -35 -13 0 -20 -7 -20 -20 0 -13 -7 -20 -20 -20 -13 0
-20 -7 -20 -20 0 -13 -7 -20 -20 -20 -13 0 -20 -7 -20 -20 0 -15 -7 -20 -29
-20 -16 0 -43 -3 -60 -6 l-31 -6 0 -74 0 -74 -120 0 c-113 0 -120 1 -120 20 0
18 -7 20 -60 20 -53 0 -60 2 -60 20 0 17 -7 20 -40 20 -33 0 -40 3 -40 20 0
17 -7 20 -40 20 l-40 0 0 40 c0 33 -3 40 -20 40 -13 0 -20 7 -20 20 0 13 -7
20 -20 20 -20 0 -20 -7 -20 -344 l0 -343 31 -7 c17 -3 497 -6 1065 -6 l1034 0
0 1065 0 1065 -825 0 -825 0 0 -34 c0 -32 2 -35 40 -41 30 -5 40 -11 40 -26 0
-12 7 -19 20 -19 11 0 20 -7 20 -15 0 -11 -11 -15 -40 -15 -33 0 -40 3 -40 20
0 17 -7 20 -40 20 l-40 0 0 -45 c0 -38 3 -45 20 -45 16 0 20 -7 20 -35 0 -28
-4 -35 -20 -35 -13 0 -20 7 -20 20 0 13 -7 20 -20 20 -11 0 -20 6 -20 14 0 19
-45 26 -171 26 -102 0 -109 1 -109 20 0 17 -7 20 -40 20 -39 0 -40 1 -40 35 0
28 4 35 20 35 14 0 20 -7 20 -21 0 -19 4 -21 31 -15 17 3 71 6 120 6 l89 0 0
55 c0 48 -2 55 -20 55 -11 0 -20 -7 -20 -15 0 -8 -9 -15 -20 -15 -11 0 -20 7
-20 15 0 13 -20 15 -120 15 l-120 0 0 -180z m640 5 c0 -8 -9 -15 -20 -15 -11
0 -20 7 -20 15 0 8 9 15 20 15 11 0 20 -7 20 -15z m1100 -289 c0 -25 17 -46
39 -46 21 0 51 30 51 52 0 29 18 21 22 -9 2 -20 17 -37 56 -63 74 -49 86 -70
78 -133 -4 -29 -7 -60 -6 -69 3 -83 -12 -264 -23 -277 -6 -7 -39 -27 -73 -43
-50 -24 -63 -35 -71 -61 -11 -38 -35 -42 -43 -7 -4 19 -13 26 -37 28 -26 3
-32 -1 -37 -22 -8 -33 -26 -34 -26 -1 0 34 -40 50 -87 34 -44 -14 -60 -1 -55
45 3 22 14 44 33 60 l29 26 -3 125 c-2 69 -7 128 -10 132 -4 3 0 17 8 30 14
21 14 24 0 29 -8 4 -22 1 -29 -5 -12 -10 -14 -6 -11 26 2 21 9 53 16 71 11 26
19 32 44 32 52 0 74 11 95 47 21 36 40 36 40 -1z m-343 -132 c-3 -3 -12 -4
-19 -1 -8 3 -5 6 6 6 11 1 17 -2 13 -5z m109 -46 c8 -12 -21 -38 -43 -38 -13
0 -18 32 -6 43 10 11 41 8 49 -5z m-176 -197 c0 -12 -29 -23 -41 -15 -5 3 -7
10 -4 15 8 12 45 12 45 0z m160 -201 c0 -34 -12 -38 -38 -12 -10 9 -27 22 -38
29 -16 10 -12 12 29 12 46 1 47 0 47 -29z m-570 -455 c0 -8 -9 -15 -20 -15
-11 0 -20 7 -20 15 0 8 9 15 20 15 11 0 20 -7 20 -15z"/>
<path d="M1713 1499 c-7 -7 -13 -33 -13 -57 l0 -44 73 7 c39 4 75 9 80 12 10
6 9 71 -2 77 -22 14 -126 18 -138 5z"/>
<path d="M1680 1260 c-16 -29 -4 -87 20 -100 21 -11 99 -13 125 -4 35 14 42
95 9 108 -8 3 -43 8 -78 12 -59 6 -65 5 -76 -16z"/>
<path d="M600 740 l0 -40 -100 0 -100 0 0 -25 0 -25 140 0 140 0 0 25 c0 18
-5 25 -20 25 -17 0 -20 7 -20 40 0 33 -3 40 -20 40 -17 0 -20 -7 -20 -40z"/>
</g>
</svg>
