<?xml version="1.0" standalone="no"?>
<!DOCTYPE svg PUBLIC "-//W3C//DTD SVG 20010904//EN"
 "http://www.w3.org/TR/2001/REC-SVG-20010904/DTD/svg10.dtd">
<svg version="1.0" xmlns="http://www.w3.org/2000/svg"
 width="275.000000pt" height="275.000000pt" viewBox="0 0 275.000000 275.000000"
 preserveAspectRatio="xMidYMid meet">
<metadata>
Created by potrace 1.11, written by Peter Selinger 2001-2013
</metadata>
<g transform="translate(0.000000,275.000000) scale(0.100000,-0.100000)"
fill="#000000" stroke="none">
<path d="M420 2730 c0 -13 7 -20 20 -20 13 0 20 -7 20 -20 0 -13 7 -20 20 -20
13 0 20 -7 20 -20 0 -13 7 -20 20 -20 13 0 20 -7 20 -20 0 -13 7 -20 20 -20
13 0 20 -7 20 -20 0 -13 7 -20 20 -20 13 0 20 -7 20 -20 0 -13 7 -20 20 -20
13 0 20 -7 20 -20 0 -13 7 -20 20 -20 13 0 20 -7 20 -20 0 -13 7 -20 20 -20
13 0 20 -7 20 -20 0 -13 7 -20 20 -20 13 0 20 -7 20 -20 0 -13 7 -20 20 -20
13 0 20 -7 20 -20 0 -13 7 -20 20 -20 13 0 20 -7 20 -20 0 -17 7 -20 40 -20
33 0 40 -3 40 -20 0 -13 7 -20 20 -20 13 0 20 -7 20 -20 0 -17 7 -20 40 -20
33 0 40 -3 40 -20 0 -13 7 -20 20 -20 15 0 20 -7 20 -25 0 -18 5 -25 20 -25
11 0 20 -7 20 -15 0 -11 -11 -15 -40 -15 -33 0 -40 3 -40 20 0 17 -7 20 -40
20 -33 0 -40 3 -40 20 0 17 -7 20 -40 20 -33 0 -40 3 -40 20 0 17 -7 20 -40
20 -33 0 -40 3 -40 20 0 13 -7 20 -20 20 -13 0 -20 7 -20 20 0 17 -7 20 -40
20 l-40 0 0 -45 c0 -38 3 -45 20 -45 17 0 20 -7 20 -40 0 -33 3 -40 20 -40 16
0 20 -7 20 -35 l0 -35 -60 0 c-53 0 -60 2 -60 20 0 18 -7 20 -80 20 -73 0 -80
2 -80 20 0 18 -7 20 -60 20 -53 0 -60 2 -60 20 0 13 -7 20 -20 20 -13 0 -20 7
-20 20 0 13 -7 20 -20 20 -13 0 -20 7 -20 20 0 11 -7 20 -15 20 -8 0 -15 7
-15 16 0 9 -9 18 -19 21 -11 3 -21 13 -24 24 -3 11 -14 19 -26 19 -18 0 -21 6
-21 40 0 33 3 40 19 40 13 0 21 -8 23 -22 2 -13 11 -24 21 -26 15 -3 17 6 17
77 0 74 -2 81 -20 81 -17 0 -20 7 -20 39 0 35 -3 39 -31 45 -17 3 -44 6 -60 6
l-29 0 0 -145 c0 -138 -1 -145 -20 -145 -16 0 -20 -7 -20 -35 0 -28 -4 -35
-20 -35 -17 0 -20 -7 -20 -40 0 -22 -4 -40 -10 -40 -6 0 -10 -42 -10 -105 0
-63 4 -105 10 -105 6 0 10 9 10 20 0 13 7 20 20 20 13 0 20 7 20 20 0 13 7 20
20 20 13 0 20 7 20 20 0 13 7 20 20 20 18 0 20 7 20 60 0 53 2 60 20 60 13 0
20 7 20 20 0 13 7 20 20 20 13 0 20 -7 20 -20 0 -13 7 -20 20 -20 16 0 20 -7
20 -34 0 -32 2 -35 40 -41 30 -5 40 -11 40 -26 0 -16 7 -19 40 -19 27 0 40 -4
40 -14 0 -14 42 -26 91 -26 19 0 29 -5 29 -15 0 -10 10 -15 29 -15 49 0 91
-12 91 -26 0 -10 13 -14 39 -14 79 0 161 -13 161 -25 0 -11 41 -25 71 -25 5 0
9 20 9 45 0 38 -3 45 -20 45 -13 0 -20 7 -20 20 0 13 -7 20 -20 20 -13 0 -20
7 -20 20 0 13 -7 20 -20 20 -13 0 -20 7 -20 20 0 13 -7 20 -20 20 -11 0 -20 7
-20 15 0 11 11 15 40 15 33 0 40 -3 40 -20 0 -13 7 -20 20 -20 11 0 20 -6 20
-14 0 -13 41 -26 86 -26 14 0 24 -6 24 -14 0 -10 16 -17 45 -22 27 -4 45 -12
45 -19 0 -8 17 -16 40 -20 25 -4 40 -12 40 -21 0 -8 9 -14 20 -14 13 0 20 -7
20 -19 0 -15 10 -21 40 -26 30 -5 40 -11 40 -26 0 -12 7 -19 20 -19 11 0 20
-7 20 -15 0 -8 9 -15 20 -15 17 0 20 -7 20 -40 l0 -40 -620 0 c-613 0 -620 0
-620 20 0 18 -7 20 -70 20 l-70 0 0 -59 0 -58 46 -7 c26 -3 66 -6 90 -6 l44 0
0 -55 c0 -48 2 -55 20 -55 13 0 20 -7 20 -20 0 -13 7 -20 20 -20 17 0 20 -7
20 -40 0 -33 3 -40 20 -40 13 0 20 -7 20 -20 0 -13 7 -20 20 -20 13 0 20 -7
20 -20 0 -17 7 -20 40 -20 33 0 40 -3 40 -20 0 -19 7 -20 140 -20 133 0 140 1
140 20 0 17 7 20 40 20 29 0 40 4 40 15 0 8 9 15 20 15 18 0 20 7 20 60 0 53
2 60 20 60 13 0 20 7 20 20 0 13 7 20 20 20 13 0 20 7 20 20 0 13 7 20 20 20
19 0 20 -7 20 -100 0 -93 1 -100 20 -100 19 0 20 -7 20 -95 l0 -95 -60 0 c-53
0 -60 -2 -60 -20 0 -18 7 -20 80 -20 l80 0 0 95 c0 88 1 95 20 95 13 0 20 -7
20 -20 0 -18 7 -20 60 -20 l60 0 0 -75 c0 -68 -2 -75 -20 -75 -17 0 -20 -7
-20 -40 0 -33 -3 -40 -20 -40 -13 0 -20 -7 -20 -20 0 -13 -7 -20 -20 -20 -13
0 -20 -7 -20 -20 0 -17 -7 -20 -40 -20 -33 0 -40 -3 -40 -20 0 -13 -7 -20 -20
-20 -13 0 -20 -7 -20 -20 0 -18 -7 -20 -60 -20 l-60 0 0 -60 0 -60 -40 0 c-33
0 -40 -3 -40 -20 0 -18 -7 -20 -80 -20 -73 0 -80 2 -80 20 0 18 -7 20 -80 20
-73 0 -80 2 -80 20 0 13 -7 20 -20 20 -13 0 -20 7 -20 20 0 17 -7 20 -40 20
-33 0 -40 3 -40 20 0 13 -7 20 -20 20 -13 0 -20 7 -20 20 0 13 -7 20 -20 20
-13 0 -20 7 -20 20 0 13 -7 20 -20 20 -13 0 -20 7 -20 20 0 13 -7 20 -20 20
-13 0 -20 7 -20 20 0 17 -7 20 -40 20 -33 0 -40 3 -40 20 0 13 -7 20 -20 20
-13 0 -20 7 -20 20 0 11 -4 20 -10 20 -16 0 -13 -637 2 -643 10 -4 10 -6 1 -6
-16 -1 -18 -111 -3 -111 6 0 10 6 10 14 0 7 14 16 31 20 47 9 49 8 49 -20 0
-25 2 -25 40 -19 36 6 40 5 40 -14 0 -16 6 -21 29 -21 59 0 91 -12 91 -33 0
-18 4 -19 60 -14 55 6 60 5 60 -13 0 -18 7 -20 60 -20 57 0 60 -1 60 -25 l0
-25 120 0 120 0 0 -75 0 -75 -60 0 c-53 0 -60 2 -60 20 0 13 -7 20 -20 20 -13
0 -20 7 -20 20 0 17 -7 20 -40 20 -33 0 -40 3 -40 20 0 18 -7 20 -80 20 -73 0
-80 2 -80 20 0 19 -7 20 -100 20 -93 0 -100 1 -100 20 0 19 -7 20 -90 20 -83
0 -90 -1 -90 -20 0 -18 7 -20 73 -21 45 -1 63 -4 47 -8 -19 -5 -26 -14 -28
-41 -2 -19 -12 -40 -22 -47 -11 -8 -19 -29 -22 -53 -3 -36 -2 -39 17 -34 19 5
19 4 3 -9 -37 -30 -21 -37 87 -37 87 0 105 3 105 15 0 8 9 15 20 15 13 0 20 7
20 20 0 13 7 20 20 20 14 0 20 7 20 21 0 19 4 20 40 14 38 -6 40 -6 40 19 0
24 4 26 40 26 36 0 40 -2 40 -26 0 -25 2 -25 40 -19 36 6 40 5 40 -14 0 -14 6
-21 20 -21 13 0 20 -7 20 -20 0 -17 -7 -20 -40 -20 -33 0 -40 3 -40 20 0 18
-7 20 -60 20 -53 0 -60 -2 -60 -20 0 -13 -7 -20 -20 -20 -11 0 -20 -7 -20 -15
0 -11 11 -15 40 -15 22 0 40 5 40 10 0 6 9 10 20 10 11 0 20 -4 20 -10 0 -6
53 -10 140 -10 l140 0 0 30 c0 23 4 30 20 30 16 0 20 -7 20 -30 l0 -30 80 0
80 0 0 250 c0 243 1 250 20 250 19 0 20 7 20 139 l0 139 80 7 c58 5 80 11 80
21 0 8 9 14 20 14 11 0 20 -7 20 -15 0 -25 66 -20 73 5 5 18 14 20 81 20 58 0
76 3 76 14 0 16 51 26 138 26 46 0 62 4 62 14 0 16 51 26 138 26 46 0 62 4 62
14 0 10 22 15 80 20 59 6 80 11 80 22 0 10 14 14 58 14 71 0 102 8 102 26 0
11 19 14 85 14 78 0 85 2 85 20 0 18 7 20 89 20 49 0 103 3 120 6 l31 7 0
-122 c0 -114 -1 -121 -20 -121 -19 0 -20 -7 -20 -100 0 -93 -1 -100 -20 -100
-17 0 -20 -7 -20 -47 0 -86 -12 -153 -26 -153 -11 0 -14 -19 -14 -80 0 -73 -2
-80 -20 -80 -19 0 -20 -7 -20 -100 0 -93 -1 -100 -20 -100 -16 0 -20 -7 -20
-35 l0 -35 75 0 75 0 0 30 c0 20 -5 30 -15 30 -9 0 -15 9 -15 25 0 18 5 25 20
25 13 0 20 -7 20 -20 0 -11 7 -20 15 -20 11 0 15 18 17 78 l3 77 43 3 c37 3
42 1 42 -17 0 -14 -6 -21 -20 -21 -19 0 -20 -7 -20 -95 l0 -95 65 0 65 0 0
745 c0 552 -3 751 -12 771 -9 20 -9 30 0 45 8 13 11 80 10 226 -1 115 -4 171
-5 126 -3 -75 -6 -83 -23 -83 -19 0 -20 7 -20 115 0 108 1 115 20 115 17 0 20
7 20 48 0 26 3 64 6 85 6 35 5 37 -20 37 -26 0 -26 0 -26 -80 0 -73 -2 -80
-20 -80 -19 0 -20 -7 -22 -122 l-2 -123 -7 105 c-4 58 -8 115 -8 128 -1 14
-10 26 -26 32 -30 12 -32 40 -5 65 23 21 26 56 8 86 -11 18 -10 23 14 40 23
17 26 25 21 52 -3 18 -11 41 -18 52 -7 11 -14 43 -17 70 -4 33 -18 71 -41 110
-50 83 -52 85 -102 85 -50 0 -58 11 -21 28 15 7 25 21 28 41 l5 31 -504 0
c-498 0 -503 0 -503 -20 0 -12 -10 -25 -25 -32 -51 -23 -24 -50 41 -41 36 4
40 2 53 -28 13 -30 13 -33 -9 -51 -16 -13 -26 -16 -34 -8 -16 16 -34 12 -41
-10 -10 -30 -45 -26 -45 5 0 19 -5 25 -21 25 -21 0 -21 3 -15 80 l7 80 -485 0
c-479 0 -486 0 -486 -20z m936 -25 c6 -23 0 -45 -10 -34 -10 12 -15 59 -6 59
5 0 12 -11 16 -25z m-616 -20 c0 -8 -9 -15 -20 -15 -11 0 -20 7 -20 15 0 8 9
15 20 15 11 0 20 -7 20 -15z m1358 -51 c25 -17 31 -81 10 -102 -16 -16 -50
-15 -72 1 -17 12 -17 18 -6 53 13 40 27 64 39 64 4 0 17 -7 29 -16z m-789 -90
c21 -5 31 -12 31 -25 0 -12 7 -19 20 -19 17 0 20 -7 20 -40 0 -33 3 -40 20
-40 11 0 20 -7 20 -15 0 -8 -9 -15 -20 -15 -13 0 -20 -7 -20 -20 0 -13 -7 -20
-20 -20 -13 0 -20 -7 -20 -20 0 -19 -7 -20 -120 -20 l-120 0 0 40 0 40 40 0
c33 0 40 3 40 20 0 13 7 20 20 20 17 0 20 7 20 40 0 33 3 40 20 40 13 0 20 7
20 20 0 22 3 23 49 14z m-249 -174 c0 -13 -7 -20 -20 -20 -13 0 -20 -7 -20
-20 0 -18 -7 -20 -80 -20 l-80 0 0 35 0 34 63 4 c145 8 137 9 137 -13z m1002
-107 c2 -10 4 -43 3 -73 0 -52 -1 -55 -27 -58 -36 -4 -50 23 -41 83 4 35 11
49 27 55 30 12 33 12 38 -7z m346 -11 c17 -13 25 -33 32 -82 5 -35 7 -66 5
-69 -3 -2 -16 1 -29 7 -17 7 -27 7 -35 -1 -14 -14 -25 -3 -40 42 -15 46 -14
72 5 99 18 26 32 27 62 4z m-736 -38 c-4 -47 -8 -52 -30 -37 -18 12 -19 48 0
70 19 23 33 8 30 -33z m568 26 c8 -5 11 -10 6 -10 -5 0 -3 -6 3 -14 7 -9 9
-29 5 -55 -6 -38 -8 -40 -33 -34 -40 9 -41 11 -35 56 10 71 18 80 54 57z
m-262 -228 c3 -28 7 -33 25 -30 15 2 23 12 27 33 9 55 70 41 70 -16 0 -21 6
-32 23 -38 12 -5 42 -30 66 -56 l43 -47 -4 -66 c-3 -48 0 -77 11 -100 13 -29
13 -34 1 -42 -17 -11 -21 -34 -23 -139 -1 -41 -6 -76 -12 -78 -37 -12 -141
-74 -147 -87 -5 -9 -12 -24 -17 -33 -13 -29 -47 -28 -67 1 -20 31 -31 33 -39
7 -13 -41 -62 -36 -67 7 -4 36 -36 41 -59 11 -10 -13 -19 -32 -19 -42 0 -28
-60 -77 -93 -77 -32 0 -67 16 -67 30 0 6 10 10 23 10 13 0 31 6 40 13 15 10
16 16 5 45 -10 25 -18 32 -40 32 -17 0 -31 7 -38 20 -6 11 -8 20 -4 20 3 0 1
7 -6 15 -7 8 -23 15 -36 15 -13 0 -37 13 -54 30 -32 31 -71 47 -89 35 -7 -4
-11 4 -11 20 0 20 4 26 15 21 8 -3 22 -3 30 0 25 10 17 32 -15 39 -26 6 -30
11 -30 41 0 33 1 34 41 34 40 0 40 0 34 30 -4 19 -2 37 6 46 10 13 14 12 32
-3 10 -10 23 -28 28 -40 8 -21 9 -21 61 -6 29 9 73 18 98 20 56 6 70 18 47 40
-15 16 -18 16 -36 -1 -26 -24 -86 -14 -102 16 -9 17 -18 20 -60 16 -46 -5 -49
-4 -49 18 0 12 4 25 9 29 5 3 12 19 16 35 9 43 91 81 109 51 10 -15 75 -5 96
14 10 9 20 27 22 39 2 14 11 22 28 24 78 8 86 12 103 48 14 29 22 35 45 32 23
-2 28 -8 30 -36z m-485 -149 c-7 -2 -19 -2 -25 0 -7 3 -2 5 12 5 14 0 19 -2
13 -5z m1124 -215 c-2 -35 -3 -9 -3 57 0 66 1 94 3 63 2 -32 2 -86 0 -120z
m83 77 c0 -88 -1 -95 -20 -95 -19 0 -20 7 -20 95 0 88 1 95 20 95 19 0 20 -7
20 -95z m-1247 58 c-7 -2 -19 -2 -25 0 -7 3 -2 5 12 5 14 0 19 -2 13 -5z
m1121 -2 c3 -5 -1 -14 -8 -20 -16 -13 -32 2 -21 19 8 12 22 13 29 1z m-1874
-96 c0 -8 -9 -15 -20 -15 -13 0 -20 -7 -20 -20 0 -13 -7 -20 -20 -20 -13 0
-20 -7 -20 -20 0 -13 -7 -20 -20 -20 -13 0 -20 -7 -20 -20 0 -13 -7 -20 -20
-20 -13 0 -20 -7 -20 -20 0 -13 -7 -20 -20 -20 -13 0 -20 -7 -20 -20 0 -13 -7
-20 -20 -20 -13 0 -20 -7 -20 -20 0 -18 -7 -20 -80 -20 l-80 0 0 35 c0 34 1
35 40 35 l40 0 0 40 0 40 40 0 40 0 0 40 0 40 40 0 c33 0 40 3 40 20 0 18 7
20 80 20 64 0 80 -3 80 -15z m120 0 c0 -8 -9 -15 -20 -15 -13 0 -20 -7 -20
-20 0 -13 -7 -20 -20 -20 -16 0 -20 7 -20 35 0 34 1 35 40 35 29 0 40 -4 40
-15z m400 -20 c0 -34 -1 -35 -40 -35 -33 0 -40 -3 -40 -20 0 -13 -7 -20 -20
-20 -13 0 -20 -7 -20 -20 0 -13 -7 -20 -20 -20 -13 0 -20 -7 -20 -20 0 -17 -7
-20 -40 -20 -39 0 -40 1 -40 35 0 28 4 35 20 35 13 0 20 7 20 20 0 13 7 20 20
20 13 0 20 7 20 20 0 17 7 20 40 20 33 0 40 3 40 20 0 17 7 20 40 20 39 0 40
-1 40 -35z m160 20 c0 -8 -9 -15 -20 -15 -13 0 -20 -7 -20 -20 0 -13 -7 -20
-20 -20 -13 0 -20 -7 -20 -20 0 -13 -7 -20 -20 -20 -13 0 -20 -7 -20 -20 0
-13 -7 -20 -20 -20 -17 0 -20 -7 -20 -40 0 -33 -3 -40 -20 -40 -13 0 -20 -7
-20 -20 0 -17 -7 -20 -40 -20 -33 0 -40 -3 -40 -20 0 -17 -7 -20 -40 -20 -29
0 -40 4 -40 15 0 8 9 15 20 15 13 0 20 7 20 20 0 17 7 20 40 20 33 0 40 3 40
20 0 13 7 20 20 20 17 0 20 7 20 40 0 33 3 40 20 40 13 0 20 7 20 20 0 13 7
20 20 20 13 0 20 7 20 20 0 13 7 20 20 20 13 0 20 7 20 20 0 17 7 20 40 20 29
0 40 -4 40 -15z m1018 -28 c8 -6 12 -26 10 -51 -3 -40 -4 -41 -41 -44 -45 -4
-65 9 -61 40 1 13 3 36 3 51 1 27 3 28 39 21 20 -4 43 -11 50 -17z m-1658 -72
c0 -28 -4 -35 -20 -35 -13 0 -20 -7 -20 -20 0 -13 -7 -20 -20 -20 -17 0 -20
-7 -20 -40 l0 -40 -60 0 c-53 0 -60 -2 -60 -20 0 -13 -7 -20 -20 -20 -13 0
-20 -7 -20 -20 0 -13 -7 -20 -20 -20 -16 0 -20 7 -20 35 0 28 4 35 20 35 13 0
20 7 20 20 0 18 7 20 60 20 l60 0 0 40 c0 33 3 40 20 40 13 0 20 7 20 20 0 13
7 20 20 20 13 0 20 7 20 20 0 13 7 20 20 20 16 0 20 -7 20 -35z m1920 -60 c0
-48 -2 -55 -20 -55 -18 0 -20 7 -20 55 0 48 2 55 20 55 18 0 20 -7 20 -55z
m40 -80 c0 -8 -9 -15 -20 -15 -11 0 -20 7 -20 15 0 8 9 15 20 15 11 0 20 -7
20 -15z m-1264 -54 c-4 -6 -19 -10 -34 -10 -24 2 -24 2 -4 6 12 2 22 12 22 21
0 12 3 13 11 5 6 -6 8 -16 5 -22z m1304 9 c0 -13 -7 -20 -20 -20 -13 0 -20 7
-20 20 0 13 7 20 20 20 13 0 20 -7 20 -20z m-1367 -57 c-7 -2 -19 -2 -25 0 -7
3 -2 5 12 5 14 0 19 -2 13 -5z m1247 -38 c0 -28 -4 -35 -20 -35 -16 0 -20 7
-20 35 0 28 4 35 20 35 16 0 20 -7 20 -35z m80 20 c0 -8 -9 -15 -20 -15 -11 0
-20 7 -20 15 0 8 9 15 20 15 11 0 20 -7 20 -15z m-1276 -34 c18 -13 108 -41
134 -41 15 0 22 -5 19 -12 -7 -22 -95 -11 -214 27 -18 6 -23 2 -29 -19 -9 -38
-26 -47 -73 -40 -31 5 -41 11 -41 25 0 20 15 25 25 9 11 -18 35 -10 45 14 5
13 19 28 32 33 18 6 11 9 -37 14 -38 4 -25 5 34 2 52 -2 100 -7 105 -12z
m1236 -46 c0 -8 -9 -15 -20 -15 -11 0 -20 7 -20 15 0 8 9 15 20 15 11 0 20 -7
20 -15z m-127 -35 c-3 -11 -12 -20 -19 -20 -8 0 -14 9 -14 20 0 13 7 20 19 20
14 0 18 -5 14 -20z m-382 -5 c28 -12 30 -14 12 -15 -16 0 -23 -6 -23 -20 0
-27 -34 -26 -61 1 -42 42 4 64 72 34z m347 -42 c-5 -26 -38 -29 -38 -4 0 15 6
21 21 21 14 0 19 -5 17 -17z m112 2 c0 -8 -7 -15 -15 -15 -8 0 -15 7 -15 15 0
8 7 15 15 15 8 0 15 -7 15 -15z m-885 -21 c9 -9 15 -28 13 -42 -2 -20 2 -28
22 -33 24 -7 24 -7 2 -8 -12 -1 -30 8 -39 19 -10 11 -21 20 -26 20 -5 0 -4 -7
3 -15 11 -13 9 -15 -13 -15 -19 0 -25 5 -25 23 0 12 -3 32 -7 45 -7 20 -4 22
23 22 17 0 38 -7 47 -16z m-512 -41 c-7 -2 -19 -2 -25 0 -7 3 -2 5 12 5 14 0
19 -2 13 -5z m-40 -80 c-7 -2 -19 -2 -25 0 -7 3 -2 5 12 5 14 0 19 -2 13 -5z
m685 -16 c2 -12 -3 -17 -17 -17 -15 0 -21 6 -21 21 0 25 33 22 38 -4z m-718
-37 c0 -13 -7 -20 -20 -20 -13 0 -20 7 -20 20 0 13 7 20 20 20 13 0 20 -7 20
-20z m80 -45 c0 -11 -11 -15 -40 -15 -29 0 -40 4 -40 15 0 11 11 15 40 15 29
0 40 -4 40 -15z m-160 -60 c0 -28 -4 -35 -20 -35 -13 0 -20 7 -20 20 0 13 -7
20 -20 20 -13 0 -20 -7 -20 -20 0 -13 -7 -20 -20 -20 -16 0 -20 7 -20 35 l0
35 60 0 60 0 0 -35z m-807 -2 c-7 -2 -19 -2 -25 0 -7 3 -2 5 12 5 14 0 19 -2
13 -5z m76 -63 c-16 -43 -44 -38 -62 13 -5 14 0 17 33 17 l39 0 -10 -30z m611
5 c0 -8 -9 -15 -20 -15 -18 0 -20 -7 -20 -60 0 -53 -2 -60 -20 -60 -18 0 -20
7 -20 75 l0 75 40 0 c29 0 40 -4 40 -15z m1680 0 c0 -8 -9 -15 -20 -15 -11 0
-20 7 -20 15 0 8 9 15 20 15 11 0 20 -7 20 -15z m-2407 -22 c-7 -2 -19 -2 -25
0 -7 3 -2 5 12 5 14 0 19 -2 13 -5z m160 0 c-7 -2 -19 -2 -25 0 -7 3 -2 5 12
5 14 0 19 -2 13 -5z m-51 -99 c-3 -68 -17 -124 -32 -124 -13 0 -19 108 -8 142
6 18 13 39 15 46 1 8 9 12 16 9 8 -3 11 -24 9 -73z m181 59 c-24 -2 -62 -2
-85 0 -24 2 -5 4 42 4 47 0 66 -2 43 -4z m310 0 c-7 -2 -19 -2 -25 0 -7 3 -2
5 12 5 14 0 19 -2 13 -5z m-640 -40 c-7 -2 -19 -2 -25 0 -7 3 -2 5 12 5 14 0
19 -2 13 -5z m550 0 c-35 -2 -91 -2 -125 0 -35 2 -7 3 62 3 69 0 97 -1 63 -3z
m-590 -40 c-7 -2 -19 -2 -25 0 -7 3 -2 5 12 5 14 0 19 -2 13 -5z m727 -118 c0
-68 -2 -75 -20 -75 -18 0 -20 7 -20 75 0 68 2 75 20 75 18 0 20 -7 20 -75z
m1720 60 c0 -8 -9 -15 -20 -15 -11 0 -20 7 -20 15 0 8 9 15 20 15 11 0 20 -7
20 -15z m-2487 -22 c-7 -2 -19 -2 -25 0 -7 3 -2 5 12 5 14 0 19 -2 13 -5z
m-13 -42 c0 -16 -28 -20 -47 -6 -17 13 -16 14 15 15 17 0 32 -4 32 -9z m136
-13 c11 -17 -26 -40 -43 -27 -10 9 -10 15 -2 25 14 17 35 18 45 2z m184 -25
c7 -21 20 -43 28 -49 9 -6 12 -16 7 -23 -11 -18 -68 38 -61 61 2 10 0 21 -5
24 -13 8 -11 24 4 24 7 0 19 -17 27 -37z m-192 -61 c2 -7 -3 -12 -12 -12 -9 0
-16 7 -16 16 0 17 22 14 28 -4z m68 -9 c7 -10 14 -24 14 -30 0 -19 -17 -16
-24 5 -3 9 -9 23 -12 30 -9 18 7 15 22 -5z m204 -43 c0 -5 -4 -10 -10 -10 -5
0 -10 5 -10 10 0 6 5 10 10 10 6 0 10 -4 10 -10z m193 -28 c21 -23 13 -32 -30
-32 -34 0 -43 16 -21 38 17 17 32 15 51 -6z m-123 -21 c0 -6 -4 -13 -10 -16
-5 -3 -10 1 -10 9 0 9 5 16 10 16 6 0 10 -4 10 -9z m-257 -158 c-29 -2 -77 -2
-105 0 -29 2 -6 3 52 3 58 0 81 -1 53 -3z"/>
<path d="M1944 1795 c-10 -25 3 -44 25 -38 29 7 29 53 1 53 -11 0 -23 -7 -26
-15z"/>
<path d="M2035 1780 c-3 -5 -1 -10 4 -10 6 0 11 5 11 10 0 6 -2 10 -4 10 -3 0
-8 -4 -11 -10z"/>
<path d="M1633 1627 c-23 -7 -45 -16 -50 -20 -4 -5 -22 -15 -40 -22 -32 -14
-32 -14 -19 -52 7 -21 24 -44 39 -53 23 -13 30 -12 63 3 36 18 39 18 70 1 l33
-18 31 29 c24 23 30 37 30 72 0 38 -3 45 -27 54 -44 17 -85 19 -130 6z"/>
<path d="M1916 1568 c-8 -32 -8 -35 10 -52 28 -29 119 -17 130 16 9 30 -14 45
-77 52 -53 7 -57 6 -63 -16z"/>
<path d="M2562 2688 c44 -51 62 -64 89 -66 52 -5 57 -14 59 -106 1 -20 -6 -36
-22 -47 l-22 -17 32 -19 c17 -10 36 -29 41 -43 6 -17 10 37 10 168 l1 192 -46
0 c-40 0 -45 -2 -34 -15 13 -16 6 -35 -15 -35 -21 0 -28 19 -15 35 11 13 2 15
-60 15 l-73 0 55 -62z"/>
<path d="M820 1070 l0 -40 -100 0 c-93 0 -100 -1 -100 -20 0 -18 7 -20 89 -20
49 0 103 -3 120 -6 l31 -6 0 66 c0 59 -2 66 -20 66 -17 0 -20 -7 -20 -40z"/>
<path d="M1780 560 c0 -19 -7 -20 -160 -20 -153 0 -160 -1 -160 -20 0 -13 -7
-20 -20 -20 -11 0 -20 -7 -20 -15 0 -12 15 -15 75 -15 68 0 75 2 75 20 0 19 7
20 140 20 133 0 140 1 140 20 0 17 7 20 40 20 29 0 40 4 40 15 0 12 -15 15
-75 15 -68 0 -75 -2 -75 -20z"/>
<path d="M1900 440 c0 -19 -7 -20 -100 -20 -93 0 -100 -1 -100 -20 0 -19 -7
-20 -100 -20 -82 0 -100 -3 -100 -15 0 -13 22 -15 135 -15 128 0 135 1 135 20
0 18 7 20 80 20 l80 0 0 35 c0 24 -5 35 -15 35 -8 0 -15 -9 -15 -20z"/>
<path d="M1620 225 c0 -33 2 -35 35 -35 28 0 35 4 35 20 0 13 7 20 20 20 11 0
20 7 20 15 0 12 -13 15 -55 15 l-55 0 0 -35z"/>
<path d="M2 90 c0 -14 2 -19 5 -12 2 6 2 18 0 25 -3 6 -5 1 -5 -13z"/>
<path d="M0 16 c0 -9 5 -16 10 -16 6 0 10 4 10 9 0 6 -4 13 -10 16 -5 3 -10
-1 -10 -9z"/>
</g>
</svg>
