<?xml version="1.0" standalone="no"?>
<!DOCTYPE svg PUBLIC "-//W3C//DTD SVG 20010904//EN"
 "http://www.w3.org/TR/2001/REC-SVG-20010904/DTD/svg10.dtd">
<svg version="1.0" xmlns="http://www.w3.org/2000/svg"
 width="275.000000pt" height="275.000000pt" viewBox="0 0 275.000000 275.000000"
 preserveAspectRatio="xMidYMid meet">
<metadata>
Created by potrace 1.11, written by Peter Selinger 2001-2013
</metadata>
<g transform="translate(0.000000,275.000000) scale(0.100000,-0.100000)"
fill="#000000" stroke="none">
<path d="M398 2743 c12 -2 22 -11 22 -19 0 -8 9 -14 20 -14 13 0 20 -7 20 -20
0 -13 7 -20 20 -20 13 0 20 -7 20 -20 0 -13 7 -20 20 -20 13 0 20 -7 20 -20 0
-13 7 -20 20 -20 13 0 20 -7 20 -20 0 -13 7 -20 20 -20 13 0 20 -7 20 -20 0
-13 7 -20 20 -20 13 0 20 -7 20 -20 0 -13 7 -20 20 -20 15 0 20 -7 20 -25 0
-18 5 -25 20 -25 11 0 20 -7 20 -15 0 -8 9 -15 20 -15 13 0 20 -7 20 -19 0
-10 9 -21 20 -24 11 -3 20 -12 20 -21 0 -9 8 -16 20 -16 15 0 20 -7 20 -25 0
-22 4 -25 40 -25 33 0 40 -3 40 -20 0 -13 7 -20 20 -20 13 0 20 -7 20 -20 0
-17 7 -20 40 -20 33 0 40 -3 40 -20 0 -13 7 -20 20 -20 13 0 20 -7 20 -20 0
-13 7 -20 20 -20 11 0 20 -7 20 -15 0 -11 -11 -15 -40 -15 -33 0 -40 3 -40 20
0 17 -7 20 -40 20 -33 0 -40 3 -40 20 0 17 -7 20 -40 20 -33 0 -40 3 -40 20 0
17 -7 20 -40 20 -33 0 -40 3 -40 20 0 13 -7 20 -20 20 -13 0 -20 7 -20 20 0
17 -7 20 -40 20 l-40 0 0 -45 c0 -38 3 -45 20 -45 17 0 20 -7 20 -40 0 -33 3
-40 20 -40 13 0 20 -7 20 -20 0 -17 -7 -20 -40 -20 -33 0 -40 3 -40 20 0 17
-7 20 -40 20 -33 0 -40 3 -40 20 0 17 -7 20 -40 20 -33 0 -40 3 -40 20 0 13
-7 20 -20 20 -13 0 -20 7 -20 20 0 13 -7 20 -20 20 -13 0 -20 7 -20 20 0 18
-7 20 -60 20 -53 0 -60 2 -60 20 0 17 -7 20 -40 20 l-40 0 0 45 c0 38 3 45 20
45 16 0 20 7 20 35 0 28 -4 35 -20 35 -18 0 -20 7 -20 59 0 58 -1 59 -31 65
-17 3 -53 6 -80 6 l-49 0 0 -80 c0 -73 -2 -80 -20 -80 -13 0 -20 7 -20 20 0
13 -7 20 -20 20 -13 0 -20 7 -20 20 0 11 -4 20 -10 20 -6 0 -10 -27 -10 -60
l0 -60 30 0 c23 0 30 -4 30 -20 0 -13 7 -20 20 -20 13 0 20 -7 20 -20 0 -13
-7 -20 -20 -20 -15 0 -20 -7 -20 -25 0 -21 -5 -25 -30 -25 l-30 0 0 -160 c0
-109 3 -160 11 -160 6 0 13 9 16 20 6 23 33 27 33 5 0 -8 9 -15 20 -15 13 0
20 7 20 20 0 11 -7 20 -15 20 -8 0 -15 7 -15 15 0 8 7 15 15 15 8 0 15 -7 15
-15 0 -8 9 -15 20 -15 11 0 20 6 20 14 0 7 -9 16 -20 19 -11 3 -20 12 -20 21
0 12 10 16 40 16 33 0 40 4 40 19 0 11 -9 21 -21 24 -28 7 -21 41 9 45 12 2
22 10 22 18 0 8 7 14 15 14 8 0 15 -9 15 -20 0 -13 7 -20 20 -20 11 0 20 -7
20 -15 0 -8 9 -15 20 -15 13 0 20 -7 20 -19 0 -15 10 -21 40 -26 25 -4 40 -12
40 -21 0 -9 11 -14 29 -14 49 0 91 -12 91 -26 0 -10 16 -14 60 -14 53 0 60 -2
60 -20 0 -18 7 -20 80 -20 73 0 80 -2 80 -20 0 -13 7 -20 19 -20 10 0 46 -3
80 -6 l61 -7 0 47 c0 39 -3 46 -20 46 -13 0 -20 7 -20 20 0 13 -7 20 -20 20
-13 0 -20 7 -20 20 0 13 -7 20 -20 20 -13 0 -20 7 -20 20 0 13 -7 20 -20 20
-11 0 -20 7 -20 15 0 8 9 15 20 15 11 0 20 -6 20 -14 0 -9 15 -17 40 -21 23
-4 40 -12 40 -20 0 -8 17 -16 40 -20 22 -4 40 -12 40 -20 0 -13 43 -25 91 -25
18 0 29 -5 29 -14 0 -9 15 -17 40 -21 30 -5 40 -11 40 -26 0 -12 7 -19 20 -19
11 0 20 -7 20 -15 0 -8 9 -15 20 -15 13 0 20 -7 20 -20 0 -13 7 -20 20 -20 13
0 20 -7 20 -19 0 -15 10 -21 40 -26 38 -6 40 -9 40 -41 l0 -34 -620 0 c-613 0
-620 0 -620 20 0 18 -7 20 -70 20 l-70 0 0 -65 0 -65 90 0 90 0 0 -56 c0 -47
3 -57 20 -61 11 -3 20 -14 20 -24 0 -12 7 -19 20 -19 16 0 20 -7 20 -36 0 -27
5 -37 19 -41 11 -3 21 -13 24 -24 3 -10 12 -19 20 -19 8 0 17 -9 20 -20 4 -15
14 -20 40 -20 26 0 36 -5 40 -20 5 -19 14 -20 141 -20 129 0 136 1 136 20 0
17 7 20 40 20 33 0 40 3 40 20 0 13 7 20 20 20 17 0 20 7 20 45 0 38 3 45 20
45 13 0 20 7 20 20 0 13 7 20 20 20 16 0 20 7 20 35 0 23 5 35 14 35 20 0 26
-33 26 -157 0 -106 1 -113 20 -113 17 0 20 -7 20 -45 0 -38 -3 -45 -20 -45
-11 0 -20 -7 -20 -15 0 -11 -11 -15 -40 -15 -35 0 -40 -3 -40 -23 0 -21 4 -22
80 -22 l80 0 0 84 0 84 31 -7 c17 -3 53 -6 80 -6 l49 0 0 -36 c0 -27 -5 -37
-20 -41 -23 -6 -27 -43 -5 -43 23 0 18 -27 -6 -33 -17 -5 -19 -10 -13 -41 5
-32 4 -36 -15 -36 -14 0 -21 -6 -21 -20 0 -13 -7 -20 -20 -20 -13 0 -20 -7
-20 -20 0 -17 -7 -20 -40 -20 -33 0 -40 -3 -40 -20 0 -13 -7 -20 -20 -20 -13
0 -20 -7 -20 -20 0 -18 -7 -20 -60 -20 l-60 0 0 -60 0 -60 -40 0 c-33 0 -40
-3 -40 -20 0 -17 -7 -20 -40 -20 -29 0 -40 4 -40 15 0 10 -10 15 -29 15 -49 0
-91 12 -91 26 0 10 -13 14 -40 14 -33 0 -40 3 -40 20 0 15 -7 20 -29 20 -48 0
-91 12 -91 25 0 8 -18 16 -40 20 -30 5 -40 11 -40 26 0 12 -7 19 -20 19 -13 0
-20 7 -20 20 0 13 -7 20 -20 20 -13 0 -20 7 -20 20 0 13 -7 20 -20 20 -13 0
-20 7 -20 20 0 17 -7 20 -40 20 -33 0 -40 3 -40 20 0 13 -7 20 -20 20 -13 0
-20 7 -20 20 0 11 -4 20 -10 20 -16 0 -13 -637 3 -643 10 -4 10 -6 0 -6 -16
-1 -18 -151 -3 -151 6 0 10 16 10 35 0 34 1 35 40 35 33 0 40 -3 40 -20 0 -17
7 -20 40 -20 33 0 40 -3 40 -20 0 -18 7 -20 60 -20 53 0 60 -2 60 -20 0 -18 7
-20 60 -20 53 0 60 -2 60 -20 0 -18 7 -20 60 -20 53 0 60 -2 60 -20 0 -19 7
-20 120 -20 l120 0 0 -75 0 -75 -60 0 c-53 0 -60 2 -60 20 0 13 -7 20 -20 20
-13 0 -20 7 -20 20 0 17 -7 20 -40 20 -33 0 -40 3 -40 20 0 18 -7 20 -80 20
-73 0 -80 2 -80 20 0 19 -7 20 -100 20 -93 0 -100 1 -100 20 0 19 -7 20 -90
20 -83 0 -90 -1 -90 -20 0 -18 7 -20 73 -22 l72 -2 -67 -3 -67 -4 6 -34 c4
-23 2 -35 -6 -35 -7 0 -11 -26 -11 -75 l0 -75 130 0 c80 0 130 4 130 10 0 6 9
10 20 10 13 0 20 7 20 20 0 13 7 20 20 20 13 0 20 7 20 20 0 17 7 20 40 20 33
0 40 3 40 20 0 17 7 20 40 20 33 0 40 -3 40 -20 0 -17 7 -20 40 -20 33 0 40
-3 40 -20 0 -13 7 -20 20 -20 11 0 20 -7 20 -15 0 -11 -11 -15 -40 -15 -33 0
-40 3 -40 20 0 18 -7 20 -60 20 -53 0 -60 -2 -60 -20 0 -13 -7 -20 -20 -20
-11 0 -20 -7 -20 -15 0 -11 11 -15 40 -15 22 0 40 5 40 10 0 6 9 10 20 10 11
0 20 -4 20 -10 0 -6 87 -10 240 -10 l240 0 0 170 c0 163 1 170 20 170 19 0 20
7 20 185 0 178 1 185 20 185 16 0 20 7 20 35 l0 35 60 0 c53 0 60 2 60 20 0
13 7 20 20 20 13 0 20 -7 20 -20 0 -17 7 -20 40 -20 33 0 40 3 40 20 0 18 7
20 80 20 73 0 80 2 80 20 0 19 7 20 100 20 93 0 100 1 100 20 0 19 7 20 100
20 93 0 100 1 100 20 0 18 7 20 80 20 73 0 80 2 80 20 0 18 7 20 80 20 73 0
80 2 80 20 0 18 7 20 69 20 87 0 131 9 131 26 0 11 21 14 95 14 l95 0 0 -80
c0 -61 -3 -80 -14 -80 -14 0 -26 -67 -26 -152 0 -34 -4 -48 -14 -48 -9 0 -16
-19 -20 -60 -5 -43 -11 -60 -21 -60 -11 0 -15 -14 -15 -56 0 -47 -3 -57 -20
-61 -18 -5 -20 -14 -20 -80 0 -66 -2 -75 -20 -80 -25 -7 -30 -73 -5 -73 12 0
15 -16 15 -80 0 -73 -2 -80 -20 -80 -16 0 -20 -7 -20 -35 l0 -35 85 0 85 0 0
30 c0 23 4 30 20 30 18 0 20 7 20 80 l0 80 35 0 c24 0 35 -5 35 -15 0 -8 -9
-15 -20 -15 -19 0 -20 -7 -20 -95 l0 -95 70 0 70 0 0 750 c0 580 -3 755 -12
770 -10 16 -10 24 0 40 15 25 18 430 2 430 -6 0 -10 -33 -10 -80 0 -64 -3 -80
-15 -80 -12 0 -15 19 -15 115 0 108 1 115 20 115 17 0 20 7 20 48 0 26 3 64 6
85 6 35 5 37 -20 37 -26 0 -26 0 -26 -80 0 -73 -2 -80 -20 -80 -18 0 -20 -8
-23 -122 l-3 -123 -2 133 c-2 126 -1 134 18 139 25 7 25 11 -1 40 -13 13 -25
44 -30 74 -7 46 -6 53 13 69 14 11 21 29 22 56 1 45 25 57 57 28 19 -17 19
-14 19 184 l0 202 -640 0 c-555 0 -640 -2 -640 -15 0 -18 -37 -38 -57 -31 -9
4 -13 14 -10 26 5 20 -1 20 -511 19 -285 -1 -507 -4 -494 -6z m2262 -23 c0 -5
-2 -10 -4 -10 -3 0 -8 5 -11 10 -3 6 -1 10 4 10 6 0 11 -4 11 -10z m-1313 -42
c-3 -7 -5 -2 -5 12 0 14 2 19 5 13 2 -7 2 -19 0 -25z m1198 1 c11 -17 -1 -21
-15 -4 -8 9 -8 15 -2 15 6 0 14 -5 17 -11z m-1097 -41 c9 -9 18 -8 38 2 23 13
27 13 40 -5 29 -40 8 -76 -22 -37 -13 16 -16 15 -37 -10 -25 -30 -47 -37 -47
-14 0 8 -9 18 -20 21 -25 8 -26 24 -2 41 21 17 35 17 50 2z m1200 -28 c41 -4
47 -8 49 -30 1 -14 5 -37 8 -51 6 -22 1 -30 -24 -48 -17 -12 -35 -19 -41 -16
-15 9 -12 41 5 55 14 12 14 15 -1 31 -10 11 -25 19 -35 19 -21 0 -49 36 -49
64 0 19 0 19 21 0 11 -10 41 -21 67 -24z m-540 -24 c3 -40 -8 -56 -40 -56 -28
0 -38 31 -22 68 11 26 19 33 36 30 19 -2 24 -10 26 -42z m-774 -106 c6 -52 10
-60 28 -60 16 0 19 -4 14 -22 -3 -13 -6 -29 -6 -35 0 -7 -7 -13 -15 -13 -8 0
-15 -9 -15 -20 0 -19 -7 -20 -120 -20 l-120 0 0 35 c0 34 1 35 40 35 33 0 40
3 40 20 0 13 7 20 20 20 17 0 20 7 20 40 0 33 3 40 20 40 13 0 20 7 20 20 0
16 7 20 34 20 l33 0 7 -60z m-1114 -135 c0 -40 -24 -49 -34 -12 -10 37 -7 47
14 47 16 0 20 -7 20 -35z m840 20 c0 -9 -9 -15 -21 -15 -12 0 -23 -8 -26 -20
-5 -18 -14 -20 -79 -20 l-74 0 0 35 0 35 100 0 c82 0 100 -3 100 -15z m1334
-139 c14 -34 12 -76 -5 -76 -5 0 -15 10 -24 23 -12 19 -13 29 -3 55 7 18 14
32 15 32 2 0 9 -15 17 -34z m-2054 -16 c0 -13 7 -20 20 -20 13 0 20 -7 20 -20
0 -13 -7 -20 -20 -20 -13 0 -20 7 -20 20 0 13 -7 20 -20 20 -13 0 -20 7 -20
20 0 13 7 20 20 20 13 0 20 -7 20 -20z m1900 -19 c0 -14 -28 -46 -35 -40 -12
12 6 58 21 52 8 -3 14 -8 14 -12z m-270 -175 c1 -56 48 -62 64 -8 7 25 14 32
30 30 16 -2 22 -11 24 -36 2 -23 11 -36 31 -46 15 -8 44 -33 65 -56 37 -41 38
-44 35 -109 -1 -36 1 -78 5 -94 5 -17 4 -32 -4 -42 -6 -8 -13 -54 -14 -110 -2
-52 -6 -98 -9 -101 -3 -4 -34 -21 -69 -39 -47 -24 -67 -42 -81 -69 -22 -45
-50 -48 -72 -6 -9 17 -20 30 -26 30 -5 0 -15 -13 -20 -30 -14 -40 -35 -38 -53
5 -10 23 -22 35 -35 35 -23 0 -61 -44 -61 -72 0 -29 -25 -32 -54 -5 -31 29
-32 34 -9 59 17 19 16 19 -32 16 -47 -3 -50 -2 -50 21 0 25 -22 39 -63 40 -13
1 -36 13 -51 29 -15 15 -34 32 -43 37 -16 9 -16 12 2 33 22 27 40 21 40 -12 0
-41 24 -50 126 -49 90 0 96 1 124 28 24 23 30 37 30 69 0 23 -4 46 -8 52 -15
23 -101 33 -174 19 -23 -5 -38 -4 -38 2 0 12 75 32 150 41 53 7 55 8 58 38 2
24 -3 35 -23 48 -24 16 -27 16 -55 0 -36 -22 -75 -8 -90 31 -11 30 -20 33 -13
5 6 -24 -16 -35 -52 -26 l-25 6 17 43 c9 23 23 48 31 55 22 17 69 15 76 -4 4
-11 14 -14 35 -9 21 4 30 2 34 -9 10 -26 30 -19 23 8 -3 14 -1 28 5 32 6 3 17
22 25 40 13 32 17 34 63 34 39 0 51 4 55 18 17 54 76 75 76 28z m-477 -153
c-7 -2 -19 -2 -25 0 -7 3 -2 5 12 5 14 0 19 -2 13 -5z m1124 -215 c-2 -35 -3
-9 -3 57 0 66 1 94 3 63 2 -32 2 -86 0 -120z m73 77 c0 -78 -3 -95 -15 -95
-12 0 -15 17 -15 95 0 78 3 95 15 95 12 0 15 -17 15 -95z m-1237 58 c-7 -2
-19 -2 -25 0 -7 3 -2 5 12 5 14 0 19 -2 13 -5z m-753 -98 c0 -8 -9 -15 -20
-15 -13 0 -20 -7 -20 -20 0 -13 -7 -20 -20 -20 -13 0 -20 -7 -20 -20 0 -13 -7
-20 -20 -20 -13 0 -20 -7 -20 -20 0 -13 -7 -20 -20 -20 -13 0 -20 -7 -20 -20
0 -13 -7 -20 -20 -20 -13 0 -20 -7 -20 -20 0 -13 -7 -20 -20 -20 -13 0 -20 -7
-20 -20 0 -18 -7 -20 -80 -20 l-80 0 0 35 c0 34 1 35 40 35 l40 0 0 40 0 40
40 0 40 0 0 40 0 40 40 0 c33 0 40 3 40 20 0 18 7 20 80 20 64 0 80 -3 80 -15z
m120 0 c0 -8 -9 -15 -20 -15 -13 0 -20 -7 -20 -20 0 -13 -7 -20 -20 -20 -16 0
-20 7 -20 35 0 34 1 35 40 35 29 0 40 -4 40 -15z m400 -20 c0 -34 -1 -35 -40
-35 -33 0 -40 -3 -40 -20 0 -13 -7 -20 -20 -20 -13 0 -20 -7 -20 -20 0 -13 -7
-20 -20 -20 -13 0 -20 -7 -20 -20 0 -17 -7 -20 -40 -20 -39 0 -40 1 -40 35 0
28 4 35 20 35 13 0 20 7 20 20 0 13 7 20 20 20 13 0 20 7 20 20 0 17 7 20 40
20 33 0 40 3 40 20 0 17 7 20 40 20 39 0 40 -1 40 -35z m160 20 c0 -8 -9 -15
-20 -15 -13 0 -20 -7 -20 -20 0 -13 -7 -20 -20 -20 -13 0 -20 -7 -20 -20 0
-13 -7 -20 -20 -20 -13 0 -20 -7 -20 -20 0 -13 -7 -20 -20 -20 -17 0 -20 -7
-20 -40 0 -33 -3 -40 -20 -40 -13 0 -20 -7 -20 -20 0 -17 -7 -20 -40 -20 -33
0 -40 -3 -40 -20 0 -17 -7 -20 -40 -20 -29 0 -40 4 -40 15 0 8 9 15 20 15 13
0 20 7 20 20 0 17 7 20 40 20 33 0 40 3 40 20 0 13 7 20 20 20 17 0 20 7 20
40 0 33 3 40 20 40 13 0 20 7 20 20 0 13 7 20 20 20 13 0 20 7 20 20 0 13 7
20 20 20 13 0 20 7 20 20 0 17 7 20 40 20 29 0 40 -4 40 -15z m140 5 c0 -5 -4
-10 -10 -10 -5 0 -10 5 -10 10 0 6 5 10 10 10 6 0 10 -4 10 -10z m48 -67 c2
-15 -4 -23 -20 -28 -13 -4 -30 -14 -39 -22 -14 -12 -21 -12 -53 4 -26 13 -35
24 -34 38 3 17 9 19 39 17 21 -2 40 2 44 8 12 20 60 7 63 -17z m-828 -38 c0
-28 -4 -35 -20 -35 -13 0 -20 -7 -20 -20 0 -13 -7 -20 -20 -20 -17 0 -20 -7
-20 -40 l0 -40 -60 0 c-53 0 -60 -2 -60 -20 0 -13 -7 -20 -20 -20 -13 0 -20
-7 -20 -20 0 -13 -7 -20 -20 -20 -16 0 -20 7 -20 35 0 28 4 35 20 35 13 0 20
7 20 20 0 18 7 20 60 20 l60 0 0 40 c0 33 3 40 20 40 13 0 20 7 20 20 0 13 7
20 20 20 13 0 20 7 20 20 0 13 7 20 20 20 16 0 20 -7 20 -35z m1910 -60 c0
-42 -3 -55 -15 -55 -12 0 -15 13 -15 55 0 42 3 55 15 55 12 0 15 -13 15 -55z
m40 -80 c0 -8 -7 -15 -15 -15 -8 0 -15 7 -15 15 0 8 7 15 15 15 8 0 15 -7 15
-15z m40 -40 c0 -8 -7 -15 -15 -15 -8 0 -15 7 -15 15 0 8 7 15 15 15 8 0 15
-7 15 -15z m-1307 -16 c-6 -6 -19 -9 -29 -6 -16 4 -15 5 4 6 12 0 22 6 22 13
0 6 3 8 7 5 4 -4 2 -12 -4 -18z m-50 -46 c-7 -2 -19 -2 -25 0 -7 3 -2 5 12 5
14 0 19 -2 13 -5z m1237 -38 c0 -24 -5 -35 -15 -35 -10 0 -15 11 -15 35 0 24
5 35 15 35 10 0 15 -11 15 -35z m-1297 -2 c-18 -2 -48 -2 -65 0 -18 2 -4 4 32
4 36 0 50 -2 33 -4z m120 -30 c18 -9 26 -18 20 -20 -17 -6 -83 16 -83 28 0 14
28 11 63 -8z m-113 -28 c0 -24 -24 -44 -37 -32 -6 6 23 57 32 57 3 0 5 -11 5
-25z m190 -1 c0 -2 -7 -4 -15 -4 -8 0 -15 4 -15 10 0 5 7 7 15 4 8 -4 15 -8
15 -10z m220 7 c0 -5 -14 -11 -31 -15 -37 -7 -62 4 -33 15 27 11 64 11 64 0z
m-490 -22 c0 -5 -4 -9 -10 -9 -5 0 -10 7 -10 16 0 8 5 12 10 9 6 -3 10 -10 10
-16z m1293 -6 c-7 -2 -19 -2 -25 0 -7 3 -2 5 12 5 14 0 19 -2 13 -5z m-409
-19 c21 -8 21 -54 1 -54 -8 0 -15 7 -15 16 0 9 -9 18 -20 21 -11 3 -20 9 -20
14 0 10 31 12 54 3z m366 -39 c0 -8 -7 -15 -15 -15 -8 0 -15 7 -15 15 0 8 7
15 15 15 8 0 15 -7 15 -15z m-772 -27 c7 -7 12 -16 12 -20 0 -12 -58 -10 -65
2 -16 26 30 41 53 18z m-505 -35 c-7 -2 -19 -2 -25 0 -7 3 -2 5 12 5 14 0 19
-2 13 -5z m554 -39 c-3 -3 -12 -4 -19 -1 -8 3 -5 6 6 6 11 1 17 -2 13 -5z
m-594 -41 c-7 -2 -19 -2 -25 0 -7 3 -2 5 12 5 14 0 19 -2 13 -5z m-33 -58 c0
-8 -9 -15 -20 -15 -11 0 -20 7 -20 15 0 8 9 15 20 15 11 0 20 -7 20 -15z
m-160 -80 c0 -8 -9 -15 -20 -15 -11 0 -20 7 -20 15 0 8 9 15 20 15 11 0 20 -7
20 -15z m-727 -22 c-7 -2 -19 -2 -25 0 -7 3 -2 5 12 5 14 0 19 -2 13 -5z m80
-40 c-7 -2 -13 -11 -13 -19 0 -20 -23 -17 -43 6 -16 20 -16 20 26 19 23 0 36
-3 30 -6z m-120 -40 c-7 -2 -19 -2 -25 0 -7 3 -2 5 12 5 14 0 19 -2 13 -5z
m160 0 c-7 -2 -19 -2 -25 0 -7 3 -2 5 12 5 14 0 19 -2 13 -5z m527 -58 c0 -48
-2 -55 -20 -55 -18 0 -20 7 -20 55 0 48 2 55 20 55 18 0 20 -7 20 -55z m-397
18 c-24 -2 -62 -2 -85 0 -24 2 -5 4 42 4 47 0 66 -2 43 -4z m310 0 c-7 -2 -19
-2 -25 0 -7 3 -2 5 12 5 14 0 19 -2 13 -5z m-493 -12 c0 -6 -4 -13 -10 -16 -5
-3 -10 1 -10 9 0 9 5 16 10 16 6 0 10 -4 10 -9z m-147 -28 c-7 -2 -19 -2 -25
0 -7 3 -2 5 12 5 14 0 19 -2 13 -5z m550 0 c-35 -2 -91 -2 -125 0 -35 2 -7 3
62 3 69 0 97 -1 63 -3z m-418 -43 c-5 -8 -11 -8 -17 -2 -6 6 -7 16 -3 22 5 8
11 8 17 2 6 -6 7 -16 3 -22z m-172 3 c-7 -2 -19 -2 -25 0 -7 3 -2 5 12 5 14 0
19 -2 13 -5z m164 -65 c-3 -8 -6 -5 -6 6 -1 11 2 17 5 13 3 -3 4 -12 1 -19z
m-204 -15 c-7 -2 -19 -2 -25 0 -7 3 -2 5 12 5 14 0 19 -2 13 -5z m-40 -40 c-7
-2 -19 -2 -25 0 -7 3 -2 5 12 5 14 0 19 -2 13 -5z m240 -360 c-29 -2 -77 -2
-105 0 -29 2 -6 3 52 3 58 0 81 -1 53 -3z"/>
<path d="M1934 1795 c-11 -44 -1 -53 58 -47 29 2 59 10 67 17 19 19 6 49 -19
42 -11 -3 -23 -1 -26 4 -3 5 -21 9 -39 9 -29 0 -36 -4 -41 -25z"/>
<path d="M1921 1591 c-7 -5 -11 -23 -9 -47 l3 -39 58 -3 c35 -2 64 2 73 9 17
14 18 53 2 66 -17 14 -111 24 -127 14z"/>
<path d="M300 2365 c0 -8 9 -15 20 -15 11 0 20 7 20 15 0 8 -9 15 -20 15 -11
0 -20 -7 -20 -15z"/>
<path d="M820 1070 l0 -40 -100 0 c-92 0 -100 -2 -100 -19 0 -23 33 -29 158
-30 l82 0 0 64 c0 58 -2 65 -20 65 -17 0 -20 -7 -20 -40z"/>
<path d="M1780 570 c0 -19 -7 -20 -160 -20 -153 0 -160 -1 -160 -20 0 -13 -7
-20 -20 -20 -15 0 -20 -7 -20 -25 0 -25 1 -25 80 -25 73 0 80 2 80 20 0 19 7
20 140 20 133 0 140 1 140 20 0 17 7 20 40 20 36 0 40 3 40 25 0 25 -1 25 -80
25 -73 0 -80 -2 -80 -20z"/>
<path d="M1900 450 c0 -19 -7 -20 -100 -20 -93 0 -100 -1 -100 -20 0 -19 -7
-20 -100 -20 l-100 0 0 -25 0 -25 140 0 c133 0 140 1 140 20 0 18 7 20 80 20
l80 0 0 45 c0 38 -3 45 -20 45 -13 0 -20 -7 -20 -20z"/>
<path d="M1620 225 l0 -45 40 0 c33 0 40 3 40 20 0 13 7 20 20 20 15 0 20 7
20 25 0 24 -3 25 -60 25 l-60 0 0 -45z"/>
</g>
</svg>
