<?xml version="1.0" standalone="no"?>
<!DOCTYPE svg PUBLIC "-//W3C//DTD SVG 20010904//EN"
 "http://www.w3.org/TR/2001/REC-SVG-20010904/DTD/svg10.dtd">
<svg version="1.0" xmlns="http://www.w3.org/2000/svg"
 width="384.000000pt" height="384.000000pt" viewBox="0 0 384.000000 384.000000"
 preserveAspectRatio="xMidYMid meet">
<metadata>
Created by potrace 1.11, written by Peter Selinger 2001-2013
</metadata>
<g transform="translate(0.000000,384.000000) scale(0.100000,-0.100000)"
fill="#000000" stroke="none">
<path d="M1 3548 c2 -294 5 -318 38 -318 6 0 21 -11 33 -25 12 -14 26 -25 32
-25 6 0 28 -18 49 -40 21 -23 42 -38 46 -35 11 6 71 -23 71 -35 0 -5 35 -16
78 -25 42 -8 93 -24 112 -34 45 -23 83 -33 144 -35 38 -2 53 -8 69 -27 10 -13
22 -24 26 -25 3 0 17 -4 31 -7 14 -4 63 -9 110 -11 74 -4 88 -8 106 -29 25
-30 65 -43 127 -42 26 0 47 -2 47 -5 0 -3 21 -5 48 -5 l47 0 1 60 c1 66 -9 95
-31 95 -8 0 -21 13 -29 28 -8 15 -26 33 -40 40 -14 6 -26 17 -26 23 0 15 -39
49 -57 49 -7 0 -13 9 -13 20 0 12 -12 26 -30 35 -30 16 -39 38 -20 50 6 4 31
-7 57 -24 26 -17 49 -31 52 -32 26 -3 43 -11 86 -38 27 -17 57 -31 67 -31 10
0 18 -5 18 -12 0 -6 3 -8 6 -5 4 4 19 -2 33 -12 36 -25 59 -33 111 -38 25 -3
68 -18 95 -33 28 -15 67 -33 88 -40 33 -10 41 -19 39 -42 -1 -3 14 -13 33 -22
19 -10 35 -24 35 -32 0 -8 4 -13 9 -10 12 8 58 -30 66 -54 4 -11 17 -23 30
-26 13 -3 27 -14 30 -24 7 -23 45 -48 80 -53 30 -4 56 -32 49 -52 -3 -7 -1
-16 4 -19 17 -10 1 -44 -21 -48 -12 -1 -451 -3 -974 -3 -628 0 -953 -3 -954
-10 -4 -34 -6 -346 -2 -372 5 -29 31 -51 54 -46 3 1 6 -3 6 -10 3 -57 27 -101
88 -163 57 -57 107 -92 128 -89 9 2 17 -1 17 -6 0 -5 6 -9 14 -9 8 0 21 -9 29
-21 19 -27 57 -31 272 -32 l170 -1 38 36 c23 22 46 34 60 33 32 -4 67 12 67
29 0 9 13 22 30 31 16 9 30 19 31 23 11 106 19 132 43 132 7 0 19 12 26 26 8
14 26 34 41 45 18 12 28 31 33 57 8 50 30 72 41 40 14 -44 15 -54 20 -148 14
-273 13 -263 41 -286 25 -21 31 -49 25 -125 0 -9 -23 -30 -50 -47 -42 -28 -67
-36 -129 -41 -19 -1 -11 -56 8 -57 8 -1 17 -3 20 -4 14 -6 190 -5 190 2 0 4 6
5 14 2 18 -7 22 23 21 159 l-1 107 51 -5 c27 -3 84 -8 125 -10 53 -3 78 -9 86
-20 18 -25 -2 -94 -36 -124 -27 -24 -28 -28 -15 -45 8 -11 15 -16 15 -11 0 5
6 0 14 -10 11 -15 11 -21 -2 -36 -9 -10 -19 -16 -24 -13 -4 3 -9 0 -9 -5 -1
-6 -3 -15 -4 -21 -1 -5 -3 -30 -4 -55 -1 -38 -4 -45 -21 -45 -11 0 -26 -12
-34 -29 -8 -15 -28 -36 -43 -46 -15 -10 -36 -29 -46 -42 -10 -12 -21 -22 -25
-21 -26 7 -79 -16 -97 -41 -10 -16 -22 -29 -25 -28 -4 1 -21 -11 -38 -28 -18
-16 -44 -30 -59 -31 -47 -3 -125 -14 -134 -19 -4 -3 -6 -17 -3 -30 2 -14 1
-25 -3 -25 -5 0 -6 -29 -5 -65 l4 -65 -34 -1 c-44 0 -103 -21 -104 -36 -1 -7
-2 -18 -3 -24 0 -5 -5 -8 -10 -4 -5 3 -12 1 -15 -4 -3 -5 -21 -5 -41 -1 -19 4
-35 5 -35 1 0 -3 -4 -1 -8 4 -12 17 -55 34 -126 51 -39 8 -83 25 -99 36 -17
12 -42 22 -56 23 -15 1 -32 5 -39 9 -7 4 -16 5 -21 1 -5 -3 -12 4 -16 15 -7
23 -36 41 -73 44 -56 6 -142 34 -142 47 0 4 -21 13 -46 20 -47 14 -84 41 -84
62 0 7 -15 17 -33 22 l-33 11 1 -506 c0 -278 4 -512 8 -520 5 -11 21 -16 45
-15 20 0 43 -4 51 -10 8 -5 17 -9 20 -7 3 1 7 -6 9 -18 2 -11 4 -20 5 -21 1 0
42 -4 91 -8 83 -7 91 -10 115 -39 23 -28 31 -31 69 -29 24 1 45 0 48 -4 2 -4
17 -5 34 -4 16 1 30 -1 30 -4 0 -4 9 -17 20 -29 20 -21 25 -21 380 -22 l360 0
1 52 c1 29 2 60 3 68 2 8 3 27 4 43 1 16 8 27 17 27 29 0 35 42 41 297 5 232
8 295 12 314 1 3 14 11 28 18 17 7 24 17 20 26 -3 8 -2 15 2 15 4 0 7 12 6 27
-1 40 14 50 82 52 79 2 106 8 115 23 4 7 14 21 22 32 15 20 20 17 50 -28 9
-11 30 -20 59 -23 42 -5 48 -3 77 28 32 33 32 33 138 35 104 2 106 3 134 33
22 25 36 31 71 32 205 4 245 10 268 39 17 22 60 28 212 31 93 1 98 3 115 28
21 30 24 31 123 38 41 2 84 6 95 8 11 2 28 4 38 4 9 1 17 8 17 16 0 22 35 32
131 39 46 4 93 8 104 9 11 1 25 13 32 26 13 28 6 26 138 35 128 8 151 13 199
37 23 12 71 23 115 27 l76 7 3 1213 3 1214 -958 -3 c-527 -2 -967 -5 -979 -7
-22 -4 -24 -19 -10 -80 5 -20 18 -37 34 -46 19 -10 27 -22 27 -45 0 -17 -3
-31 -7 -31 -4 0 -8 -6 -8 -14 0 -7 -15 -30 -34 -51 -34 -36 -36 -37 -110 -39
-43 0 -76 -5 -76 -11 0 -6 -3 -6 -8 0 -9 13 -85 13 -94 0 -5 -7 -8 -6 -8 0 0
7 -24 10 -60 10 -59 -2 -60 -1 -60 25 0 15 5 41 11 58 9 28 14 30 51 28 39 -3
52 4 80 42 8 9 22 22 32 28 19 10 27 38 30 99 l1 30 -440 2 c-441 1 -505 -1
-505 -19 0 -5 13 -17 30 -26 20 -11 32 -28 36 -49 3 -18 11 -33 18 -33 6 0 25
-14 43 -30 18 -17 39 -30 47 -30 8 0 17 -8 21 -17 8 -24 92 -114 107 -117 22
-3 39 -17 32 -27 -3 -5 2 -21 10 -34 13 -20 25 -25 61 -25 38 0 46 -4 62 -30
9 -16 25 -30 35 -30 10 0 18 -6 18 -13 0 -25 45 -55 91 -61 34 -5 49 -13 59
-31 7 -13 25 -29 40 -35 16 -7 31 -22 34 -36 4 -14 16 -26 31 -30 29 -7 35
-43 8 -46 -68 -6 -75 -4 -104 24 -20 21 -43 31 -81 37 -47 8 -58 15 -60 38 -1
16 -35 31 -66 29 -18 -1 -32 2 -32 8 0 5 -3 7 -6 3 -3 -3 -19 7 -34 23 -17 17
-44 32 -67 36 -21 3 -47 16 -58 29 -11 12 -32 29 -47 39 -15 10 -25 23 -22 31
7 17 -44 34 -91 29 -45 -4 -44 -3 -46 -40 -4 -75 0 -93 29 -107 15 -7 26 -19
25 -25 -2 -7 1 -12 5 -12 4 0 8 -10 9 -22 1 -55 5 -64 34 -80 30 -17 38 -56
11 -51 -7 2 -12 -1 -12 -6 0 -5 -16 -5 -37 -1 -20 5 -41 8 -47 7 -6 -1 -15 8
-21 21 -10 22 -20 27 -75 36 -40 7 -60 17 -60 32 0 18 -27 31 -70 35 -28 2
-48 17 -103 71 -37 37 -72 68 -77 68 -5 0 -12 11 -16 24 -6 25 -36 33 -139 41
-45 3 -76 15 -69 26 12 20 -32 48 -64 43 -54 -9 -69 8 -67 69 2 58 9 77 30 77
27 0 45 63 29 104 -3 9 -14 16 -24 16 -17 0 -33 27 -35 55 0 6 -17 11 -38 13
l-37 3 1 -293z m1375 83 c48 -2 50 -26 4 -52 -22 -13 -40 -29 -40 -36 0 -13
-7 -15 -60 -17 -14 -1 -31 -5 -37 -9 -7 -5 -13 -5 -13 0 0 10 -76 10 -86 0 -4
-3 -16 -1 -28 5 -11 6 -23 11 -26 10 -4 -2 -5 39 -1 82 0 8 9 16 19 18 15 3
181 2 268 -1z m2277 -230 c-2 -6 1 -11 6 -11 13 0 27 -83 22 -130 -1 -12 -31
-14 -31 -2 0 5 -10 19 -21 31 -24 25 -28 79 -9 91 7 4 11 10 11 14 -3 20 0 27
12 23 6 -2 11 -10 10 -16z m-3444 -56 c11 -19 27 -35 34 -35 8 0 21 -7 28 -16
11 -14 10 -18 -6 -30 -27 -20 -44 -17 -54 9 -10 25 -30 45 -46 46 -12 0 -19
27 -11 47 9 24 33 15 55 -21z m3198 -30 c6 -18 -23 -55 -44 -55 -16 0 -17 24
-1 50 15 24 36 26 45 5z m-457 -275 c6 -10 9 -23 8 -27 -3 -14 24 -62 38 -67
16 -6 54 28 74 67 28 55 73 56 83 2 8 -40 21 -57 93 -128 41 -39 78 -73 82
-76 15 -10 36 -54 39 -81 2 -14 5 -61 8 -105 3 -44 7 -86 10 -92 2 -7 1 -13
-3 -13 -4 0 -8 -36 -9 -81 -1 -44 -6 -94 -12 -110 -7 -19 -7 -29 0 -29 6 0 7
-5 4 -11 -7 -10 -17 -107 -19 -179 -1 -25 -9 -43 -30 -62 -16 -16 -35 -28 -42
-28 -7 0 -14 -3 -16 -7 -1 -5 -21 -17 -43 -28 -22 -11 -72 -52 -111 -92 -45
-47 -78 -73 -92 -73 -12 0 -22 3 -22 8 0 17 -61 81 -73 76 -7 -2 -21 -20 -31
-39 -10 -18 -24 -36 -31 -39 -15 -6 -58 28 -48 38 3 3 1 6 -5 6 -7 0 -12 5
-12 11 0 20 -44 48 -65 42 -26 -8 -78 -61 -80 -81 -3 -33 -16 -60 -31 -66 -21
-8 -70 19 -90 50 -16 23 -16 28 -1 60 10 19 17 36 17 38 0 2 -28 4 -62 5 -72
2 -73 2 -93 46 -15 30 -66 64 -88 57 -16 -5 -92 43 -139 87 -45 41 -46 44 -32
66 25 38 62 40 68 4 10 -56 37 -79 100 -85 23 -2 47 -6 54 -9 6 -2 12 1 12 8
0 7 3 8 8 2 8 -12 112 -14 112 -2 0 4 7 4 16 -1 17 -10 76 6 96 26 7 7 17 12
23 12 18 0 51 71 54 117 2 39 -17 95 -38 107 -29 18 -230 26 -293 12 -16 -4
-28 -3 -28 2 0 7 56 45 62 41 3 -1 61 9 103 18 11 2 31 6 45 9 96 17 130 36
124 72 -1 6 -2 19 -3 27 -2 24 -47 65 -71 65 -12 0 -41 -9 -64 -20 -41 -18
-46 -18 -75 -4 -35 17 -71 59 -71 83 -1 9 -7 1 -15 -16 -8 -19 -22 -34 -32
-34 -10 -1 -28 -3 -40 -4 -13 -1 -30 3 -39 9 -13 10 -14 15 0 41 8 16 13 32
10 37 -3 4 0 8 5 8 6 0 11 5 11 11 0 5 11 27 25 47 14 20 25 33 25 29 0 -5 5
-5 12 -1 19 12 68 12 68 1 0 -6 3 -7 7 -4 3 4 14 0 23 -8 9 -8 34 -17 56 -19
46 -4 74 -15 74 -27 0 -5 7 -9 15 -9 10 0 15 10 15 33 0 18 5 38 12 45 7 7 8
12 4 12 -5 0 3 15 18 34 14 19 26 39 26 44 0 22 39 40 100 46 52 4 69 10 83
28 37 48 82 88 99 88 9 0 22 -9 28 -20z m-2162 -565 c27 -8 28 -32 2 -40 -11
-3 -29 -19 -40 -34 -11 -16 -31 -32 -45 -35 -14 -4 -24 -10 -21 -15 7 -11 -23
-53 -33 -46 -5 2 -16 -4 -26 -15 -10 -11 -16 -20 -13 -20 3 0 -19 -25 -49 -55
-30 -30 -59 -55 -64 -55 -5 0 -14 -11 -19 -25 -5 -14 -20 -30 -34 -36 -13 -6
-29 -22 -35 -35 -12 -28 -2 -26 -154 -29 l-117 -3 4 45 c5 55 24 77 68 75 50
-2 62 10 63 65 3 60 2 59 18 61 6 0 26 3 42 6 17 2 40 5 53 5 20 1 22 6 22 55
0 63 10 74 71 82 29 4 51 14 64 29 11 13 29 25 40 27 31 6 179 1 203 -7z m214
-7 c12 -20 10 -25 -14 -32 -13 -3 -31 -19 -40 -36 -18 -31 -25 -35 -45 -22
-14 9 -24 57 -16 78 12 32 97 40 115 12z m669 12 c13 -7 19 -21 18 -43 0 -28
-16 -84 -18 -65 -2 16 -103 -22 -122 -46 -11 -14 -27 -26 -35 -26 -8 0 -15 -4
-15 -10 -1 -5 -2 -15 -3 -20 0 -6 -19 -21 -41 -34 -22 -14 -39 -27 -38 -30 1
-3 0 -13 -3 -21 -5 -11 -21 -15 -60 -15 -52 0 -54 1 -62 33 -5 19 -5 35 1 38
5 3 8 9 8 13 -3 21 2 27 24 36 14 5 30 21 37 35 6 14 15 25 19 25 12 0 59 49
59 61 0 6 5 7 10 4 6 -3 10 -3 10 2 0 4 18 8 40 9 30 1 45 7 60 27 18 23 37
31 78 36 7 0 22 -4 33 -9z m262 1 c24 -1 23 -41 -1 -41 -11 0 -25 -14 -35 -35
-11 -23 -24 -35 -37 -35 -14 0 -24 -10 -32 -30 -6 -18 -19 -32 -33 -36 -14 -3
-28 -18 -34 -35 -9 -26 -16 -31 -38 -28 -12 2 -27 -36 -30 -76 -4 -56 -9 -65
-38 -65 -20 0 -25 -5 -25 -25 0 -20 -7 -26 -42 -35 -85 -22 -93 -26 -93 -40 0
-19 -57 -37 -101 -32 -36 4 -44 21 -19 42 8 7 15 9 15 5 0 -9 37 31 49 53 4 7
26 14 49 16 39 3 89 32 77 44 -3 3 9 13 25 23 17 11 30 27 31 36 3 62 19 103
41 103 13 0 38 26 32 33 -3 3 8 13 25 23 17 10 34 26 37 36 3 9 21 27 40 38
18 12 34 28 34 35 0 8 7 18 15 22 14 8 28 9 88 4z m258 -14 c-1 -12 -15 -9
-19 4 -3 6 1 10 8 8 6 -3 11 -8 11 -12z m67 -81 c5 -3 12 -15 15 -27 4 -16 -4
-27 -38 -51 -24 -17 -45 -29 -48 -27 -2 2 -11 -2 -19 -8 -36 -31 -128 27 -128
81 0 12 11 16 48 16 26 0 52 4 58 9 18 17 88 22 112 7z m-1383 -58 c11 -37 12
-58 3 -58 -5 0 -7 -4 -3 -10 3 -5 -8 -16 -24 -24 -16 -9 -32 -24 -35 -33 -3
-10 -19 -25 -34 -34 -28 -16 -50 -59 -30 -59 5 0 6 -6 2 -12 -5 -7 -8 -24 -8
-38 -1 -24 -3 -25 -81 -27 -44 -2 -87 -6 -95 -10 -8 -3 -18 -5 -22 -5 -5 1 -8
-9 -8 -22 0 -17 -7 -26 -26 -30 -16 -4 -29 -17 -36 -37 -8 -25 -15 -30 -37
-27 -23 3 -26 8 -27 41 -1 32 5 45 47 87 27 28 52 50 56 51 5 0 39 2 76 4 37
2 72 7 77 10 6 4 10 21 10 40 0 44 18 82 41 88 10 3 23 16 28 30 6 14 19 28
30 32 11 3 30 19 41 36 25 35 45 37 55 7z m1165 -353 c0 -2 -10 -10 -22 -16
-21 -11 -22 -11 -9 4 13 16 31 23 31 12z m40 -227 c0 -12 -67 -3 -103 13 -31
14 -35 26 -9 31 21 5 112 -31 112 -44z m-217 -5 c9 -17 -24 -73 -43 -73 -23 0
-26 10 -8 28 7 7 8 12 3 12 -4 0 0 9 10 20 19 21 31 25 38 13z m675 -24 c-24
-14 -78 -20 -78 -9 0 5 -8 7 -17 4 -16 -5 -16 -4 1 10 10 8 22 13 27 11 4 -3
10 -1 14 4 3 6 17 6 36 -1 24 -8 28 -13 17 -19z m-368 0 c0 -5 -7 -9 -15 -9
-8 0 -15 7 -15 15 0 9 6 12 15 9 8 -4 15 -10 15 -15z m-450 -22 c11 -16 11
-18 -1 -15 -18 4 -29 19 -22 31 3 4 6 7 7 5 1 -2 8 -11 16 -21z m1494 -50 c21
-15 30 -68 14 -78 -14 -9 -40 0 -33 11 3 5 -8 20 -25 33 -16 14 -30 30 -30 36
0 15 53 14 74 -2z m610 -52 c3 -8 -3 -19 -14 -25 -13 -7 -20 -6 -23 3 -11 31
25 53 37 22z m-1301 -54 c16 -10 29 -22 29 -26 0 -28 -80 -26 -104 2 -10 12
-9 18 7 29 25 18 34 18 68 -5z m87 -121 c0 -5 -5 -10 -11 -10 -5 0 -7 5 -4 10
3 6 8 10 11 10 2 0 4 -4 4 -10z m-1057 -164 c7 -19 -1 -26 -30 -26 -16 0 -23
6 -23 20 0 14 7 20 24 20 13 0 26 -6 29 -14z m-273 -130 c0 -15 -14 -36 -24
-36 -20 0 -39 17 -32 29 7 10 56 16 56 7z m-1095 -115 c2 -4 -4 -20 -14 -35
l-18 -27 -27 23 c-37 31 -27 55 19 50 20 -2 37 -7 40 -11z m950 -81 c14 -23
21 -105 12 -154 -3 -14 -36 -28 -48 -20 -12 7 -11 141 1 165 12 21 25 25 35 9z
m-965 -86 c0 -8 -4 -14 -10 -14 -5 0 -10 9 -10 21 0 11 5 17 10 14 6 -3 10
-13 10 -21z m-22 -77 c7 -8 8 -18 1 -27 -8 -13 -11 -12 -24 4 -22 29 0 51 23
23z"/>
<path d="M2923 2675 c-27 -19 -39 -70 -22 -92 11 -12 28 -14 84 -11 39 3 84
11 100 19 50 24 36 77 -22 81 -15 1 -32 4 -38 7 -23 12 -82 10 -102 -4z"/>
<path d="M2884 2296 c-17 -12 -20 -25 -20 -72 1 -56 2 -58 31 -64 29 -6 125
-4 155 3 73 15 74 114 2 132 -63 16 -147 16 -168 1z"/>
<path d="M162 3624 c-12 -8 -22 -19 -22 -23 0 -14 36 -19 52 -7 13 10 14 15 4
28 -11 16 -15 16 -34 2z"/>
<path d="M1025 1480 c-3 -5 -4 -10 0 -10 3 0 1 -9 -5 -20 -7 -14 -7 -20 0 -20
9 0 4 -47 -6 -59 -2 -2 -31 -5 -66 -7 -218 -13 -233 -14 -247 -29 -13 -13 -13
-16 4 -30 11 -8 28 -13 38 -11 9 2 17 1 17 -3 0 -4 23 -7 50 -7 28 1 50 -3 50
-7 0 -4 8 -3 19 2 10 6 20 8 23 6 9 -10 68 -12 68 -3 0 5 5 6 12 2 7 -4 33 -8
59 -8 l47 -1 -3 86 c-2 48 -6 96 -10 108 -7 22 -39 29 -50 11z"/>
<path d="M3824 625 c-4 -15 -11 -22 -18 -18 -6 3 -8 3 -4 -2 4 -4 3 -16 -3
-27 -6 -10 -12 -40 -14 -66 -5 -58 -16 -89 -44 -121 -12 -13 -22 -36 -22 -50
-7 -154 -12 -181 -37 -209 -14 -14 -27 -42 -29 -62 -7 -53 20 -70 114 -70 l73
0 0 325 c0 179 -2 325 -5 325 -2 0 -7 -11 -11 -25z"/>
<path d="M2665 603 c-14 -8 -35 -23 -45 -33 -16 -16 -40 -18 -256 -19 -229 -2
-264 -6 -264 -33 0 -12 -21 -33 -42 -41 -19 -7 -35 -53 -23 -65 4 -4 61 -7
128 -7 88 0 122 4 125 13 6 18 61 45 78 38 8 -3 14 -2 14 2 0 4 75 8 167 9
157 2 223 12 223 34 0 13 37 29 77 35 51 6 65 19 51 50 -12 26 -9 26 -125 28
-53 2 -90 -2 -108 -11z"/>
<path d="M2855 407 c-9 -7 -17 -21 -19 -31 -3 -24 -12 -25 -168 -29 -71 -1
-128 -5 -128 -9 0 -5 -3 -7 -7 -7 -22 4 -33 -3 -33 -20 0 -23 -44 -33 -134
-31 -33 1 -93 1 -133 1 l-71 -1 4 -32 c3 -18 7 -38 8 -44 3 -7 69 -9 202 -7
241 4 226 2 244 23 29 33 63 42 169 45 58 2 109 4 113 4 5 1 5 62 -1 132 -2
14 -30 17 -46 6z"/>
<path d="M2371 66 c-9 -11 -7 -43 3 -53 9 -9 151 -10 174 -2 27 10 28 29 5 49
-22 18 -168 23 -182 6z"/>
</g>
</svg>
