<?xml version="1.0" standalone="no"?>
<!DOCTYPE svg PUBLIC "-//W3C//DTD SVG 20010904//EN"
 "http://www.w3.org/TR/2001/REC-SVG-20010904/DTD/svg10.dtd">
<svg version="1.0" xmlns="http://www.w3.org/2000/svg"
 width="256.000000pt" height="256.000000pt" viewBox="0 0 256.000000 256.000000"
 preserveAspectRatio="xMidYMid meet">
<metadata>
Created by potrace 1.11, written by Peter Selinger 2001-2013
</metadata>
<g transform="translate(0.000000,256.000000) scale(0.100000,-0.100000)"
fill="#000000" stroke="none">
<path d="M79 2383 c-2 -145 1 -266 7 -275 3 -5 10 -5 16 -2 7 5 9 1 5 -9 -4
-12 -2 -14 10 -10 11 4 14 2 9 -5 -5 -8 1 -12 18 -12 14 0 25 -3 25 -7 -5 -29
3 -42 21 -38 11 2 20 -1 20 -6 0 -6 6 -9 12 -6 7 2 20 -2 29 -10 10 -8 31 -15
48 -15 18 -1 34 -5 37 -9 2 -5 12 -5 22 -2 9 3 14 3 10 -1 -3 -4 -12 -8 -20
-10 -21 -3 -38 -16 -38 -29 0 -7 5 -4 11 6 9 15 13 16 27 5 12 -10 14 -10 8 0
-4 7 -1 12 9 12 10 0 13 -5 9 -12 -5 -8 -2 -9 10 -5 12 5 20 0 27 -16 l10 -22
-5 23 c-5 27 1 28 24 2 15 -18 19 -18 24 -5 3 9 2 13 -3 10 -5 -3 -12 -1 -15
4 -5 7 22 8 32 1 1 -2 6 -3 11 -4 5 0 13 -5 18 -10 5 -5 3 -6 -4 -2 -7 4 -13
2 -13 -3 0 -6 5 -11 11 -11 5 0 7 -6 3 -12 -5 -9 -2 -9 9 1 13 10 17 10 17 1
0 -10 3 -10 15 0 14 12 15 10 11 -14 -3 -15 -1 -24 5 -21 5 4 7 10 4 15 -3 4
3 14 12 21 14 12 16 12 11 -1 -4 -11 1 -15 17 -15 15 0 21 5 18 15 -3 10 -2
11 4 4 4 -6 16 -10 25 -9 10 2 17 0 17 -3 -3 -20 2 -33 14 -31 27 3 38 -1 31
-13 -6 -10 -4 -10 7 -2 8 5 21 10 29 9 8 -1 21 -3 28 -3 8 -1 10 -7 6 -14 -6
-10 -5 -10 8 -1 8 7 27 14 41 15 18 2 23 6 17 12 -14 14 -13 29 1 20 8 -4 8 0
0 15 -7 12 -10 25 -7 30 3 5 -5 16 -19 25 -16 11 -22 22 -18 33 4 11 3 14 -5
9 -12 -7 -17 6 -6 17 10 10 34 -4 27 -17 -3 -6 3 -3 15 8 17 15 25 16 36 7 8
-7 12 -20 9 -29 -3 -10 -2 -13 4 -6 9 12 53 14 53 2 0 -4 13 -6 29 -4 19 2 34
-3 46 -16 9 -11 23 -17 31 -14 9 3 12 1 9 -4 -5 -9 7 -14 27 -11 4 0 5 -8 3
-19 -2 -12 0 -18 5 -15 11 7 40 -5 40 -17 0 -6 -7 -5 -15 2 -13 11 -14 10 -9
-4 4 -11 13 -15 25 -11 13 5 19 1 19 -10 0 -10 -5 -13 -12 -9 -7 5 -8 3 -3 -6
6 -10 11 -9 22 5 10 15 13 16 13 4 0 -9 11 -22 25 -29 13 -7 22 -17 19 -22 -3
-4 0 -8 6 -8 6 0 8 -5 4 -12 -5 -7 -2 -9 8 -6 26 10 42 -6 29 -30 -9 -17 -8
-23 6 -31 13 -7 -169 -10 -584 -11 l-603 0 -1 -42 c-1 -24 -1 -78 -1 -121 1
-56 -3 -76 -11 -71 -7 3 -4 -1 6 -9 11 -9 15 -21 11 -33 -6 -17 -5 -17 9 1 9
11 17 17 18 13 5 -24 4 -34 -6 -40 -6 -5 -3 -8 7 -8 10 0 17 -3 17 -7 -3 -21
3 -31 21 -36 11 -3 20 -10 20 -17 0 -6 -4 -9 -9 -6 -11 7 -8 -20 3 -31 4 -4 7
-3 6 2 -5 21 1 25 20 15 11 -6 18 -15 15 -20 -3 -5 6 -12 20 -16 14 -3 25 -10
25 -16 0 -5 6 -8 12 -7 28 3 37 -2 31 -18 -4 -10 -2 -14 4 -10 6 4 14 1 16 -5
4 -10 7 -10 14 -1 5 7 14 9 23 3 8 -5 21 -5 32 1 10 5 19 7 19 4 1 -3 2 -9 3
-14 0 -5 5 -13 10 -18 5 -5 6 -3 2 5 -4 6 -2 12 4 12 6 0 8 5 4 13 -6 9 -4 9
7 1 8 -5 35 -10 61 -9 31 1 45 -2 42 -9 -3 -6 1 -3 9 6 8 10 17 15 20 11 4 -3
2 -11 -3 -18 -7 -8 -5 -12 4 -12 8 0 13 7 12 15 -3 18 25 51 37 45 4 -3 14 1
22 7 12 10 15 10 15 -1 0 -12 2 -12 9 -1 4 8 12 14 17 15 5 1 9 7 9 14 0 17
15 29 15 12 0 -8 6 -3 13 11 7 14 12 39 11 56 -1 30 1 31 33 29 18 -1 33 2 33
8 0 5 -6 7 -14 4 -10 -4 -14 0 -13 13 1 18 3 18 24 5 27 -18 44 -20 19 -2 -16
11 -16 15 -1 50 14 35 34 55 21 21 -3 -9 -3 -21 1 -27 9 -15 13 -138 4 -132
-4 2 -8 -2 -8 -10 0 -8 5 -11 10 -8 6 4 7 -4 3 -20 -3 -14 -2 -28 3 -32 10 -5
8 -34 -4 -58 -4 -6 0 -4 8 6 8 9 20 17 27 17 7 0 10 -3 7 -7 -4 -3 -2 -12 4
-20 9 -10 8 -13 0 -13 -7 0 -10 -8 -7 -18 8 -24 -43 -62 -84 -62 -27 0 -31 -3
-28 -23 2 -12 9 -21 16 -20 6 2 12 -2 12 -8 0 -5 4 -7 10 -4 5 3 10 1 10 -4 0
-6 -5 -11 -12 -11 -6 0 -8 -3 -4 -7 4 -5 13 -1 19 7 7 9 29 16 50 17 34 1 37
0 25 -15 -9 -12 -5 -11 12 3 14 11 27 21 29 22 7 4 5 79 -3 91 -4 7 -2 12 4
12 6 0 8 11 6 25 -3 14 -1 23 5 20 5 -4 9 -1 9 6 0 7 3 9 6 6 4 -4 1 -15 -7
-24 -13 -16 -12 -17 3 -5 13 10 17 10 22 0 3 -7 3 -3 0 9 -4 17 -2 21 9 17 9
-3 13 -14 11 -27 -4 -21 -4 -21 4 -2 12 28 87 30 89 3 2 -21 -8 -23 -25 -6 -9
9 -12 9 -12 1 0 -7 10 -15 22 -19 21 -6 21 -7 3 -20 -24 -18 -28 -74 -5 -67 8
3 5 -4 -8 -16 -13 -11 -21 -25 -17 -31 4 -6 1 -18 -7 -27 -11 -14 -11 -16 1
-9 9 6 12 5 9 -5 -3 -8 -11 -13 -18 -11 -6 1 -14 -6 -17 -17 -3 -11 -14 -23
-24 -26 -10 -4 -19 -13 -19 -20 0 -8 -12 -17 -27 -21 -55 -12 -63 -16 -63 -30
0 -8 -6 -14 -14 -14 -7 0 -20 -10 -28 -22 -12 -18 -25 -22 -69 -22 -49 -1 -54
-3 -55 -24 -1 -12 -4 -25 -8 -29 -3 -3 -1 -12 5 -20 7 -8 8 -13 1 -13 -5 0 -8
-9 -5 -20 4 -16 0 -20 -20 -20 -35 0 -57 -10 -57 -25 0 -20 -67 -24 -83 -4 -9
9 -38 19 -71 23 -31 4 -54 11 -51 16 6 9 -18 20 -46 20 -10 0 -28 9 -40 21
-18 18 -37 24 -90 28 -9 0 -26 10 -39 21 -13 11 -31 20 -40 20 -9 0 -32 14
-49 31 -18 17 -34 29 -37 27 -2 -3 -5 -51 -6 -109 -1 -57 -6 -110 -12 -118 -8
-11 -8 -13 1 -8 8 5 11 -19 10 -92 0 -69 -4 -98 -11 -94 -8 5 -7 2 0 -8 7 -8
11 -56 10 -120 -1 -81 2 -110 13 -120 13 -11 14 -11 8 3 -5 14 -2 16 17 8 13
-5 27 -6 30 -3 3 4 6 1 6 -6 0 -7 5 -9 12 -5 10 6 11 4 1 -7 -15 -16 -17 -39
-3 -39 5 0 7 8 4 17 -5 15 -3 15 10 -1 9 -11 16 -15 16 -9 0 17 77 9 98 -10
11 -10 29 -20 39 -22 10 -2 20 -4 23 -4 3 -1 -2 -6 -10 -11 -9 -6 -10 -10 -3
-10 7 0 17 8 23 18 10 15 11 15 7 -4 -3 -13 1 -21 10 -21 9 0 11 7 7 21 -4 15
-3 17 4 8 5 -8 12 -13 16 -13 17 3 18 0 3 -17 -14 -15 -15 -19 -2 -19 8 0 12
4 9 9 -3 4 4 8 15 8 12 0 21 -4 21 -10 0 -5 5 -10 11 -10 5 0 8 3 6 8 -3 4 19
7 49 8 30 0 54 -4 54 -9 0 -5 -9 -7 -19 -4 -14 3 -18 1 -14 -9 4 -10 10 -11
23 -4 23 12 33 13 26 2 -3 -5 1 -9 9 -9 8 0 13 3 11 6 -2 3 2 12 10 19 14 13
19 5 15 -21 -2 -16 18 -6 24 11 6 22 44 23 69 3 14 -12 16 -12 11 1 -4 9 0 15
9 15 8 0 13 -4 11 -8 -3 -4 2 -9 10 -12 8 -4 12 -1 9 7 -3 7 5 12 21 12 19 0
24 -4 20 -16 -4 -11 -1 -10 9 3 10 14 15 15 19 5 4 -10 6 -10 6 0 1 6 6 12 12
12 5 0 7 -6 3 -12 -6 -10 -3 -9 8 0 9 7 17 21 17 30 1 9 2 34 2 55 1 30 4 35
14 27 11 -9 12 -7 8 9 -3 12 -1 21 5 21 5 0 10 25 10 58 1 31 1 59 2 62 0 3 1
57 2 120 1 122 4 143 20 134 5 -3 12 3 15 15 3 11 10 18 16 14 6 -4 7 -1 1 8
-13 21 -14 39 -2 39 6 0 7 -7 4 -16 -3 -8 -2 -12 4 -9 6 3 10 0 10 -7 0 -9 3
-9 10 2 9 13 11 13 20 0 8 -12 9 -9 6 11 -3 21 0 26 17 24 12 0 33 -7 45 -14
13 -7 26 -10 30 -7 3 3 1 6 -5 6 -5 0 -10 7 -10 15 0 8 4 15 9 15 4 0 8 -5 8
-11 0 -8 14 -10 42 -6 23 3 38 3 32 -1 -5 -4 -10 -14 -12 -22 -1 -10 3 -8 13
5 8 11 19 25 24 31 5 7 8 14 5 16 -2 3 3 5 11 5 20 0 19 -14 -2 -26 -16 -9
-16 -10 4 -8 12 0 20 4 17 8 -2 4 5 9 16 12 11 3 21 -1 23 -9 3 -8 4 -7 3 3
-1 11 -9 17 -19 15 -9 -2 -17 1 -17 5 0 4 24 8 54 9 41 0 53 -3 49 -13 -3 -7
0 -13 6 -13 6 0 10 3 10 8 -1 4 -1 14 0 22 1 13 2 13 11 0 8 -13 10 -13 10 2
0 9 -6 18 -12 20 -7 3 -2 7 10 10 12 4 20 2 16 -3 -6 -11 -6 -11 33 0 21 6 35
6 39 0 3 -5 0 -8 -7 -7 -6 2 -13 -3 -14 -10 -2 -7 -1 -8 2 -2 2 5 9 8 14 4 5
-3 12 2 15 11 5 12 9 13 20 4 11 -9 14 -8 14 1 0 7 6 10 14 7 8 -3 26 3 40 14
14 11 26 16 26 10 0 -6 6 -11 14 -11 8 0 16 -5 18 -10 2 -6 9 -1 15 9 11 18
10 19 -12 15 -14 -2 -25 0 -25 4 0 10 40 10 57 -1 7 -4 13 0 16 10 4 14 5 13
6 -4 0 -13 5 -23 11 -23 5 0 7 6 4 13 -6 17 21 16 56 -2 22 -11 23 -10 8 2
-10 8 -15 17 -11 20 3 4 12 2 19 -4 13 -11 54 8 54 25 0 5 -9 1 -20 -9 -11
-10 -20 -13 -20 -7 0 13 40 37 40 25 0 -4 5 -1 11 7 9 13 10 12 5 -3 -4 -13
-2 -16 7 -10 6 4 23 9 37 9 14 1 25 3 25 4 0 1 10 3 22 4 12 1 20 -1 17 -5 -2
-4 0 -10 5 -13 5 -4 8 5 6 19 -3 28 28 54 40 35 5 -8 12 -7 22 1 12 11 14 10
11 -3 -1 -9 0 -17 5 -17 4 -1 7 2 6 6 -1 16 37 19 59 5 13 -8 22 -11 21 -6 -4
21 2 26 16 14 9 -7 15 -8 15 -2 0 16 -26 22 -41 9 -7 -7 -5 -2 6 11 10 12 24
21 31 18 7 -3 15 -2 18 2 11 10 37 11 30 1 -3 -5 -10 -6 -16 -3 -7 4 -8 2 -4
-4 4 -6 14 -8 23 -5 10 4 14 2 9 -5 -3 -6 -2 -14 4 -17 6 -4 9 -1 8 6 -2 8 7
14 20 15 12 1 26 5 30 9 4 5 -1 5 -10 2 -10 -4 -18 -2 -18 3 0 15 21 12 44 -8
17 -14 18 -14 8 -1 -10 14 -10 18 2 22 9 4 18 1 22 -5 5 -7 2 -8 -6 -3 -9 6
-11 4 -6 -4 8 -12 20 -7 22 10 1 5 2 13 3 18 2 16 29 20 35 6 3 -9 0 -12 -8
-9 -8 3 -17 0 -22 -7 -5 -9 -2 -10 9 -6 9 3 19 2 22 -3 4 -6 12 -10 18 -10 8
0 8 3 2 8 -10 6 -11 18 -6 40 2 4 6 -2 11 -13 8 -18 9 -18 9 -2 1 11 7 17 14
14 6 -2 19 -1 27 4 12 6 15 25 14 91 -1 51 2 89 9 97 9 12 9 13 -1 7 -9 -6
-12 5 -11 43 1 28 6 48 11 45 5 -4 4 3 -4 15 -11 17 -11 25 0 42 8 12 9 18 3
14 -8 -4 -11 10 -10 44 1 28 6 48 11 45 5 -4 4 3 -4 15 -11 17 -11 25 0 42 8
12 9 18 3 14 -8 -4 -11 10 -10 44 1 28 6 48 11 45 5 -4 4 3 -4 15 -11 17 -11
25 0 42 8 12 9 18 3 14 -8 -4 -11 10 -10 44 1 28 6 48 11 45 5 -4 4 3 -4 15
-11 17 -11 25 0 42 8 12 9 18 3 14 -8 -4 -11 10 -10 44 1 28 6 48 11 45 5 -4
4 3 -4 15 -11 17 -11 25 0 42 8 12 9 18 3 14 -8 -4 -11 10 -10 44 1 28 6 48
11 45 5 -4 4 3 -4 15 -11 17 -11 25 0 42 8 12 9 18 3 14 -8 -4 -11 10 -10 44
1 28 6 48 11 45 5 -4 4 3 -4 15 -11 17 -11 25 0 42 8 12 9 18 3 14 -8 -4 -11
10 -10 44 2 33 6 48 13 44 6 -4 5 0 -2 9 -7 9 -12 20 -11 24 1 5 1 26 0 47
l-1 37 -612 -2 -611 -3 -1 -28 c-1 -16 2 -31 6 -33 4 -3 5 -11 2 -18 -3 -9 1
-13 12 -13 9 1 18 -6 20 -16 2 -13 -2 -17 -13 -13 -13 6 -14 4 -3 -10 12 -13
11 -17 -1 -25 -8 -5 -17 -9 -21 -9 -5 0 -7 -6 -5 -12 1 -10 -28 -13 -119 -15
-96 -2 -121 1 -121 12 0 7 6 11 14 8 10 -4 11 0 4 19 -9 23 -7 24 30 22 22 -1
38 1 35 4 -7 7 14 43 22 38 4 -2 13 2 20 10 9 10 9 14 1 14 -9 0 -9 3 0 14 9
10 9 16 1 21 -8 5 -8 11 1 21 10 12 -32 14 -290 14 -297 0 -301 0 -301 -21 0
-11 4 -18 9 -15 10 7 37 -22 28 -30 -8 -8 18 -34 32 -34 6 0 11 -4 11 -10 0
-5 6 -10 14 -10 8 0 17 -9 21 -19 3 -11 15 -23 26 -26 21 -7 26 -30 7 -39 -7
-3 0 -3 15 -1 24 3 30 -1 39 -26 7 -19 15 -28 24 -25 8 3 14 -1 14 -10 0 -8 5
-12 10 -9 6 4 7 12 3 18 -5 8 -2 8 9 0 8 -7 18 -9 22 -5 4 4 7 2 6 -3 -1 -6 1
-20 5 -33 6 -18 10 -20 22 -11 12 10 13 8 9 -14 -2 -15 0 -30 6 -33 7 -4 8 -2
4 4 -4 7 -1 12 8 12 19 0 20 -5 5 -31 -10 -19 -11 -19 -30 3 -11 13 -18 17
-14 11 11 -23 -33 -14 -52 10 -10 12 -29 22 -42 22 -24 0 -88 52 -83 68 2 8
-6 9 -55 12 -30 1 -33 -2 -34 -30 -1 -16 -1 -34 0 -39 1 -4 -4 -16 -11 -25
-12 -15 -11 -15 6 -1 18 14 19 13 13 -10 -6 -24 -5 -24 8 -6 8 11 16 16 16 10
1 -5 2 -13 4 -19 1 -5 3 -20 3 -32 1 -12 11 -24 21 -28 30 -9 14 -35 -21 -35
-22 0 -31 6 -35 20 -3 11 -10 20 -17 19 -36 -4 -66 3 -66 15 0 16 -21 26 -55
26 -15 0 -26 7 -30 20 -3 11 -12 20 -20 20 -8 0 -17 9 -20 20 -3 11 -12 20
-19 20 -8 0 -20 10 -28 22 -14 21 -21 23 -105 27 -13 1 -22 4 -22 9 4 26 -5
31 -69 35 -20 1 -12 76 10 88 24 13 23 56 -2 71 -11 7 -20 21 -20 30 0 13 -8
18 -25 18 l-25 0 -1 -107z m724 -37 c10 10 97 12 91 2 -8 -12 29 -6 38 7 5 6
8 5 8 -3 0 -8 5 -10 13 -6 7 4 9 3 4 -2 -5 -5 -13 -10 -18 -10 -5 -1 -13 -2
-19 -3 -5 0 -10 -8 -10 -16 0 -22 -27 -30 -47 -14 -10 9 -14 9 -10 2 5 -9 -6
-12 -42 -11 -41 0 -49 3 -44 16 5 11 3 13 -7 7 -10 -6 -11 -4 -4 6 5 8 9 17
10 22 1 4 2 10 3 13 0 4 7 1 14 -5 8 -6 16 -8 20 -5z m1567 -152 c0 -2 -7 -4
-15 -4 -8 0 -15 4 -15 10 0 5 7 7 15 4 8 -4 15 -8 15 -10z m-2167 -13 c-4 -3
-11 -10 -15 -15 -4 -4 -6 1 -5 12 1 12 6 18 15 15 7 -3 10 -9 5 -12z m2170
-21 c3 -11 0 -23 -5 -27 -7 -4 -8 -1 -3 7 6 10 4 12 -10 6 -14 -5 -16 -4 -7 7
7 8 9 17 5 20 -3 4 -2 7 4 7 6 0 13 -9 16 -20z m-2141 -5 c3 0 9 -3 13 -7 4
-3 0 -5 -9 -4 -9 1 -22 8 -29 16 -10 10 -9 11 3 4 8 -5 18 -9 22 -9z m724 -19
c18 -18 18 -23 -1 -23 -8 0 -11 5 -8 10 4 6 1 7 -7 2 -9 -6 -11 -4 -5 5 5 9 4
11 -4 6 -9 -6 -9 -11 0 -22 9 -11 8 -14 -6 -14 -10 0 -16 -3 -12 -6 3 -4 14
-3 24 1 36 15 54 11 74 -17 11 -15 25 -25 31 -22 7 4 8 2 4 -5 -4 -6 -12 -9
-17 -6 -5 4 -9 0 -9 -7 0 -10 -2 -10 -9 1 -5 7 -14 10 -20 7 -6 -4 -15 3 -20
17 -8 20 -14 23 -46 19 -36 -4 -37 -4 -25 19 15 28 31 49 37 49 2 0 11 -6 19
-14z m-263 -41 c-3 -9 -8 -14 -10 -11 -3 3 -2 9 2 15 9 16 15 13 8 -4z m39
-20 c3 3 11 -1 17 -9 7 -8 20 -12 29 -9 15 6 15 5 3 -10 -12 -15 -11 -17 5
-16 34 4 54 -1 54 -11 0 -7 -6 -7 -18 -1 -16 8 -56 -8 -49 -20 1 -2 0 -2 -3
-1 -5 3 -6 7 -9 33 0 5 -5 8 -9 5 -4 -2 -14 0 -22 6 -12 8 -11 9 3 4 12 -4 17
-2 15 6 -3 7 -10 13 -16 13 -6 0 -17 7 -24 15 -11 12 -11 12 3 2 9 -6 18 -10
21 -7z m1180 -105 c18 0 18 -1 4 -16 -20 -20 -21 -30 -1 -14 10 9 15 9 15 1 0
-6 6 -11 14 -11 8 0 17 -6 19 -12 3 -8 6 -5 6 5 1 10 6 15 11 12 6 -3 10 1 10
10 0 21 55 38 55 18 0 -5 4 -14 8 -20 5 -7 5 -18 1 -25 -4 -6 -3 -8 2 -5 6 3
16 2 24 -3 11 -7 11 -11 1 -24 -9 -11 -10 -16 -2 -16 6 0 11 5 11 10 0 6 8 10
18 10 14 0 15 -2 2 -10 -12 -8 -11 -10 7 -10 27 0 63 -44 58 -70 -2 -11 1 -20
7 -20 6 0 5 -7 -3 -17 -12 -15 -12 -16 1 -8 13 8 13 7 1 -8 -10 -13 -10 -17
-1 -17 9 0 9 -4 -1 -17 -8 -9 -9 -14 -4 -11 6 4 11 -11 11 -38 1 -30 -2 -42
-10 -37 -6 4 -5 -1 3 -10 11 -14 11 -20 1 -32 -7 -8 -9 -15 -5 -15 4 0 2 -6
-4 -14 -7 -8 -8 -17 -3 -20 13 -8 2 -99 -12 -108 -8 -6 -8 -8 1 -8 28 0 -11
-69 -40 -70 -19 0 -99 -64 -109 -86 -18 -39 -46 -41 -78 -3 l-27 33 -17 -32
c-9 -18 -20 -32 -24 -32 -4 0 -21 17 -38 37 -31 37 -32 37 -57 20 -14 -9 -31
-32 -38 -50 -10 -28 -16 -33 -35 -29 -22 4 -28 13 -25 34 0 4 -6 5 -15 1 -14
-5 -14 -2 1 27 l17 33 -30 -6 c-16 -3 -33 -3 -37 1 -4 4 -11 7 -17 7 -6 0 -12
9 -14 19 -3 22 -29 40 -61 42 -12 0 -30 7 -40 15 -53 42 -52 42 -41 63 10 19
9 19 -4 8 -13 -10 -18 -10 -24 -1 -4 7 -3 9 3 6 6 -4 14 0 17 9 3 8 11 12 17
9 6 -4 8 -13 5 -20 -2 -7 -2 -16 2 -20 4 -4 7 -12 7 -18 0 -7 10 -11 22 -11
13 1 20 -2 18 -7 -7 -11 32 -22 47 -13 7 5 40 8 73 9 39 0 68 6 84 17 13 10
29 14 34 11 6 -3 7 -2 4 4 -4 6 -1 23 5 40 15 39 3 100 -22 108 -38 12 -66 17
-98 17 -39 0 -34 11 6 13 38 2 102 25 102 36 0 6 5 7 10 4 12 -7 -8 44 -25 63
-14 16 -55 24 -55 11 0 -6 -4 -8 -9 -4 -5 3 -13 1 -16 -5 -5 -8 -12 -7 -23 2
-12 10 -14 10 -8 1 10 -18 3 -16 -22 6 -12 10 -19 21 -15 25 3 3 1 6 -6 6 -7
0 -10 4 -7 9 3 5 0 11 -7 14 -10 4 -12 -3 -9 -23 3 -23 1 -28 -14 -25 -11 2
-28 4 -39 5 -11 1 -14 4 -7 7 6 2 12 9 12 14 0 6 -5 7 -12 3 -7 -5 -8 -3 -4 5
5 7 14 10 21 7 9 -3 12 4 11 24 -1 16 1 27 5 24 10 -6 40 7 35 15 -3 4 4 7 15
7 19 0 18 -1 -3 -18 -20 -16 -20 -17 -3 -12 11 4 26 12 34 18 12 9 13 8 6 -3
-6 -11 -2 -13 23 -8 20 4 32 2 32 -4 0 -6 -4 -7 -10 -4 -5 3 -10 1 -10 -4 0
-6 7 -11 15 -11 8 0 15 5 15 12 0 6 7 3 15 -8 13 -17 14 -17 15 -1 0 9 6 17
13 17 8 0 8 3 -2 9 -11 7 -10 14 7 39 12 16 18 32 15 36 -4 4 1 4 10 0 12 -4
17 -2 15 7 -2 8 4 14 12 14 8 0 19 5 23 10 5 6 5 -1 2 -14 -6 -21 -5 -22 8
-10 8 8 13 17 11 20 -6 10 30 7 46 -4 12 -9 13 -8 3 2 -13 15 -6 44 8 35 5 -3
7 -9 5 -13 -3 -4 1 -8 9 -8 10 0 10 6 -3 26 -10 14 -12 22 -4 18 7 -5 12 -3
13 5 0 10 2 10 6 1 2 -7 14 -13 25 -13z m-614 -242 c1 -18 -1 -28 -5 -22 -5 6
-14 13 -22 15 -11 4 -11 8 2 21 9 8 13 19 9 23 -4 5 -2 6 3 2 6 -3 12 -20 13
-39z m-763 -96 c-3 -8 0 -10 8 -5 19 12 37 12 37 1 0 -6 -7 -8 -15 -4 -10 4
-15 -1 -15 -14 0 -11 -5 -20 -11 -20 -5 0 -8 4 -5 9 3 5 -1 12 -9 15 -13 4
-14 2 -5 -14 9 -17 5 -26 -25 -54 -19 -18 -35 -38 -35 -45 0 -6 -9 -11 -20
-11 -11 0 -20 -7 -20 -15 0 -8 -11 -22 -25 -31 -14 -9 -25 -23 -25 -31 0 -9
-6 -13 -15 -9 -9 3 -15 0 -15 -9 0 -7 -6 -17 -12 -22 -18 -11 -129 -12 -122
-2 3 5 0 9 -5 9 -6 0 -11 -5 -11 -12 0 -18 -13 0 -17 23 -2 11 4 22 12 25 8 4
12 11 8 18 -3 7 -1 6 7 -1 12 -11 11 -16 -6 -29 -10 -8 -13 -13 -6 -9 7 4 21
1 30 -7 15 -11 15 -11 5 2 -16 22 7 55 27 37 8 -8 11 -8 7 -1 -8 14 17 67 26
57 4 -3 7 -1 7 5 0 18 -18 14 -29 -5 -12 -20 -14 -13 -5 11 7 19 64 22 84 4
12 -11 12 -10 1 4 -7 10 -9 22 -4 30 4 7 8 24 8 38 1 20 6 25 28 27 16 1 25
-2 21 -8 -3 -5 -15 -7 -27 -4 -12 2 -17 2 -10 -1 7 -3 9 -13 5 -22 -5 -15 -4
-15 12 1 10 9 22 15 27 11 5 -3 9 -2 8 3 -1 4 -1 15 0 23 1 13 2 13 11 0 7
-12 10 -8 10 14 0 16 3 27 6 24 3 -3 17 -3 31 1 43 12 74 9 68 -7z m144 5 c10
3 22 0 26 -6 3 -6 3 -11 -2 -10 -20 3 -34 -2 -28 -11 4 -6 -1 -7 -12 -3 -16 6
-17 5 -3 -12 9 -11 10 -16 3 -11 -8 4 -13 2 -13 -6 0 -10 -2 -10 -9 1 -10 15
-9 25 4 55 5 11 10 15 12 9 2 -6 12 -9 22 -6z m402 -7 c-9 -5 -8 -10 3 -20 9
-7 13 -16 10 -21 -3 -5 0 -9 5 -9 14 0 14 13 0 27 -6 6 -8 16 -5 22 9 14 36
14 36 0 0 -5 -4 -7 -10 -4 -5 3 -10 1 -10 -4 0 -6 4 -11 8 -11 4 0 8 -9 9 -19
1 -16 -4 -19 -26 -16 -31 4 -45 -3 -54 -28 -4 -10 -11 -15 -17 -12 -5 3 -14
-5 -20 -19 -5 -14 -16 -26 -24 -26 -8 0 -18 -9 -21 -21 -5 -16 -14 -20 -38
-18 -42 4 -52 10 -36 20 12 8 12 10 0 18 -11 7 -9 10 8 16 12 4 26 18 32 31 5
14 13 23 18 19 5 -3 12 -1 16 5 3 5 11 10 16 10 6 0 8 -4 5 -8 -2 -4 4 -8 14
-8 10 0 17 3 14 7 -2 4 5 10 16 14 11 3 20 11 20 17 0 7 -5 7 -14 -1 -7 -6
-22 -9 -32 -5 -16 5 -16 4 -4 -5 8 -6 10 -11 4 -11 -6 0 -17 6 -23 14 -9 11
-7 13 11 12 13 -1 31 2 41 7 12 5 24 4 34 -5 15 -12 15 -11 4 10 -13 24 -6 46
11 36 7 -4 6 -9 -1 -14z m207 7 c11 3 8 -1 -5 -11 -13 -10 -23 -24 -23 -32 0
-13 -12 -18 -32 -15 -5 0 -8 -5 -8 -11 0 -7 -19 -31 -43 -53 -43 -40 -66 -84
-44 -86 7 0 -1 -6 -16 -13 -16 -7 -28 -16 -27 -20 4 -19 -9 -28 -43 -29 -20
-1 -38 -5 -38 -9 -1 -4 -2 -13 -3 -20 -1 -16 -63 -18 -63 -1 0 7 3 10 7 8 10
-6 39 32 32 41 -4 5 1 2 11 -5 11 -9 17 -10 17 -2 0 6 11 11 25 11 19 0 25 5
23 18 -2 9 2 16 8 15 13 -2 29 28 39 71 5 22 9 26 18 17 6 -6 16 -11 22 -11 5
0 4 4 -4 9 -12 7 -12 13 -3 24 7 7 8 18 4 22 -4 5 -2 5 4 2 12 -7 48 26 38 36
-3 3 2 4 13 3 11 -2 20 5 24 18 3 12 13 20 22 20 9 -1 17 3 18 10 0 8 2 7 5
-1 3 -7 13 -9 22 -6z m292 -36 c0 -5 -7 -12 -16 -15 -14 -5 -15 -4 -4 9 14 17
20 19 20 6z m-126 -26 c-10 -8 -14 -15 -7 -15 7 0 10 -7 7 -17 -5 -15 -4 -15
4 -3 6 8 9 17 6 21 -2 4 3 9 11 13 8 3 17 0 21 -6 4 -7 3 -8 -4 -4 -7 4 -12 1
-12 -6 0 -25 -22 -39 -39 -25 -12 10 -14 9 -8 -5 5 -14 1 -18 -18 -18 -13 0
-27 5 -31 12 -4 7 -3 8 4 4 8 -5 10 -2 6 8 -3 9 -2 16 4 16 6 0 12 -5 14 -12
3 -8 6 -7 10 3 8 20 -21 21 -44 2 -15 -13 -16 -13 -14 3 2 13 12 19 35 20 18
1 37 6 44 13 6 6 15 11 21 11 5 0 1 -7 -10 -15z m-837 -22 c-4 -3 -1 -13 5
-21 10 -12 7 -19 -15 -38 -15 -13 -27 -27 -26 -31 0 -4 -9 -10 -20 -14 -16 -6
-19 -5 -15 9 5 14 4 15 -4 2 -6 -8 -7 -19 -3 -25 4 -5 7 -23 6 -40 -1 -23 -5
-30 -20 -30 -15 0 -19 6 -17 25 1 13 8 28 15 32 8 5 8 8 1 8 -6 0 -11 10 -10
23 0 12 6 22 12 22 7 0 21 11 31 24 15 19 22 21 28 11 6 -9 4 -11 -5 -5 -9 5
-11 4 -6 -3 5 -9 13 -9 27 -2 23 13 25 28 3 37 -13 5 -13 7 -2 14 16 10 24 12
15 2z m-7 -33 c0 -5 -4 -10 -10 -10 -5 0 -10 5 -10 10 0 6 5 10 10 10 6 0 10
-4 10 -10z m-180 -143 c0 -5 6 -5 13 0 17 14 47 12 47 -3 0 -8 -9 -11 -21 -9
-26 5 -62 -12 -54 -26 6 -8 -8 -13 -27 -10 -5 0 -8 -8 -8 -19 0 -11 -4 -20
-10 -20 -5 0 -13 0 -17 0 -5 0 -9 11 -10 25 -1 16 5 29 19 36 14 8 18 8 14 0
-5 -7 -1 -9 9 -5 11 5 13 10 5 19 -5 6 -7 14 -4 18 9 9 44 4 44 -6z m1224
-205 c2 -4 -5 -9 -17 -9 -17 -2 -19 0 -7 7 18 12 18 12 24 2z m-414 -6 c0 -2
-8 -10 -17 -17 -16 -13 -17 -12 -4 4 13 16 21 21 21 13z m1230 -87 c0 -5 -4
-9 -8 -9 -5 0 -9 7 -9 15 0 8 4 12 9 9 4 -3 8 -9 8 -15z m-810 -31 c8 2 12 2
9 -2 -13 -14 -48 -14 -53 0 -4 11 -1 12 12 6 9 -5 24 -7 32 -4z m-780 -252 c0
-2 -7 -6 -15 -10 -8 -3 -15 -1 -15 4 0 6 7 10 15 10 8 0 15 -2 15 -4z m-690
-75 c0 -5 -7 -12 -16 -15 -14 -5 -15 -4 -4 9 14 17 20 19 20 6z m927 -22 c-9
-6 -15 -14 -12 -20 4 -5 1 -9 -4 -9 -6 0 -11 4 -11 8 0 12 22 32 35 32 5 0 2
-5 -8 -11z m-330 -46 c0 -9 -4 -10 -14 -2 -7 6 -13 12 -13 14 0 1 6 2 13 2 8
0 14 -6 14 -14z m233 13 c0 -3 -4 -8 -10 -11 -5 -3 -10 -1 -10 4 0 6 5 11 10
11 6 0 10 -2 10 -4z m-225 -66 c-1 -11 -8 -26 -15 -33 -11 -9 -11 -7 0 7 14
18 13 19 -4 12 -20 -7 -20 -7 0 15 15 17 15 21 3 17 -9 -4 -16 -1 -16 7 0 10
5 11 17 5 9 -5 16 -18 15 -30z m-185 -516 c0 -8 -19 -13 -24 -6 -3 5 1 9 9 9
8 0 15 -2 15 -3z"/>
<path d="M773 2335 c0 -7 3 -14 6 -13 19 2 24 -4 11 -13 -12 -8 -12 -10 -1 -7
8 2 15 12 17 22 1 10 0 15 -3 12 -4 -3 -11 -1 -18 4 -8 7 -12 5 -12 -5z"/>
<path d="M823 2333 c-3 -8 -3 -17 1 -20 3 -4 6 2 6 12 0 13 3 15 13 6 10 -8
14 -7 14 2 0 18 -27 17 -34 0z"/>
<path d="M870 2341 c0 -6 4 -11 9 -11 5 0 12 -8 14 -17 4 -15 5 -15 6 -2 0 9
-6 22 -14 29 -10 9 -15 9 -15 1z"/>
<path d="M974 2088 c-5 -7 -3 -8 6 -3 10 6 12 4 6 -11 -4 -10 -4 -15 0 -11 4
4 14 1 22 -6 11 -9 11 -4 -2 16 -21 31 -22 31 -32 15z"/>
<path d="M2014 1955 c-18 -15 -18 -15 0 -8 12 4 17 3 13 -4 -3 -5 0 -10 8 -10
10 0 12 4 5 12 -5 7 -7 15 -3 18 12 13 -3 7 -23 -8z"/>
<path d="M1815 1900 c-3 -6 1 -7 9 -4 18 7 21 14 7 14 -6 0 -13 -4 -16 -10z"/>
<path d="M2139 1847 c6 -8 7 -18 3 -22 -4 -5 -1 -5 6 -1 10 6 10 11 1 22 -6 8
-14 14 -16 14 -3 0 0 -6 6 -13z"/>
<path d="M1595 1780 c-3 -6 1 -7 9 -4 18 7 21 14 7 14 -6 0 -13 -4 -16 -10z"/>
<path d="M1891 1746 c-17 -42 -4 -58 43 -54 34 2 41 0 40 -14 -1 -10 3 -15 8
-12 5 3 7 13 4 21 -4 10 -2 13 8 10 17 -7 44 39 30 53 -5 5 -35 12 -66 16 -55
6 -58 6 -67 -20z"/>
<path d="M1708 1608 c-7 -17 15 -19 29 -3 4 4 3 5 -4 2 -6 -4 -13 -2 -15 5 -3
8 -6 6 -10 -4z"/>
<path d="M1879 1530 c-8 -5 -15 -25 -15 -43 -1 -19 -4 -39 -7 -43 -3 -5 32 -9
77 -9 l82 0 3 37 c1 27 -3 39 -16 46 -27 14 -107 22 -124 12z"/>
<path d="M1894 1418 c-4 -7 -4 -10 1 -6 4 4 14 0 22 -10 13 -15 13 -15 3 6
-12 25 -16 27 -26 10z"/>
<path d="M1950 1420 c0 -5 5 -10 10 -10 6 0 10 5 10 10 0 6 -4 10 -10 10 -5 0
-10 -4 -10 -10z"/>
<path d="M1545 1381 c-3 -5 -2 -12 3 -15 5 -3 9 1 9 9 0 17 -3 19 -12 6z"/>
<path d="M1582 1381 c-7 -4 -8 -12 -2 -21 8 -13 10 -12 10 3 0 9 4 17 10 17 5
0 6 -8 3 -17 -6 -17 -6 -17 10 -1 9 9 17 18 17 20 0 7 -36 6 -48 -1z"/>
<path d="M1690 1379 c0 -5 5 -7 10 -4 6 3 10 8 10 11 0 2 -4 4 -10 4 -5 0 -10
-5 -10 -11z"/>
<path d="M1590 1336 c0 -2 8 -10 18 -17 15 -13 16 -12 3 4 -13 16 -21 21 -21
13z"/>
<path d="M455 1620 c3 -5 8 -10 11 -10 2 0 4 5 4 10 0 6 -5 10 -11 10 -5 0 -7
-4 -4 -10z"/>
<path d="M236 1398 c3 -5 10 -6 15 -3 13 9 11 12 -6 12 -8 0 -12 -4 -9 -9z"/>
<path d="M940 1540 c0 -5 9 -8 20 -7 21 1 18 10 -5 13 -8 1 -15 -2 -15 -6z"/>
<path d="M906 1488 c3 -5 10 -6 15 -3 13 9 11 12 -6 12 -8 0 -12 -4 -9 -9z"/>
<path d="M1234 1604 c0 -13 2 -24 2 -24 1 0 8 10 17 23 13 21 13 23 -3 24 -13
1 -17 -5 -16 -23z"/>
<path d="M1169 1553 c-19 -22 -24 -29 -9 -18 40 32 53 46 48 50 -2 3 -20 -12
-39 -32z"/>
<path d="M1102 1450 c-9 -15 -9 -21 1 -26 6 -4 9 -4 5 1 -4 4 -3 14 4 22 6 7
9 15 7 18 -3 2 -10 -4 -17 -15z"/>
<path d="M1070 1405 c5 -7 6 -16 2 -21 -4 -5 -3 -5 2 -1 15 12 15 34 0 34 -9
0 -11 -4 -4 -12z"/>
<path d="M983 1355 c-16 -18 -16 -22 0 -22 7 0 14 9 14 19 2 21 2 21 -14 3z"/>
<path d="M557 1485 c-4 -8 -3 -16 1 -19 4 -3 9 4 9 15 2 23 -3 25 -10 4z"/>
<path d="M516 1382 c-3 -5 1 -9 9 -9 8 0 12 4 9 9 -3 4 -7 8 -9 8 -2 0 -6 -4
-9 -8z"/>
<path d="M390 1376 c0 -2 7 -7 16 -10 8 -3 12 -2 9 4 -6 10 -25 14 -25 6z"/>
<path d="M354 1311 c0 -11 4 -17 8 -15 4 3 8 12 8 20 0 8 -4 14 -8 14 -4 0 -8
-9 -8 -19z"/>
<path d="M1113 2365 c0 -8 4 -12 9 -9 5 3 6 10 3 15 -9 13 -12 11 -12 -6z"/>
<path d="M170 2350 c0 -13 7 -20 20 -20 21 0 25 8 12 25 -13 18 -32 15 -32 -5z"/>
<path d="M1045 2341 c-3 -5 -2 -12 3 -15 5 -3 9 1 9 9 0 17 -3 19 -12 6z"/>
<path d="M146 2323 c-6 -14 -5 -15 5 -6 7 7 10 15 7 18 -3 3 -9 -2 -12 -12z"/>
<path d="M650 2331 c0 -10 19 -25 25 -20 1 2 -3 10 -11 17 -8 7 -14 8 -14 3z"/>
<path d="M716 2258 c3 -5 10 -6 15 -3 13 9 11 12 -6 12 -8 0 -12 -4 -9 -9z"/>
<path d="M820 2200 c6 -11 13 -20 16 -20 2 0 0 9 -6 20 -6 11 -13 20 -16 20
-2 0 0 -9 6 -20z"/>
<path d="M140 2051 c0 -6 4 -13 10 -16 6 -3 7 1 4 9 -7 18 -14 21 -14 7z"/>
<path d="M243 1992 c10 -10 14 -22 10 -27 -5 -4 -2 -5 5 -1 11 6 10 12 -4 27
-9 10 -19 19 -22 19 -3 0 2 -8 11 -18z"/>
<path d="M861 1994 c0 -11 3 -14 6 -6 3 7 2 16 -1 19 -3 4 -6 -2 -5 -13z"/>
<path d="M276 1965 c-3 -8 -1 -15 4 -15 6 0 10 7 10 15 0 8 -2 15 -4 15 -2 0
-6 -7 -10 -15z"/>
<path d="M305 1970 c-3 -6 1 -7 9 -4 18 7 21 14 7 14 -6 0 -13 -4 -16 -10z"/>
<path d="M900 1962 c0 -4 11 -8 25 -8 28 0 24 8 -5 13 -11 2 -20 -1 -20 -5z"/>
<path d="M986 1961 c-3 -5 1 -14 9 -21 10 -9 15 -9 15 -1 0 6 -5 11 -11 11 -5
0 -7 5 -4 10 3 6 4 10 1 10 -3 0 -7 -4 -10 -9z"/>
<path d="M1020 1919 c0 -5 5 -7 10 -4 6 3 10 8 10 11 0 2 -4 4 -10 4 -5 0 -10
-5 -10 -11z"/>
<path d="M1055 1910 c-3 -5 -1 -10 4 -10 6 0 11 5 11 10 0 6 -2 10 -4 10 -3 0
-8 -4 -11 -10z"/>
<path d="M633 1875 c-10 -11 -9 -13 6 -12 11 1 17 7 14 14 -6 16 -5 16 -20 -2z"/>
<path d="M750 1840 c0 -5 5 -10 11 -10 5 0 7 5 4 10 -3 6 -8 10 -11 10 -2 0
-4 -4 -4 -10z"/>
<path d="M1155 1820 c-3 -5 -1 -10 4 -10 6 0 11 5 11 10 0 6 -2 10 -4 10 -3 0
-8 -4 -11 -10z"/>
<path d="M1236 1753 c-6 -14 -5 -15 5 -6 7 7 10 15 7 18 -3 3 -9 -2 -12 -12z"/>
<path d="M806 1455 c-5 -15 11 -31 21 -21 4 3 0 6 -8 6 -12 0 -12 2 0 9 8 5 9
11 3 15 -5 3 -12 -1 -16 -9z"/>
<path d="M735 1380 c-3 -5 -1 -10 4 -10 6 0 11 5 11 10 0 6 -2 10 -4 10 -3 0
-8 -4 -11 -10z"/>
<path d="M227 1247 c-3 -8 1 -14 8 -14 7 0 11 6 8 14 -3 7 -6 13 -8 13 -2 0
-5 -6 -8 -13z"/>
<path d="M260 1230 c-6 -11 -8 -20 -6 -20 3 0 10 9 16 20 6 11 8 20 6 20 -3 0
-10 -9 -16 -20z"/>
<path d="M626 1242 c-3 -5 1 -9 9 -9 8 0 12 4 9 9 -3 4 -7 8 -9 8 -2 0 -6 -4
-9 -8z"/>
<path d="M597 1233 c-10 -9 -9 -23 1 -23 5 0 9 7 9 15 0 17 -1 18 -10 8z"/>
<path d="M359 1192 c-13 -15 -12 -16 3 -4 13 10 17 10 21 0 4 -9 6 -9 6 -1 2
20 -16 24 -30 5z"/>
<path d="M450 1205 c0 -5 5 -17 10 -25 5 -8 10 -10 10 -5 0 6 -5 17 -10 25 -5
8 -10 11 -10 5z"/>
<path d="M499 1193 c-13 -16 -12 -17 4 -4 9 7 17 15 17 17 0 8 -8 3 -21 -13z"/>
<path d="M1026 1198 c3 -5 10 -6 15 -3 13 9 11 12 -6 12 -8 0 -12 -4 -9 -9z"/>
<path d="M519 1173 c-13 -16 -12 -17 4 -4 9 7 17 15 17 17 0 8 -8 3 -21 -13z"/>
<path d="M950 1176 c0 -2 8 -10 18 -17 15 -13 16 -12 3 4 -13 16 -21 21 -21
13z"/>
<path d="M854 1035 c3 -23 12 -26 13 -5 1 11 -2 20 -7 20 -4 0 -7 -7 -6 -15z"/>
<path d="M720 1010 c-6 -10 -10 -23 -9 -27 4 -24 -3 -44 -13 -42 -7 1 -52 1
-100 0 -81 -1 -88 -3 -88 -21 0 -11 5 -21 10 -21 6 -1 16 -2 23 -3 6 -1 11 -7
10 -14 -2 -7 3 -11 10 -9 6 1 11 -4 9 -11 -1 -8 2 -11 8 -7 8 5 7 11 -1 21 -9
11 -8 14 5 14 9 0 16 -6 16 -12 0 -8 3 -9 8 -3 9 12 75 18 67 5 -3 -5 0 -12 6
-16 7 -4 9 -3 5 4 -3 6 -2 13 4 17 5 3 10 1 10 -4 0 -6 5 -11 11 -11 5 0 7 5
4 10 -3 6 -1 10 4 10 6 0 11 -6 11 -12 0 -9 3 -9 9 1 8 13 12 13 28 0 16 -13
17 -12 5 2 -7 9 -10 24 -6 33 3 9 1 16 -5 16 -8 0 -9 5 -1 19 7 14 7 22 0 26
-6 4 -8 10 -5 15 7 11 -5 40 -16 40 -4 0 -13 -9 -19 -20z"/>
<path d="M2190 903 c0 -6 8 -17 18 -24 16 -13 16 -13 2 6 -8 11 -16 22 -17 24
-2 2 -3 0 -3 -6z"/>
<path d="M2000 869 c-11 -6 -12 -9 -2 -9 7 0 10 -4 7 -10 -3 -6 1 -7 9 -4 9 3
16 10 16 14 0 15 -15 19 -30 9z"/>
<path d="M630 861 c0 -6 4 -13 10 -16 6 -3 7 1 4 9 -7 18 -14 21 -14 7z"/>
<path d="M670 846 c0 -2 7 -7 16 -10 8 -3 12 -2 9 4 -6 10 -25 14 -25 6z"/>
<path d="M2036 842 c-3 -5 1 -9 9 -9 8 0 12 4 9 9 -3 4 -7 8 -9 8 -2 0 -6 -4
-9 -8z"/>
<path d="M1886 817 c3 -10 9 -15 12 -12 3 3 0 11 -7 18 -10 9 -11 8 -5 -6z"/>
<path d="M1910 821 c0 -6 4 -13 10 -16 6 -3 7 1 4 9 -7 18 -14 21 -14 7z"/>
<path d="M1595 760 c-3 -5 -1 -10 4 -10 6 0 11 5 11 10 0 6 -2 10 -4 10 -3 0
-8 -4 -11 -10z"/>
<path d="M1570 740 c0 -5 5 -10 11 -10 5 0 7 5 4 10 -3 6 -8 10 -11 10 -2 0
-4 -4 -4 -10z"/>
<path d="M1420 726 c0 -2 8 -10 18 -17 15 -13 16 -12 3 4 -13 16 -21 21 -21
13z"/>
<path d="M1505 720 c-3 -6 1 -7 9 -4 18 7 21 14 7 14 -6 0 -13 -4 -16 -10z"/>
<path d="M1323 694 c0 -9 4 -11 12 -4 7 5 14 9 16 7 2 -1 3 0 1 2 -7 11 -29 7
-29 -5z"/>
<path d="M1070 661 c0 -6 4 -13 10 -16 6 -3 7 1 4 9 -7 18 -14 21 -14 7z"/>
<path d="M950 569 c0 -5 5 -7 10 -4 6 3 10 8 10 11 0 2 -4 4 -10 4 -5 0 -10
-5 -10 -11z"/>
<path d="M2456 465 c-9 -14 -17 -42 -18 -63 0 -22 -8 -44 -19 -55 -11 -10 -19
-23 -20 -30 -1 -7 -2 -37 -4 -67 -4 -73 -3 -70 -18 -70 -8 0 -14 -6 -15 -12 0
-7 -3 -23 -6 -35 -2 -13 0 -25 5 -28 5 -4 7 -10 5 -13 -2 -4 11 -7 30 -6 19 1
34 -2 34 -7 0 -5 5 -9 11 -9 5 0 7 6 3 12 -5 8 0 7 11 -2 10 -8 16 -10 12 -4
-4 7 -1 14 6 17 9 3 12 51 10 197 -1 106 -4 194 -6 196 -2 3 -12 -7 -21 -21z"/>
<path d="M1727 460 c-18 -21 -18 -21 -192 -24 -116 -2 -156 -10 -152 -29 1 -6
-4 -11 -12 -12 -15 0 -31 -33 -24 -51 2 -7 13 -10 24 -7 14 4 19 0 20 -13 0
-15 2 -16 7 -4 5 10 23 15 60 16 44 1 50 -1 35 -11 -17 -13 -29 -50 -12 -39 5
3 7 9 4 14 -3 5 4 14 15 20 11 6 18 15 15 20 -3 5 -1 11 5 15 6 4 8 9 6 13 -2
4 11 8 30 9 24 1 32 -2 27 -10 -5 -9 -3 -9 8 0 16 13 141 15 133 2 -2 -4 0
-11 6 -14 6 -4 9 -1 8 6 -2 7 9 14 25 15 19 2 25 -1 20 -9 -5 -9 -3 -8 9 0 8
7 19 9 24 5 4 -4 3 0 -4 9 -16 21 8 44 38 36 20 -5 42 14 46 39 3 16 8 15 -81
20 -61 3 -73 1 -88 -16z"/>
<path d="M1817 403 c-4 -6 0 -13 8 -17 8 -3 17 0 21 6 4 6 3 8 -4 4 -5 -3 -12
-1 -14 6 -3 8 -6 9 -11 1z"/>
<path d="M1555 360 c-3 -5 -1 -10 4 -10 6 0 11 5 11 10 0 6 -2 10 -4 10 -3 0
-8 -4 -11 -10z"/>
<path d="M1610 366 c0 -2 7 -7 16 -10 8 -3 12 -2 9 4 -6 10 -25 14 -25 6z"/>
<path d="M1651 354 c0 -11 3 -14 6 -6 3 7 2 16 -1 19 -3 4 -6 -2 -5 -13z"/>
<path d="M1695 360 c-3 -5 -1 -10 4 -10 6 0 11 5 11 10 0 6 -2 10 -4 10 -3 0
-8 -4 -11 -10z"/>
<path d="M1750 360 c0 -5 5 -10 11 -10 5 0 7 5 4 10 -3 6 -8 10 -11 10 -2 0
-4 -4 -4 -10z"/>
<path d="M1852 336 c-9 -20 -17 -22 -102 -24 -72 -2 -90 0 -85 10 4 7 0 4 -9
-6 -8 -10 -13 -22 -11 -26 9 -14 -26 -20 -122 -20 -80 0 -94 -2 -90 -15 4 -8
2 -17 -4 -20 -16 -10 0 -25 27 -25 14 0 22 -4 19 -10 -3 -6 -1 -10 4 -10 6 0
11 7 11 17 0 14 3 14 22 -3 12 -10 18 -14 15 -8 -4 7 3 14 18 16 29 6 33 -6 8
-21 -10 -6 -13 -11 -6 -11 6 0 19 7 27 16 9 8 20 12 26 9 5 -3 10 -2 10 3 0 6
10 8 22 4 21 -5 21 -6 2 -13 -17 -7 -17 -8 -1 -8 10 -1 20 6 24 15 3 10 8 12
12 5 5 -7 16 -5 36 5 22 11 35 13 53 5 38 -18 40 -12 2 9 -26 14 -30 19 -15
19 11 0 47 1 81 2 33 2 65 -1 72 -5 8 -4 10 -2 6 8 -3 8 -7 29 -9 48 -2 18 -4
36 -4 39 -3 19 -30 15 -39 -5z"/>
<path d="M1427 312 c5 -11 3 -13 -7 -7 -9 6 -11 4 -5 -5 6 -10 11 -10 20 3 7
9 14 16 16 14 2 -1 3 0 1 2 -1 3 -9 6 -17 7 -9 1 -11 -4 -8 -14z"/>
<path d="M1826 242 c-3 -4 4 -9 15 -9 23 -2 25 3 4 10 -8 4 -16 3 -19 -1z"/>
<path d="M1711 207 c-8 -10 -7 -14 2 -14 8 0 14 6 14 14 0 7 -1 13 -2 13 -2 0
-8 -6 -14 -13z"/>
<path d="M116 192 c-3 -5 1 -9 9 -9 8 0 12 4 9 9 -3 4 -7 8 -9 8 -2 0 -6 -4
-9 -8z"/>
<path d="M1595 180 c3 -5 8 -10 11 -10 2 0 4 5 4 10 0 6 -5 10 -11 10 -5 0 -7
-4 -4 -10z"/>
<path d="M1656 181 c-4 -5 3 -7 14 -4 23 6 26 13 6 13 -8 0 -17 -4 -20 -9z"/>
<path d="M207 143 c3 -7 9 -11 13 -8 5 3 11 1 15 -5 3 -5 12 -10 18 -10 7 0 4
5 -6 11 -9 6 -15 13 -13 17 3 4 -4 8 -14 8 -10 0 -16 -6 -13 -13z"/>
<path d="M254 148 c-4 -7 -3 -8 4 -4 7 4 12 3 12 -1 0 -5 10 -14 23 -22 21
-13 21 -13 -2 13 -28 30 -28 30 -37 14z"/>
<path d="M1563 142 c-7 -4 -11 -18 -10 -30 1 -16 8 -22 25 -22 13 0 20 -4 17
-10 -3 -5 -1 -10 4 -10 6 0 11 5 11 10 0 6 16 10 35 10 19 0 35 3 36 8 0 4 2
15 4 25 3 14 -4 17 -40 17 -24 0 -49 2 -57 5 -7 3 -18 1 -25 -3z"/>
<path d="M118 93 c23 -2 59 -2 80 0 20 2 1 4 -43 4 -44 0 -61 -2 -37 -4z"/>
<path d="M493 65 c0 -7 9 -13 19 -12 10 1 18 2 18 4 0 1 -8 7 -18 12 -14 7
-19 6 -19 -4z"/>
<path d="M674 68 c-4 -5 -3 -12 0 -15 3 -4 6 0 6 8 0 11 2 12 9 1 7 -11 9 -11
14 0 6 16 -20 21 -29 6z"/>
<path d="M2390 70 c0 -6 7 -10 15 -10 8 0 15 2 15 4 0 2 -7 6 -15 10 -8 3 -15
1 -15 -4z"/>
</g>
</svg>
