<?xml version="1.0" standalone="no"?>
<!DOCTYPE svg PUBLIC "-//W3C//DTD SVG 20010904//EN"
 "http://www.w3.org/TR/2001/REC-SVG-20010904/DTD/svg10.dtd">
<svg version="1.0" xmlns="http://www.w3.org/2000/svg"
 width="260.000000pt" height="260.000000pt" viewBox="0 0 260.000000 260.000000"
 preserveAspectRatio="xMidYMid meet">
<metadata>
Created by potrace 1.11, written by Peter Selinger 2001-2013
</metadata>
<g transform="translate(0.000000,260.000000) scale(0.100000,-0.100000)"
fill="#000000" stroke="none">
<path d="M100 2485 c0 -20 5 -25 24 -25 40 0 56 -11 56 -36 0 -17 -6 -24 -20
-24 -18 0 -20 -7 -20 -61 l0 -61 40 4 c28 2 40 0 40 -9 0 -18 42 -33 89 -33
30 0 40 -4 44 -20 3 -11 12 -20 21 -20 9 0 16 -6 16 -14 0 -8 9 -17 19 -21 10
-3 21 -15 24 -25 4 -15 14 -20 40 -20 26 0 36 -5 40 -20 3 -14 17 -21 46 -26
23 -4 41 -12 41 -19 0 -16 43 -27 74 -19 28 7 43 62 19 71 -10 4 -11 9 -2 19
16 19 33 17 54 -6 10 -11 28 -20 40 -20 12 0 30 -9 40 -20 10 -11 24 -20 31
-20 7 0 34 -11 60 -25 26 -14 62 -25 81 -25 19 0 36 -6 39 -14 3 -8 19 -17 36
-20 29 -6 60 -30 152 -122 23 -23 56 -45 74 -49 33 -7 48 -33 40 -72 -3 -17
-32 -18 -621 -21 l-617 -2 0 -98 c0 -98 13 -152 37 -152 7 0 15 -12 19 -27 11
-54 18 -58 23 -18 6 38 8 40 44 43 37 3 37 4 37 48 l0 44 45 0 45 0 0 40 c0
40 0 40 39 40 30 0 40 4 44 20 5 18 14 20 90 20 48 0 89 -5 92 -10 4 -6 -14
-30 -39 -55 -25 -24 -46 -49 -46 -55 0 -5 -9 -10 -20 -10 -13 0 -20 -7 -20
-20 0 -13 -7 -20 -20 -20 -11 0 -20 -7 -20 -15 0 -9 -7 -18 -15 -21 -9 -4 -20
-15 -26 -25 -9 -18 -5 -19 46 -19 52 0 55 1 55 26 0 33 17 64 35 64 8 0 15 7
15 16 0 9 9 18 19 21 11 3 21 14 24 25 4 14 12 19 29 16 19 -2 24 -10 26 -41
3 -32 0 -39 -17 -44 -12 -3 -21 -12 -21 -20 0 -8 -9 -17 -19 -20 -15 -4 -21
-15 -23 -47 l-3 -41 -62 -3 c-49 -2 -63 -6 -63 -18 0 -9 -9 -18 -19 -21 -11
-3 -21 -14 -24 -25 -4 -14 -12 -19 -29 -16 -19 2 -24 10 -26 41 l-3 37 -75 0
c-41 0 -74 -3 -74 -6 0 -14 61 -64 79 -64 11 0 32 -11 47 -25 25 -24 33 -25
141 -25 108 0 114 1 135 25 12 14 32 25 44 25 27 0 74 43 74 68 0 29 12 62 22
62 17 0 68 58 68 77 0 27 16 47 33 40 20 -7 27 -53 27 -174 0 -96 2 -105 20
-110 38 -10 35 -113 -4 -113 -8 0 -16 -7 -20 -15 -3 -9 -19 -15 -41 -15 -24 0
-35 -4 -35 -15 0 -12 15 -15 75 -15 l75 0 0 91 c0 83 2 91 18 84 9 -4 52 -9
95 -12 70 -5 77 -8 77 -27 0 -39 -12 -65 -31 -71 -23 -7 -25 -25 -4 -25 20 0
20 -46 0 -54 -9 -3 -15 -18 -15 -40 0 -25 -5 -36 -19 -41 -10 -3 -21 -15 -24
-25 -3 -11 -12 -20 -20 -20 -8 0 -17 -9 -20 -20 -4 -15 -14 -20 -36 -20 -20 0
-35 -7 -43 -20 -7 -11 -18 -20 -25 -20 -7 0 -17 -9 -23 -20 -9 -16 -21 -20
-65 -20 l-55 0 0 -65 0 -65 -40 0 c-29 0 -42 -5 -50 -20 -8 -15 -21 -20 -55
-20 -24 0 -45 5 -47 10 -2 6 -28 14 -57 19 -30 5 -60 16 -66 25 -7 9 -26 16
-45 16 -23 0 -33 5 -37 19 -4 15 -17 21 -59 27 -29 3 -59 12 -65 20 -6 8 -28
18 -49 24 -24 6 -40 17 -43 30 -3 11 -12 20 -21 20 -12 0 -16 -10 -16 -35 0
-31 3 -35 25 -35 14 0 25 -4 25 -10 0 -5 -11 -10 -25 -10 l-25 0 0 -270 0
-270 46 0 c37 0 47 -4 51 -20 5 -17 14 -20 59 -20 43 0 56 -4 66 -20 10 -16
24 -20 66 -20 41 0 54 -4 59 -18 4 -9 11 -20 17 -24 6 -4 104 -8 219 -8 l207
0 0 34 c0 53 11 96 25 96 19 0 25 49 25 221 0 148 1 159 20 169 14 8 20 21 20
45 l0 35 58 0 c46 0 60 4 70 20 16 26 49 26 57 0 8 -24 65 -29 65 -6 0 20 23
26 100 26 59 0 68 2 73 20 5 18 14 20 105 20 91 0 100 2 105 20 5 18 14 20
101 20 85 0 96 2 106 20 9 17 21 20 75 20 71 0 95 6 95 25 0 19 24 25 100 25
58 0 68 3 73 19 4 16 18 19 102 23 76 4 100 9 107 22 7 12 24 16 68 16 l60 0
0 40 c0 33 -3 40 -19 40 -11 0 -22 4 -25 9 -10 16 5 41 25 41 18 0 19 20 19
690 l0 690 -605 0 -605 0 0 -36 c0 -27 5 -37 20 -41 30 -8 26 -93 -5 -93 -7 0
-15 -9 -18 -20 -5 -19 -14 -20 -137 -20 l-131 0 3 43 c3 41 4 42 40 45 25 2
39 9 43 21 3 11 15 21 25 24 15 4 20 14 20 41 l0 36 -525 0 -525 0 0 -25z
m889 -104 c19 -12 6 -41 -18 -41 -11 0 -22 -9 -26 -20 -6 -17 -15 -20 -72 -20
-76 0 -103 16 -103 62 l0 28 103 0 c56 0 108 -4 116 -9z m1411 -150 c16 -39
10 -95 -11 -99 -9 -2 -24 9 -34 24 -15 23 -16 33 -6 65 14 46 34 50 51 10z
m-160 -54 c0 -16 -31 -47 -47 -47 -18 0 -16 45 3 65 12 12 19 13 30 4 8 -6 14
-16 14 -22z m-284 -177 c15 -46 30 -48 48 -6 12 28 21 36 40 36 21 0 27 -7 36
-39 7 -28 21 -46 50 -65 22 -14 51 -43 64 -64 22 -32 25 -49 26 -137 1 -55 -3
-120 -9 -145 -6 -25 -10 -77 -11 -117 l0 -72 -65 -36 c-35 -20 -78 -54 -96
-76 -37 -47 -73 -53 -91 -14 -14 32 -26 32 -38 -1 -13 -32 -49 -30 -66 4 -21
42 -32 47 -53 28 -11 -10 -25 -34 -31 -52 -15 -43 -46 -45 -84 -5 -23 24 -26
32 -17 49 10 19 8 21 -31 24 -34 2 -44 7 -47 23 -4 24 -19 35 -47 35 -25 0
-124 76 -124 95 0 8 7 21 16 29 14 14 12 17 -20 33 -40 19 -55 49 -35 68 18
17 135 29 144 16 4 -7 14 -6 28 4 12 7 61 22 110 31 81 16 87 19 87 42 0 37
-28 54 -62 36 -36 -19 -64 -18 -86 4 -13 13 -24 15 -42 9 -15 -5 -36 -5 -52 2
-27 10 -27 10 -12 47 35 83 74 110 119 80 12 -8 37 -16 56 -18 30 -3 36 1 52
32 41 77 45 80 92 80 39 0 46 4 60 30 30 59 74 64 91 10z m-506 -160 c0 -5 -9
-10 -20 -10 -11 0 -20 5 -20 10 0 6 9 10 20 10 11 0 20 -4 20 -10z m-42 -82
c-3 -7 -11 -13 -18 -13 -7 0 -15 6 -17 13 -3 7 4 12 17 12 13 0 20 -5 18 -12z
m-660 -105 c2 -7 -8 -17 -22 -23 -14 -5 -26 -17 -26 -25 0 -28 -54 -15 -58 13
-6 44 4 53 55 50 26 -2 48 -9 51 -15z m417 -26 c0 -39 19 -51 28 -17 3 11 12
20 20 20 8 0 17 9 20 21 5 17 12 20 53 17 54 -3 69 -23 30 -38 -14 -5 -26 -16
-26 -24 0 -8 -9 -18 -20 -21 -11 -3 -20 -13 -20 -22 0 -8 -9 -17 -20 -20 -11
-3 -20 -12 -20 -20 0 -8 -9 -17 -20 -20 -14 -4 -20 -14 -20 -32 0 -41 -57
-101 -97 -101 -23 0 -32 -5 -36 -21 -5 -17 -12 -20 -49 -17 -32 2 -44 8 -46
21 -2 12 4 20 16 24 11 3 22 13 25 24 4 14 14 19 41 19 26 0 36 4 36 16 0 9 9
18 20 21 14 4 20 14 20 33 0 41 10 60 31 60 12 0 19 7 19 18 0 26 -66 18 -73
-9 -3 -10 -12 -19 -21 -19 -9 0 -16 -7 -16 -16 0 -9 -9 -18 -19 -21 -11 -3
-21 -14 -24 -25 -5 -16 -13 -19 -54 -16 -37 2 -49 7 -51 21 -7 34 7 67 28 67
12 0 20 7 20 16 0 9 9 18 19 21 11 3 21 13 24 24 4 14 14 19 40 19 27 0 36 5
40 21 5 17 12 20 54 17 l48 -3 0 -38z m315 28 c0 -8 -9 -15 -20 -15 -11 0 -20
7 -20 15 0 8 9 15 20 15 11 0 20 -7 20 -15z m-95 -295 c9 -15 -14 -40 -36 -40
-26 0 -34 20 -10 27 12 3 21 9 21 14 0 12 17 11 25 -1z m-55 -70 c0 -5 -11
-10 -25 -10 -14 0 -25 5 -25 10 0 6 11 10 25 10 14 0 25 -4 25 -10z m-60 -40
c0 -5 -22 -10 -50 -10 -27 0 -50 5 -50 10 0 6 23 10 50 10 28 0 50 -4 50 -10z
m121 -29 c17 -14 21 -23 13 -31 -15 -15 -88 10 -92 33 -5 24 48 23 79 -2z
m-123 -32 c-3 -37 -31 -60 -49 -42 -8 8 -7 19 7 42 24 41 46 41 42 0z m186 15
c23 -9 20 -34 -3 -34 -22 0 -35 15 -26 30 7 12 8 12 29 4z m244 -11 c-2 -10
-18 -22 -36 -27 -26 -7 -36 -6 -49 7 -15 15 -15 17 8 26 13 5 37 10 52 10 22
1 28 -3 25 -16z m-518 -24 c0 -24 -23 -21 -28 4 -2 10 3 17 12 17 10 0 16 -9
16 -21z m924 -15 c35 -13 43 -74 11 -74 -19 0 -77 58 -70 70 7 11 35 13 59 4z
m-416 -76 c24 -24 13 -38 -27 -38 -39 0 -53 12 -43 38 5 15 54 16 70 0z m-528
-38 c0 -5 -11 -10 -25 -10 -14 0 -25 5 -25 10 0 6 11 10 25 10 14 0 25 -4 25
-10z m580 -40 c0 -5 -9 -10 -20 -10 -11 0 -20 5 -20 10 0 6 9 10 20 10 11 0
20 -4 20 -10z m-626 -39 c7 -11 -22 -23 -35 -15 -5 3 -9 9 -9 15 0 12 37 12
44 0z m-39 -66 c0 -22 -31 -33 -47 -17 -17 17 -1 44 24 40 15 -2 23 -10 23
-23z m-165 -85 c0 -15 -7 -20 -24 -20 -27 0 -41 14 -31 30 3 6 17 10 31 10 17
0 24 -5 24 -20z m-680 -61 c0 -20 -21 -49 -35 -49 -20 0 -57 38 -50 50 8 14
85 13 85 -1z m40 -49 c0 -5 -9 -10 -20 -10 -11 0 -20 5 -20 10 0 6 9 10 20 10
11 0 20 -4 20 -10z m554 -6 c12 -30 6 -101 -9 -114 -29 -24 -45 -4 -45 58 0
32 3 62 7 65 12 13 41 7 47 -9z m-404 -34 c0 -6 -27 -10 -60 -10 -33 0 -60 4
-60 10 0 6 27 10 60 10 33 0 60 -4 60 -10z m320 0 c0 -5 -11 -10 -25 -10 -14
0 -25 5 -25 10 0 6 11 10 25 10 14 0 25 -4 25 -10z m-522 -17 c-5 -26 -38 -29
-38 -4 0 15 6 21 21 21 14 0 19 -5 17 -17z m432 -22 c0 -11 -66 -18 -127 -12
-76 6 -46 21 42 21 47 0 85 -4 85 -9z m-450 -26 c13 -16 6 -35 -15 -35 -18 0
-28 17 -21 35 7 19 20 19 36 0z m-5 -80 c0 -10 -6 -20 -12 -22 -8 -3 -13 5
-13 22 0 17 5 25 13 23 6 -3 12 -13 12 -23z"/>
<path d="M1928 1774 c-5 -4 -8 -16 -8 -26 0 -15 8 -18 44 -18 24 0 51 3 60 6
22 8 20 34 -1 34 -10 0 -34 3 -53 6 -19 3 -38 2 -42 -2z"/>
<path d="M738 998 l-3 -43 -102 -3 c-57 -1 -103 -6 -103 -11 0 -11 77 -21 161
-21 l69 0 0 54 c0 66 -18 84 -22 24z"/>
<path d="M1763 472 c-16 -18 -36 -20 -173 -24 -150 -4 -156 -5 -182 -30 -43
-40 -36 -48 42 -48 59 0 71 3 80 20 10 18 21 20 145 20 124 0 135 2 145 20 8
14 21 20 46 20 28 0 35 4 32 18 -5 27 -110 30 -135 4z"/>
<path d="M1590 130 c0 -17 7 -20 50 -20 43 0 50 3 50 20 0 17 -7 20 -50 20
-43 0 -50 -3 -50 -20z"/>
</g>
</svg>
