<?xml version="1.0" standalone="no"?>
<!DOCTYPE svg PUBLIC "-//W3C//DTD SVG 20010904//EN"
 "http://www.w3.org/TR/2001/REC-SVG-20010904/DTD/svg10.dtd">
<svg version="1.0" xmlns="http://www.w3.org/2000/svg"
 width="260.000000pt" height="260.000000pt" viewBox="0 0 260.000000 260.000000"
 preserveAspectRatio="xMidYMid meet">
<metadata>
Created by potrace 1.11, written by Peter Selinger 2001-2013
</metadata>
<g transform="translate(0.000000,260.000000) scale(0.100000,-0.100000)"
fill="#000000" stroke="none">
<path d="M99 2468 c-4 -250 -3 -335 5 -330 5 3 6 -3 2 -13 -6 -16 -4 -16 11
-4 15 12 16 12 10 -3 -4 -12 -2 -15 9 -11 7 3 14 0 14 -7 0 -6 4 -9 9 -5 6 3
15 -3 20 -14 13 -24 14 -34 3 -27 -5 3 -9 -1 -9 -8 0 -7 6 -13 13 -13 7 0 11
4 8 9 -3 4 2 8 11 8 12 0 15 -6 10 -22 -5 -17 -4 -19 4 -9 11 18 39 23 47 9 3
-5 17 -13 31 -19 14 -5 21 -14 17 -20 -4 -8 -9 -7 -15 2 -6 10 -9 10 -9 2 0
-16 17 -26 25 -13 4 6 11 8 16 5 5 -3 6 2 2 12 -5 14 -2 14 16 -4 12 -13 26
-23 32 -23 6 0 7 -4 4 -10 -4 -6 1 -7 11 -3 14 5 12 8 -10 20 -14 7 -26 16
-26 18 0 6 31 -6 56 -22 11 -7 24 -10 29 -6 4 5 4 -3 0 -17 l-8 -25 22 25 c20
23 22 23 16 4 -3 -14 1 -26 12 -35 16 -13 17 -12 5 3 -9 11 -10 23 -5 33 8 13
13 11 34 -12 21 -25 22 -26 1 -9 -12 11 -24 17 -27 14 -3 -3 6 -13 19 -22 14
-8 27 -12 30 -8 6 10 68 8 84 -1 6 -4 13 -3 17 3 4 6 11 8 16 4 5 -3 6 -10 3
-16 -5 -7 -1 -9 9 -5 9 3 21 -1 29 -11 9 -11 10 -14 1 -8 -26 15 -12 -2 15
-19 15 -10 21 -12 15 -4 -17 17 -17 35 0 21 6 -5 36 -9 64 -8 39 1 54 -3 57
-14 3 -11 4 -10 5 3 1 12 5 16 14 11 7 -5 6 0 -3 11 -16 19 -16 21 3 44 9 12
9 13 0 7 -12 -7 -19 19 -14 48 1 5 -6 3 -15 -5 -16 -12 -17 -12 -11 3 3 10 3
17 -1 17 -19 -3 -22 3 -11 22 12 24 -3 50 -16 28 -6 -8 -4 -10 5 -4 8 5 11 3
8 -6 -3 -8 -12 -15 -21 -17 -12 -3 -15 1 -10 14 4 12 3 15 -6 10 -7 -5 -10 -2
-9 5 2 7 -4 13 -12 14 -8 1 -14 6 -12 13 1 7 -2 12 -6 12 -5 0 -17 7 -28 15
-14 12 -10 12 16 -2 19 -9 39 -16 43 -15 5 1 5 -3 1 -9 -5 -9 -2 -10 10 -6 17
7 71 -25 60 -35 -3 -3 2 -8 10 -11 9 -4 18 -2 21 3 8 13 35 1 35 -15 0 -8 5
-17 12 -21 6 -4 8 -3 5 3 -3 5 4 9 16 7 12 -1 25 -3 29 -3 4 -1 5 -9 2 -18 -5
-17 -5 -17 9 0 17 20 44 14 52 -14 4 -10 11 -19 16 -19 6 0 7 6 3 13 -6 8 -3
8 9 -1 9 -8 22 -10 29 -6 9 6 9 3 -1 -9 -12 -15 -12 -17 3 -11 12 4 15 2 11
-9 -5 -11 0 -14 19 -12 15 2 24 0 21 -5 -3 -4 6 -15 20 -24 23 -15 37 -45 15
-31 -6 3 -7 -1 -3 -10 5 -13 7 -14 14 -3 8 11 11 11 18 -1 5 -7 14 -10 20 -7
6 4 11 4 10 -1 -4 -18 14 -43 32 -43 24 0 25 -16 2 -29 -10 -6 -13 -11 -6 -11
6 0 15 5 18 10 4 6 11 7 17 4 6 -4 8 -2 4 4 -3 6 -2 13 3 16 5 4 8 -2 7 -11
-2 -10 2 -21 8 -25 8 -5 7 -8 -2 -8 -7 0 -11 -4 -8 -8 2 -4 -25 -9 -62 -9 -69
-2 -954 -3 -1075 -1 -37 0 -70 -2 -73 -5 -3 -2 -5 -44 -6 -91 0 -78 -2 -85
-17 -74 -11 9 -11 7 2 -9 12 -14 18 -33 15 -55 -2 -21 2 -33 10 -34 6 -1 16
-2 21 -3 14 -2 19 -37 8 -56 -7 -13 -6 -16 2 -11 6 4 11 3 11 -2 0 -5 10 -12
21 -15 15 -4 20 -11 16 -21 -4 -10 -1 -16 8 -16 8 0 15 -5 15 -11 0 -5 5 -7
11 -3 8 5 10 -1 7 -19 -4 -21 -2 -25 11 -18 15 7 33 7 46 1 3 -1 11 -3 18 -4
6 -1 11 -7 10 -14 -3 -12 0 -13 38 -16 11 0 27 -10 35 -20 8 -11 14 -16 14
-11 0 5 5 4 12 -3 7 -7 19 -12 27 -12 9 0 1 8 -16 16 -19 9 -30 21 -26 27 5 8
8 8 10 0 3 -7 11 -9 20 -6 12 5 14 3 8 -8 -7 -11 -6 -12 6 -3 8 6 30 10 49 10
19 -1 39 3 43 9 5 6 7 4 4 -5 -2 -8 -13 -14 -25 -14 -12 1 -19 -2 -17 -7 7
-10 49 -2 53 11 6 18 22 11 16 -7 -4 -14 -2 -14 8 2 14 22 38 31 38 15 0 -6 5
-10 10 -10 7 0 7 6 0 20 -12 22 -11 22 39 24 24 1 38 8 49 26 l14 25 -21 -25
c-21 -24 -22 -24 -11 -2 6 13 23 28 38 33 21 8 23 12 12 19 -11 7 -11 10 -2
10 8 0 10 8 7 23 -5 18 -1 26 19 35 15 6 25 16 24 21 -2 5 13 20 32 33 l35 24
0 -88 c0 -49 3 -94 7 -101 3 -6 2 -19 -3 -29 -9 -17 -1 -24 25 -19 5 1 3 -6
-4 -16 -8 -10 -11 -15 -6 -11 13 11 36 -15 25 -28 -5 -7 -8 -16 -7 -20 2 -5 0
-9 -4 -9 -4 0 -13 -8 -21 -18 -7 -10 -29 -22 -47 -26 -26 -5 -35 -12 -35 -26
0 -11 6 -19 13 -18 6 2 12 -5 12 -15 0 -10 3 -13 8 -6 7 11 103 14 96 3 -1 -3
3 -6 11 -6 8 0 12 4 9 8 -2 4 6 15 18 23 21 15 21 16 3 17 -11 0 -15 3 -9 5 8
3 9 16 4 39 -7 29 -5 35 9 35 11 0 12 3 4 8 -17 11 -10 45 10 48 9 1 17 -3 17
-9 0 -7 5 -5 10 3 8 12 10 12 10 1 0 -10 3 -11 14 -2 9 8 16 8 20 2 4 -5 15
-8 26 -6 11 2 22 -1 25 -6 4 -5 12 -6 18 -2 7 4 6 0 -2 -10 -14 -18 -36 -13
-25 6 4 7 3 8 -1 4 -19 -17 -13 -35 11 -32 19 2 22 0 13 -11 -6 -8 -15 -11
-20 -8 -5 3 -8 2 -7 -3 1 -4 -3 -18 -10 -29 -10 -18 -9 -24 6 -35 16 -13 16
-12 2 6 -14 19 -14 19 3 6 24 -19 21 -28 -10 -36 -15 -3 -23 -9 -17 -13 12 -9
12 -58 0 -69 -6 -5 -6 -2 -1 7 8 13 7 13 -8 1 -10 -8 -15 -16 -12 -19 2 -3 -9
-15 -25 -27 -16 -12 -27 -25 -24 -28 4 -3 -7 -9 -22 -12 -56 -13 -64 -16 -64
-30 0 -14 -27 -28 -39 -21 -4 3 -7 -5 -7 -17 1 -19 -4 -22 -34 -22 -19 0 -38
5 -42 10 -5 6 -8 5 -8 -4 0 -11 -3 -11 -17 0 -11 10 -14 10 -9 2 4 -7 3 -13
-3 -13 -5 0 -9 -12 -9 -27 1 -59 -2 -93 -9 -92 -36 6 -65 -3 -70 -21 -4 -15
-14 -20 -40 -20 -19 0 -41 6 -48 14 -8 7 -36 16 -63 20 -28 3 -55 13 -62 21
-7 8 -25 15 -40 15 -16 0 -33 8 -41 20 -12 17 -40 26 -95 29 -6 1 -21 10 -34
21 -13 11 -31 20 -40 20 -9 0 -32 15 -51 33 l-34 32 -5 -40 c-3 -22 -4 -76 -4
-119 1 -70 0 -77 -12 -61 -8 10 -14 14 -14 8 0 -6 7 -16 15 -23 20 -17 17 -80
-4 -73 -14 4 -14 4 0 -6 13 -8 15 -36 15 -183 l-1 -174 29 4 c23 4 27 2 21 -9
-8 -12 -6 -12 8 0 12 9 17 10 17 2 0 -7 4 -9 10 -6 6 3 7 -1 4 -9 -3 -9 -1
-16 6 -16 6 0 9 -4 6 -8 -3 -5 1 -9 9 -9 8 0 12 4 10 7 -3 4 9 7 26 6 29 -1
64 -31 54 -46 -2 -4 2 -7 10 -7 11 0 11 4 -1 23 -10 15 -12 24 -5 29 6 3 11
-1 11 -10 0 -20 25 -47 34 -38 4 4 14 8 23 9 11 2 6 -6 -13 -22 l-29 -25 30
18 c17 10 33 22 37 28 5 6 8 5 8 -4 0 -10 3 -11 14 -2 9 8 16 8 20 2 8 -12 -4
-19 -26 -16 -10 2 -18 0 -18 -4 0 -5 15 -8 32 -9 18 0 34 -6 36 -11 2 -6 8
-11 13 -11 6 0 8 3 6 8 -3 4 17 7 45 8 48 1 49 0 24 -13 -32 -17 -32 -18 1
-20 19 -1 22 1 12 8 -11 7 -11 9 4 9 9 0 17 3 17 8 0 4 25 7 55 8 31 0 50 -3
43 -8 -9 -5 -8 -8 5 -8 9 0 17 3 17 8 0 4 24 7 54 7 30 1 53 -2 50 -6 -2 -4
-14 -6 -26 -4 -11 3 -27 1 -36 -4 -12 -7 -12 -9 2 -14 11 -5 15 -3 10 4 -4 7
-1 10 7 7 8 -3 13 -12 11 -19 -3 -11 21 4 48 31 3 3 17 5 33 6 23 1 27 -2 22
-20 -4 -15 -1 -13 10 7 9 15 19 26 23 23 4 -2 6 18 5 44 -1 39 2 49 17 53 14
4 17 14 16 51 -1 25 1 46 4 46 3 0 4 16 2 36 -3 24 0 39 9 45 10 6 11 9 2 9
-7 0 -13 11 -13 24 0 13 6 27 13 29 10 4 10 6 0 6 -17 1 -17 43 0 60 7 8 7 11
1 8 -7 -4 -12 3 -11 18 0 14 4 22 10 18 6 -4 7 -1 1 8 -15 25 -13 41 7 46 18
5 24 16 20 37 -3 13 20 36 30 30 5 -3 9 0 9 5 0 6 5 11 11 11 5 0 7 -4 4 -10
-3 -5 -1 -18 5 -27 11 -17 11 -17 6 0 -8 26 34 41 53 19 13 -16 13 -16 8 1 -4
11 -1 20 8 23 8 4 12 10 9 15 -3 5 0 9 5 9 14 0 14 -13 -1 -28 -9 -9 -3 -11
24 -9 30 3 36 0 33 -15 -2 -10 0 -16 6 -13 5 4 9 13 9 21 0 8 5 12 10 9 6 -4
7 -12 4 -18 -4 -7 -3 -8 2 -4 5 5 9 14 9 20 0 7 11 12 24 11 23 -1 23 0 5 14
-18 14 -18 14 -1 8 10 -3 23 -6 28 -6 6 0 7 -6 3 -12 -4 -8 -3 -10 2 -5 5 5
10 13 10 18 1 5 2 12 3 16 0 3 10 -2 20 -11 14 -13 21 -14 27 -5 5 8 3 10 -7
4 -8 -5 -11 -4 -6 0 12 14 60 18 52 5 -3 -6 -11 -8 -16 -5 -5 4 -9 1 -9 -4 0
-16 16 -13 30 4 7 8 16 12 21 9 5 -3 9 0 9 5 0 6 -5 11 -10 11 -6 0 -6 6 2 14
13 13 56 15 77 2 6 -4 11 -3 11 1 0 5 19 9 43 8 28 0 50 7 65 19 23 21 112 31
112 14 0 -5 -5 -6 -12 -2 -7 5 -8 3 -3 -6 6 -10 11 -10 20 3 7 10 18 17 26 17
11 0 11 -2 -1 -10 -9 -6 -10 -10 -3 -10 6 0 15 4 18 10 9 15 27 12 20 -2 -4
-7 1 -4 9 6 9 11 16 16 16 12 0 -5 7 -3 15 4 8 7 13 16 10 20 -2 4 8 6 23 5
15 -1 31 3 35 9 5 6 6 1 2 -11 -3 -12 -2 -24 3 -27 6 -3 9 2 8 11 0 9 5 18 13
21 9 3 11 0 6 -8 -4 -7 4 -4 19 5 14 10 26 13 26 9 0 -5 8 0 17 11 l16 20 -8
-20 c-16 -46 -15 -48 7 -8 17 31 27 40 37 34 8 -6 24 -5 38 0 16 6 22 5 18 -1
-3 -6 -1 -10 5 -10 6 0 8 -4 5 -10 -10 -16 1 -11 16 7 12 14 12 16 0 8 -10 -5
-12 -4 -7 4 4 6 11 9 16 6 5 -3 18 3 29 14 11 11 22 17 25 13 3 -3 6 0 6 7 0
9 4 9 14 -1 9 -9 11 -17 5 -25 -7 -7 -6 -14 1 -18 6 -4 9 -1 8 7 -2 7 4 12 12
10 12 -3 13 -1 2 9 -18 19 -15 25 12 25 14 0 22 -4 20 -8 -3 -5 -10 -6 -15 -3
-5 4 -6 -2 -2 -11 4 -11 8 -13 11 -6 2 7 8 12 13 12 6 0 7 -5 3 -12 -4 -7 -3
-8 4 -4 6 4 9 12 6 20 -3 7 2 13 10 13 8 0 14 -3 12 -6 -2 -3 2 -12 10 -19 12
-11 13 -9 11 10 -1 16 3 23 16 23 10 0 22 6 27 14 5 10 28 15 67 15 l58 1 0
577 c0 515 1 575 15 565 12 -9 12 -8 -1 8 -13 16 -16 41 -15 115 0 52 5 101
10 109 6 10 6 12 -3 6 -9 -5 -12 6 -11 46 1 30 1 64 1 77 l-1 22 -613 0 -614
0 1 -44 c1 -24 5 -42 9 -39 4 3 14 0 21 -7 17 -13 10 -50 -12 -67 -9 -7 -12
-13 -8 -13 5 0 3 -6 -3 -14 -16 -19 -181 -23 -181 -4 0 10 -2 10 -9 0 -13 -22
-54 -11 -56 15 -1 12 2 20 6 18 4 -3 12 2 19 10 17 20 39 19 35 -2 -1 -10 0
-12 2 -5 4 11 8 11 21 0 15 -12 16 -11 3 5 -11 14 -11 20 -1 32 7 8 9 15 4 15
-5 0 -2 4 6 10 8 5 19 5 25 0 8 -6 10 0 9 21 -1 17 -5 33 -8 36 -3 4 -1 12 5
20 10 11 -39 13 -290 13 -256 0 -301 -2 -301 -15 0 -7 8 -18 17 -24 10 -5 18
-18 18 -28 0 -10 6 -17 14 -15 8 2 11 -3 8 -12 -4 -9 -2 -18 4 -21 5 -4 7 -11
3 -16 -3 -5 0 -8 8 -7 7 2 12 -2 11 -8 -1 -6 5 -11 13 -11 19 0 18 7 -3 23
-17 13 -17 13 0 14 11 0 21 -9 24 -20 3 -11 10 -20 15 -20 5 0 6 -4 3 -10 -3
-6 4 -10 16 -10 22 0 22 -1 4 -13 -14 -11 -15 -16 -5 -22 8 -5 11 -4 7 2 -4 6
4 11 18 11 24 0 28 -5 28 -40 0 -9 6 -19 14 -22 8 -3 12 -2 9 2 -3 5 8 6 25 4
17 -2 29 -10 29 -19 0 -9 5 -11 13 -7 8 5 7 2 -2 -9 -8 -10 -11 -20 -7 -24 3
-3 6 -1 6 5 0 7 8 12 18 12 14 -1 14 -4 -6 -20 -21 -17 -21 -19 -3 -17 11 0
17 5 15 9 -3 4 -1 8 5 8 5 0 19 -14 31 -31 13 -17 28 -28 36 -25 7 3 20 -1 28
-9 17 -18 30 -20 20 -3 -4 7 -3 8 5 4 6 -4 9 -12 6 -17 -4 -5 -1 -9 6 -9 8 0
8 -4 -1 -15 -14 -17 0 -21 17 -4 7 7 12 6 16 -3 3 -9 -4 -15 -20 -16 -33 -3
-47 6 -34 22 10 12 -1 15 -69 17 -14 0 -19 3 -13 6 17 6 17 24 1 20 -8 -1 -13
7 -12 20 1 13 -3 20 -7 17 -5 -3 -7 -10 -3 -15 3 -6 -9 -9 -30 -7 -22 1 -36 7
-36 15 0 7 -6 13 -12 13 -10 0 -10 2 -1 8 7 5 -4 8 -27 8 -40 0 -75 27 -63 48
4 5 1 6 -6 1 -8 -4 -18 1 -27 13 -19 27 -75 27 -82 0 -2 -10 -9 -18 -16 -18
-7 0 -7 -3 1 -8 7 -4 13 -22 15 -39 2 -27 5 -30 17 -20 12 9 13 9 7 0 -4 -8
-2 -13 6 -13 10 0 10 -2 -1 -9 -11 -7 -11 -9 0 -14 10 -4 10 -6 2 -6 -16 -1
16 -41 33 -41 6 0 11 -7 11 -15 0 -20 -7 -19 -24 3 -13 15 -14 15 -8 -8 6 -24
5 -24 -9 -6 -9 11 -16 14 -16 8 0 -7 -4 -12 -10 -12 -5 0 -10 9 -10 20 0 11
-3 19 -7 19 -5 -1 -23 -1 -40 0 -26 1 -33 5 -33 21 0 12 -6 20 -12 19 -43 -5
-66 3 -76 27 -7 14 -17 22 -22 19 -6 -3 -14 5 -20 19 -5 15 -14 25 -19 24 -5
-2 -16 6 -24 17 -10 13 -28 20 -54 21 -21 1 -46 3 -55 3 -11 1 -18 9 -18 22 0
11 -4 17 -10 14 -5 -3 -10 -2 -10 3 0 5 -13 8 -29 6 -28 -3 -29 -2 -28 41 0
35 4 45 16 43 12 -2 17 7 19 34 3 29 -1 38 -17 43 -19 6 -25 17 -22 38 0 4
-10 7 -24 7 -23 0 -25 -4 -26 -42z m551 -68 c0 -5 -2 -10 -4 -10 -3 0 -8 5
-11 10 -3 6 -1 10 4 10 6 0 11 -4 11 -10z m193 -39 c-4 -15 14 -14 19 1 3 7
16 13 31 13 14 1 24 -2 21 -6 -2 -4 -13 -6 -24 -4 -11 2 -20 0 -20 -4 0 -14
51 -9 57 5 3 8 10 14 15 14 6 0 5 -6 -2 -15 -15 -18 -7 -19 23 -4 21 10 21 10
3 -5 -11 -9 -24 -16 -29 -16 -4 0 -5 -5 -1 -12 4 -7 3 -8 -5 -4 -6 4 -8 12 -5
18 4 7 2 8 -4 4 -6 -4 -9 -13 -6 -20 4 -11 -10 -14 -64 -14 l-70 0 2 28 c0 16
4 26 8 24 3 -2 9 0 12 5 8 13 42 6 39 -8z m-623 -162 c0 -5 -4 -9 -8 -9 -5 0
-9 7 -9 15 0 8 4 12 9 9 4 -3 8 -9 8 -15z m2159 -6 c-12 -15 -12 -16 5 -10 16
6 17 5 6 -8 -10 -12 -15 -13 -21 -4 -9 15 -1 39 13 39 6 0 4 -8 -3 -17z
m-2134 -13 c3 -5 1 -10 -4 -10 -6 0 -11 5 -11 10 0 6 2 10 4 10 3 0 8 -4 11
-10z m725 -20 c3 -1 9 -2 13 -1 5 1 6 -3 3 -8 -3 -5 -14 -8 -24 -6 -9 2 -20 4
-24 4 -5 1 -8 5 -8 10 0 8 21 8 40 1z m965 -157 c-2 -10 -4 -22 -4 -26 -1 -5
-6 -5 -12 -1 -8 4 -7 9 2 15 10 6 10 9 2 9 -14 0 -38 -39 -29 -48 3 -3 6 0 6
6 0 7 5 12 11 12 5 0 8 -4 5 -8 -3 -5 1 -9 9 -9 8 0 12 4 9 8 -2 4 0 10 6 14
9 5 14 -7 11 -27 -2 -13 44 2 57 19 33 46 42 57 37 46 -3 -6 3 -16 12 -22 10
-6 13 -11 7 -11 -6 0 -11 -7 -11 -15 0 -12 3 -12 16 -2 12 9 13 9 7 0 -4 -8
-2 -13 4 -13 7 0 10 -6 7 -13 -6 -17 8 -42 25 -42 7 -1 12 -6 11 -13 -2 -6 4
-9 12 -5 13 5 13 7 -2 18 -10 7 -21 11 -24 9 -4 -2 -9 3 -13 11 -8 21 7 19 35
-6 13 -11 23 -27 21 -35 -2 -9 3 -12 15 -8 17 5 17 5 0 -9 -16 -13 -16 -15 -2
-21 9 -3 13 -2 10 4 -3 6 -2 10 3 10 14 0 25 -30 26 -72 1 -22 -2 -34 -9 -30
-6 4 -6 1 1 -9 12 -17 12 -48 0 -68 -7 -10 -6 -12 4 -6 10 6 11 0 6 -26 -7
-39 -16 -123 -19 -192 -3 -47 -3 -48 -71 -88 -37 -23 -75 -54 -85 -70 -10 -16
-21 -26 -24 -22 -4 3 -7 1 -7 -5 0 -20 -24 -13 -44 13 -10 14 -25 25 -33 25
-7 0 -18 -11 -23 -25 -11 -29 -22 -31 -40 -10 -7 8 -9 15 -6 15 12 0 -17 25
-37 33 -30 11 -71 -35 -76 -86 -1 -11 -24 -4 -39 13 -10 11 -12 11 -6 1 5 -9
3 -12 -5 -7 -6 4 -9 12 -6 17 4 5 1 9 -4 9 -6 0 -11 7 -11 15 0 8 4 15 8 15 5
0 9 6 9 14 0 7 -7 13 -16 11 -9 -1 -22 2 -28 8 -9 6 -13 6 -13 -3 0 -9 -3 -10
-13 -1 -8 6 -18 7 -23 3 -4 -4 -2 1 5 11 9 11 10 17 2 17 -6 0 -11 6 -11 13 0
7 -8 13 -17 14 -10 1 -31 7 -48 14 -16 7 -34 11 -38 10 -5 -1 -6 3 -2 9 3 5 2
10 -3 10 -5 0 -22 11 -37 25 -25 21 -27 25 -12 31 9 3 14 10 11 15 -3 5 2 6
10 3 18 -7 22 -34 5 -34 -5 0 -7 -5 -4 -10 4 -6 10 -8 15 -5 5 3 14 -4 20 -15
6 -11 15 -18 20 -15 5 3 18 1 28 -4 11 -6 22 -7 26 -4 10 11 35 12 41 2 3 -4
16 -4 29 1 16 6 28 5 36 -3 10 -9 11 -9 6 1 -5 7 -1 12 9 12 9 0 14 -4 11 -8
-2 -4 4 -8 14 -8 14 0 16 3 8 13 -7 9 -6 14 6 19 24 9 46 57 44 98 -2 45 -35
77 -75 70 l-28 -4 25 14 c14 8 28 12 32 10 4 -3 5 3 1 13 -6 15 -4 16 8 6 13
-10 16 -10 16 0 1 22 8 42 18 49 6 5 5 8 -2 8 -7 0 -13 6 -13 13 0 25 -43 36
-78 21 -24 -10 -31 -10 -25 -1 5 9 3 9 -8 0 -16 -13 -28 -6 -62 37 -7 8 -11
13 -10 11 7 -13 -20 -39 -37 -36 -33 6 -42 15 -31 29 6 7 8 15 5 19 -8 8 18 3
36 -7 8 -4 6 1 -6 11 -19 17 -19 19 -4 36 10 10 26 19 37 21 23 5 51 -10 40
-21 -5 -4 -12 -1 -16 6 -6 9 -11 10 -15 3 -4 -6 -14 -8 -24 -5 -9 3 -14 3 -10
-1 10 -11 54 -14 97 -6 29 5 38 4 35 -5 -3 -8 4 -12 20 -12 14 0 23 3 20 8 -3
5 0 9 5 9 6 0 11 5 11 11 0 5 -4 7 -10 4 -12 -7 -12 -3 -4 19 3 9 10 16 16 16
5 0 6 -5 2 -12 -4 -7 -3 -8 4 -4 6 4 8 14 5 23 -5 12 -3 14 8 8 12 -7 12 -6 1
7 -10 12 -10 17 1 27 8 6 17 8 20 4 4 -3 7 0 7 8 0 8 9 1 20 -16 20 -31 28
-28 10 4 -7 15 -5 18 13 17 12 -1 29 -6 37 -10 8 -5 12 -6 8 -1 -4 4 -2 17 4
29 7 11 11 25 10 29 -1 5 2 6 8 2 5 -3 10 -2 10 4 0 5 8 12 18 14 9 3 18 5 19
6 1 0 0 -7 -2 -16z m-1413 -355 c5 19 10 22 25 14 10 -5 26 -8 36 -7 22 4 22
-11 0 -19 -9 -4 -20 -1 -25 6 -6 10 -8 9 -8 -2 0 -9 6 -22 13 -29 10 -11 10
-13 0 -7 -7 4 -13 2 -13 -5 0 -7 -8 -9 -21 -6 -16 4 -19 3 -11 -5 13 -13 -102
-133 -118 -123 -6 4 -10 3 -9 -2 4 -21 -2 -44 -10 -39 -5 3 -16 -4 -24 -17
-13 -20 -22 -23 -85 -22 -78 1 -88 5 -77 32 5 10 7 21 7 26 -1 4 3 7 8 7 13 0
13 -6 -2 -33 -10 -20 -10 -21 5 -8 10 7 17 20 17 27 0 8 5 14 11 14 5 0 7 -6
3 -12 -4 -7 1 -5 11 4 10 9 19 27 21 40 1 13 3 24 4 26 2 2 6 14 9 28 0 4 8 1
16 -6 10 -9 15 -9 15 -1 0 6 8 11 18 11 14 0 15 -2 2 -10 -17 -11 -10 -13 13
-4 9 3 13 13 10 25 -3 10 -1 19 3 19 5 0 15 9 22 21 8 12 9 18 3 15 -7 -4 -8
-1 -5 8 3 8 12 12 20 9 8 -3 12 -8 10 -12 -2 -3 8 -7 22 -7 15 -1 21 1 14 3
-6 3 -9 10 -6 15 5 7 2 8 -5 3 -9 -5 -9 -1 1 14 17 27 27 27 22 -1 -2 -13 -1
-16 2 -8 3 8 14 21 23 28 14 11 17 10 22 -10 l5 -23 6 23z m203 10 c5 4 5 1 1
-6 -4 -7 -12 -10 -17 -6 -5 3 -14 -8 -20 -25 -9 -27 -13 -29 -25 -16 -12 11
-12 19 -4 35 6 11 15 18 21 15 5 -4 9 -1 9 6 0 8 3 9 13 0 8 -6 18 -7 22 -3z
m410 4 c-3 -3 3 -11 13 -19 14 -12 14 -14 1 -10 -9 3 -21 -4 -28 -16 -11 -18
-11 -20 0 -9 7 6 20 12 28 12 11 0 10 -4 -5 -14 -22 -16 -40 -16 -63 -2 -10 6
-12 5 -7 -2 4 -7 3 -12 -3 -12 -6 0 -8 -8 -4 -17 3 -10 3 -15 -2 -11 -9 8 -28
-10 -38 -36 -5 -12 -14 -17 -26 -13 -14 3 -17 0 -14 -14 4 -13 -2 -20 -23 -25
-19 -5 -29 -3 -32 6 -3 9 -6 9 -12 0 -5 -8 -9 -7 -13 5 -4 9 -3 13 3 10 6 -4
9 3 7 16 -1 16 4 23 22 25 35 6 56 20 42 28 -6 4 -11 2 -11 -3 0 -6 -4 -11 -8
-11 -5 0 -9 7 -9 15 0 10 9 14 26 13 21 -2 26 1 25 18 0 14 5 21 15 19 9 -1
22 2 29 8 6 5 12 6 12 1 0 -5 9 2 19 15 14 18 20 21 26 11 5 -8 4 -11 -1 -7
-6 3 -11 -4 -11 -16 -2 -21 -1 -21 12 -4 7 11 11 25 9 31 -3 7 2 13 11 13 8 0
13 -3 10 -5z m182 -16 c4 -5 4 -7 -2 -3 -14 7 -46 -18 -43 -33 2 -7 -5 -14
-15 -15 -11 -2 -16 -1 -13 2 3 3 -2 12 -12 19 -15 12 -15 13 5 9 13 -2 26 1
29 7 4 6 3 8 -3 5 -6 -4 -13 -1 -16 6 -6 15 56 18 70 3z m383 -16 c-18 -12
-30 -13 -30 -2 0 4 10 9 22 9 18 2 20 0 8 -7z m-40 -12 c0 -4 -7 -8 -15 -8 -8
0 -15 4 -15 8 0 5 7 9 15 9 8 0 15 -4 15 -9z m-427 -27 c2 -10 1 -25 -4 -32
-8 -12 -11 -11 -19 1 -5 8 -10 11 -11 5 -1 -5 -3 -14 -4 -20 -2 -5 -3 -16 -4
-22 0 -7 -6 -13 -12 -13 -6 0 -8 10 -5 23 3 12 3 16 0 9 -3 -6 -9 -10 -13 -8
-4 3 -7 -7 -7 -22 -1 -66 -5 -82 -18 -82 -7 0 -20 7 -27 16 -12 15 -11 16 9
10 14 -5 22 -3 22 4 0 6 -4 9 -9 6 -5 -3 -11 1 -15 9 -3 8 -1 17 4 20 5 3 6
13 3 23 -6 15 -5 15 10 3 15 -12 17 -12 12 1 -3 8 1 21 9 28 9 7 13 16 10 21
-3 5 1 6 9 3 8 -3 18 0 22 6 5 8 11 7 23 -2 12 -9 11 -6 -2 10 -16 18 -16 22
-4 22 9 0 18 -9 21 -19z m255 11 c9 8 13 8 9 2 -4 -7 0 -15 9 -18 14 -5 12
-10 -10 -27 -41 -33 -78 -34 -104 -4 -12 14 -19 26 -14 26 4 1 23 2 42 4 19 1
36 9 39 16 3 11 5 11 9 1 3 -10 7 -10 20 0z m-1108 -6 c0 -3 -4 -8 -10 -11 -5
-3 -10 -1 -10 4 0 6 5 11 10 11 6 0 10 -2 10 -4z m248 -46 c-7 -10 -16 -16
-22 -13 -5 4 -6 1 -2 -6 10 -16 -1 -61 -15 -61 -6 0 -6 7 1 20 8 15 8 18 -3
15 -7 -3 -13 -13 -14 -23 -3 -35 -8 -47 -27 -58 -13 -8 -15 -13 -7 -18 6 -4
11 -2 11 3 0 6 4 11 8 11 4 0 8 -9 8 -19 0 -16 -4 -17 -18 -10 -10 5 -18 6
-18 1 0 -5 -12 -9 -27 -9 -56 -1 -73 -3 -72 -10 3 -21 -3 -31 -21 -36 -11 -3
-19 -11 -18 -17 2 -7 -4 -13 -12 -15 -25 -4 -24 56 0 62 11 3 20 11 20 18 0
18 32 28 42 13 5 -8 8 -9 8 -2 0 15 50 15 50 0 1 -13 24 24 25 39 1 6 6 9 12
8 6 -1 14 4 17 12 3 9 0 12 -8 9 -7 -3 -13 2 -13 11 0 9 6 14 13 11 13 -5 29
21 25 39 -2 6 0 7 4 3 8 -8 51 33 47 45 -1 5 2 6 8 2 6 -4 5 -12 -2 -25z m19
-15 c0 -8 -6 -16 -14 -19 -16 -7 -17 6 -1 22 15 15 15 15 15 -3z m191 -29 c-7
-8 -15 -12 -17 -11 -5 6 10 25 20 25 5 0 4 -6 -3 -14z m275 -94 c-9 -24 -21
-30 -54 -27 -26 2 -34 -5 -30 -27 1 -8 -25 -12 -44 -8 -5 1 -16 3 -22 3 -13 0
-7 12 6 12 14 0 40 33 33 41 -4 5 1 2 11 -5 14 -11 17 -11 17 0 0 11 2 11 10
-1 6 -10 10 -11 10 -2 0 16 27 16 32 0 3 -7 7 -3 10 9 4 13 1 21 -6 19 -6 -2
-8 -1 -3 1 4 3 4 9 1 15 -4 6 2 6 14 -1 14 -8 19 -17 15 -29z m544 -228 c-3
-3 -12 -4 -19 -1 -8 3 -5 6 6 6 11 1 17 -2 13 -5z m443 -54 c8 -5 11 -12 8
-16 -4 -3 -14 1 -23 10 -18 17 -9 21 15 6z m385 -19 c3 -5 2 -12 -3 -15 -5 -3
-9 1 -9 9 0 17 3 19 12 6z m-814 -54 c-10 -9 -11 -8 -5 6 3 10 9 15 12 12 3
-3 0 -11 -7 -18z m-771 -241 c0 -2 -7 -7 -16 -10 -8 -3 -12 -2 -9 4 6 10 25
14 25 6z m-699 -81 c5 4 6 -1 2 -10 -5 -13 -7 -14 -14 -3 -5 7 -8 18 -8 23 0
6 3 4 6 -3 2 -6 9 -10 14 -7z m612 -68 c4 3 7 1 7 -5 0 -18 -27 -14 -34 4 -5
13 -4 14 7 6 8 -7 17 -9 20 -5z m-7 -46 c-9 -8 -18 -12 -22 -9 -9 10 3 25 21
25 14 0 14 -2 1 -16z m9 -21 c-3 -5 -12 -10 -18 -10 -7 0 -6 4 3 10 19 12 23
12 15 0z m120 -370 c3 -5 1 -10 -4 -10 -6 0 -11 5 -11 10 0 6 2 10 4 10 3 0 8
-4 11 -10z"/>
<path d="M802 2356 c-11 -19 -11 -35 2 -30 6 2 17 13 23 23 9 14 8 18 -3 18
-8 0 -18 -5 -22 -11z"/>
<path d="M840 2326 c7 -7 13 -7 20 0 6 6 3 10 -10 10 -13 0 -16 -4 -10 -10z"/>
<path d="M2027 1983 c-3 -5 0 -17 4 -28 9 -19 9 -19 5 2 -2 12 1 24 8 27 8 3
8 5 -1 5 -6 1 -14 -2 -16 -6z"/>
<path d="M1827 1929 c7 -7 15 -10 18 -7 3 3 -2 9 -12 12 -14 6 -15 5 -6 -5z"/>
<path d="M2055 1929 c-4 -6 -5 -12 -2 -15 2 -3 7 2 10 11 7 17 1 20 -8 4z"/>
<path d="M1776 1914 c-8 -20 -8 -24 2 -24 4 0 8 9 9 20 2 24 -3 26 -11 4z"/>
<path d="M1633 1807 c0 -7 9 -13 19 -13 10 0 18 1 18 3 0 1 -8 7 -18 12 -13 7
-19 6 -19 -2z"/>
<path d="M2180 1805 c0 -8 4 -15 10 -15 5 0 7 7 4 15 -4 8 -8 15 -10 15 -2 0
-4 -7 -4 -15z"/>
<path d="M1942 1792 c-24 -4 -45 -42 -36 -66 6 -17 44 -29 44 -14 0 6 6 5 15
-2 11 -9 15 -9 15 -1 0 7 5 9 10 6 6 -4 7 -11 4 -17 -4 -7 -2 -8 5 -4 6 4 9
11 6 16 -6 10 23 22 36 15 5 -4 6 1 3 9 -4 9 -1 16 6 16 10 0 10 3 0 15 -7 8
-21 15 -32 15 -11 0 -27 4 -36 8 -9 4 -27 6 -40 4z"/>
<path d="M1506 1772 c-3 -4 4 -9 15 -9 23 -2 25 3 4 10 -8 4 -16 3 -19 -1z"/>
<path d="M1945 1680 c-3 -6 1 -7 9 -4 18 7 21 14 7 14 -6 0 -13 -4 -16 -10z"/>
<path d="M1890 1539 c-6 -10 -8 -28 -6 -41 3 -13 5 -29 5 -37 1 -9 11 -12 35
-9 24 3 32 0 29 -9 -3 -7 -9 -10 -14 -7 -5 3 -6 -3 -2 -12 4 -11 8 -13 11 -6
2 7 8 10 13 6 5 -3 9 -2 8 3 -4 21 3 28 27 30 15 0 30 7 34 13 5 7 14 9 21 5
11 -6 12 -5 2 6 -7 7 -13 21 -13 31 0 22 -34 36 -96 42 -35 3 -47 0 -54 -15z"/>
<path d="M1440 1470 c-9 -6 -10 -10 -3 -10 6 0 15 5 18 10 8 12 4 12 -15 0z"/>
<path d="M2006 1442 c-2 -4 4 -8 14 -8 10 0 16 4 14 8 -3 4 -9 8 -14 8 -5 0
-11 -4 -14 -8z"/>
<path d="M1565 1400 c-3 -5 -1 -10 4 -10 6 0 11 5 11 10 0 6 -2 10 -4 10 -3 0
-8 -4 -11 -10z"/>
<path d="M1590 1402 c0 -7 3 -12 8 -13 4 0 17 -2 29 -3 12 -1 20 1 17 6 -4 5
-12 7 -19 4 -7 -2 -18 1 -24 7 -8 8 -11 8 -11 -1z"/>
<path d="M491 1634 c0 -11 3 -14 6 -6 3 7 2 16 -1 19 -3 4 -6 -2 -5 -13z"/>
<path d="M395 1580 c-3 -6 1 -7 9 -4 18 7 21 14 7 14 -6 0 -13 -4 -16 -10z"/>
<path d="M285 1500 c-3 -6 1 -7 9 -4 18 7 21 14 7 14 -6 0 -13 -4 -16 -10z"/>
<path d="M312 1494 c-7 -8 -8 -14 -3 -14 10 0 25 19 20 25 -2 1 -10 -3 -17
-11z"/>
<path d="M667 1635 c-4 -8 -3 -16 1 -19 4 -3 9 4 9 15 2 23 -3 25 -10 4z"/>
<path d="M1045 1610 c-4 -6 -10 -8 -14 -6 -4 3 -8 -1 -8 -8 0 -17 23 -10 31
10 6 16 0 19 -9 4z"/>
<path d="M928 1511 c4 -10 7 -11 10 -3 2 7 8 10 12 7 5 -3 11 -2 14 3 2 4 -6
8 -19 8 -16 0 -21 -4 -17 -15z"/>
<path d="M1130 1489 c0 -5 5 -7 10 -4 6 3 10 8 10 11 0 2 -4 4 -10 4 -5 0 -10
-5 -10 -11z"/>
<path d="M1465 1580 c3 -5 -13 -7 -34 -5 -37 3 -39 2 -28 -16 6 -10 16 -19 21
-19 4 0 3 7 -5 16 -11 14 -10 15 7 12 10 -1 22 -7 27 -13 4 -6 10 -5 16 3 4 8
11 13 15 13 3 -1 7 2 9 6 1 3 -6 7 -16 9 -9 1 -15 -1 -12 -6z"/>
<path d="M415 1390 c-3 -5 -1 -10 4 -10 6 0 11 5 11 10 0 6 -2 10 -4 10 -3 0
-8 -4 -11 -10z"/>
<path d="M395 1359 c-4 -6 -4 -13 -1 -16 3 -4 6 -1 6 6 0 7 5 9 10 6 6 -3 10
-1 10 4 0 14 -17 14 -25 0z"/>
<path d="M1000 1375 c-7 -9 -11 -17 -9 -20 3 -2 10 5 17 15 14 24 10 26 -8 5z"/>
<path d="M194 2375 c-4 -8 -10 -12 -15 -9 -5 3 -6 -2 -2 -11 4 -12 8 -13 13
-5 6 9 9 9 15 0 6 -9 10 -9 16 1 12 20 11 26 -6 33 -9 3 -18 -1 -21 -9z"/>
<path d="M1280 2380 c-9 -6 -10 -10 -3 -10 6 0 15 5 18 10 8 12 4 12 -15 0z"/>
<path d="M1063 2358 c-20 -26 -22 -35 -8 -35 8 0 13 2 10 5 -2 3 0 13 6 23 11
22 6 25 -8 7z"/>
<path d="M745 2280 c-3 -6 1 -7 9 -4 18 7 21 14 7 14 -6 0 -13 -4 -16 -10z"/>
<path d="M155 2080 c-3 -5 -1 -10 4 -10 6 0 11 5 11 10 0 6 -2 10 -4 10 -3 0
-8 -4 -11 -10z"/>
<path d="M250 2026 c0 -4 7 -14 15 -22 8 -9 15 -11 15 -6 0 5 -7 15 -15 22 -8
7 -15 9 -15 6z"/>
<path d="M884 2022 c4 -7 3 -12 -2 -12 -5 0 -9 -7 -9 -15 0 -20 4 -19 17 4 7
14 7 22 -2 27 -7 4 -8 3 -4 -4z"/>
<path d="M945 1989 c-4 -6 -5 -12 -2 -15 2 -3 7 2 10 11 7 17 1 20 -8 4z"/>
<path d="M1007 1970 c3 -11 9 -20 15 -20 5 0 4 9 -2 20 -6 11 -12 20 -14 20
-2 0 -2 -9 1 -20z"/>
<path d="M330 1966 c0 -2 7 -7 16 -10 8 -3 12 -2 9 4 -6 10 -25 14 -25 6z"/>
<path d="M1055 1929 c-4 -6 -5 -12 -2 -15 2 -3 7 2 10 11 7 17 1 20 -8 4z"/>
<path d="M560 1897 c-12 -20 -11 -21 2 -9 9 7 24 9 34 6 20 -7 19 -6 -6 13
-13 10 -18 8 -30 -10z"/>
<path d="M623 1903 c9 -11 14 -23 10 -28 -5 -4 -2 -5 5 -1 18 10 15 19 -10 35
-22 13 -23 13 -5 -6z"/>
<path d="M1115 1901 c-3 -5 -2 -12 3 -15 5 -3 9 1 9 9 0 17 -3 19 -12 6z"/>
<path d="M660 1886 c0 -2 8 -10 18 -17 15 -13 16 -12 3 4 -13 16 -21 21 -21
13z"/>
<path d="M1141 1874 c0 -11 3 -14 6 -6 3 7 2 16 -1 19 -3 4 -6 -2 -5 -13z"/>
<path d="M758 1858 c-9 -5 -6 -7 9 -5 12 2 25 6 28 8 8 9 -23 6 -37 -3z"/>
<path d="M800 1450 c-9 -6 -10 -10 -3 -10 6 0 15 5 18 10 8 12 4 12 -15 0z"/>
<path d="M106 1442 c-3 -5 1 -9 9 -9 8 0 12 4 9 9 -3 4 -7 8 -9 8 -2 0 -6 -4
-9 -8z"/>
<path d="M830 1439 c0 -5 5 -7 10 -4 6 3 10 8 10 11 0 2 -4 4 -10 4 -5 0 -10
-5 -10 -11z"/>
<path d="M795 1419 c-4 -6 -4 -13 -1 -16 3 -4 6 -1 6 6 0 8 6 11 16 7 8 -3 12
-2 9 4 -8 13 -22 13 -30 -1z"/>
<path d="M754 1399 c-4 -7 -3 -9 4 -5 5 3 13 0 15 -6 4 -9 6 -10 6 -1 1 17
-16 25 -25 12z"/>
<path d="M260 1268 c-12 -8 -12 -9 3 -4 12 4 20 -1 26 -16 l8 -22 6 23 c3 13
3 20 0 17 -4 -3 -11 -2 -17 4 -7 5 -17 5 -26 -2z"/>
<path d="M650 1260 c0 -5 5 -10 11 -10 5 0 7 5 4 10 -3 6 -8 10 -11 10 -2 0
-4 -4 -4 -10z"/>
<path d="M334 1229 c-3 -6 -3 -13 0 -16 3 -4 6 -1 6 7 0 10 3 10 15 0 9 -7 15
-8 15 -2 0 14 -28 23 -36 11z"/>
<path d="M963 1226 c0 -8 11 -13 24 -13 13 0 23 4 23 10 0 6 -3 7 -6 4 -4 -3
-14 -2 -24 3 -12 6 -17 5 -17 -4z"/>
<path d="M1036 1230 c6 -8 13 -22 16 -30 3 -10 6 -7 11 9 3 13 3 20 0 17 -4
-3 -13 0 -22 7 -14 10 -14 10 -5 -3z"/>
<path d="M456 1218 c3 -5 10 -6 15 -3 13 9 11 12 -6 12 -8 0 -12 -4 -9 -9z"/>
<path d="M1021 1204 c0 -11 3 -14 6 -6 3 7 2 16 -1 19 -3 4 -6 -2 -5 -13z"/>
<path d="M872 1061 c-11 -7 -11 -9 0 -14 9 -3 15 1 15 9 0 8 -1 14 -1 14 -1 0
-7 -4 -14 -9z"/>
<path d="M744 1038 c-4 -6 -8 -23 -10 -37 -1 -14 -2 -29 -3 -32 -1 -5 -126
-13 -183 -11 -11 1 -18 -7 -18 -19 0 -11 7 -19 16 -19 8 0 13 -4 9 -9 -3 -5 0
-13 6 -17 8 -4 9 -3 5 5 -6 8 9 11 56 8 35 -1 69 -6 76 -10 7 -5 12 -3 12 5 0
9 3 9 10 -2 5 -8 10 -10 10 -4 0 6 7 11 15 11 11 0 14 -7 10 -21 -5 -17 -3
-16 9 4 8 14 12 28 10 32 -3 5 -1 8 5 8 5 0 9 9 8 20 -1 11 -5 20 -9 20 -4 0
-4 10 1 23 6 15 5 28 -4 40 -14 20 -21 21 -31 5z"/>
<path d="M2405 972 c-23 -17 -36 -40 -25 -47 6 -4 9 -1 8 7 -2 7 3 12 10 11 6
-2 11 0 11 5 -3 19 2 25 11 12 8 -13 10 -12 10 3 0 18 -9 21 -25 9z"/>
<path d="M2445 970 c-3 -6 1 -7 9 -4 18 7 21 14 7 14 -6 0 -13 -4 -16 -10z"/>
<path d="M2184 914 c-18 -14 -18 -15 4 -4 12 6 22 13 22 15 0 8 -5 6 -26 -11z"/>
<path d="M611 884 c0 -11 3 -14 6 -6 3 7 2 16 -1 19 -3 4 -6 -2 -5 -13z"/>
<path d="M2026 861 c-4 -5 3 -7 14 -4 23 6 26 13 6 13 -8 0 -17 -4 -20 -9z"/>
<path d="M1960 845 c-7 -9 -8 -15 -2 -15 5 0 12 7 16 15 3 8 4 15 2 15 -2 0
-9 -7 -16 -15z"/>
<path d="M1850 830 c-6 -11 -8 -20 -6 -20 3 0 10 9 16 20 6 11 8 20 6 20 -3 0
-10 -9 -16 -20z"/>
<path d="M1876 834 c-8 -20 -8 -24 2 -24 4 0 8 9 9 20 2 24 -3 26 -11 4z"/>
<path d="M1624 788 c-10 -12 -13 -18 -6 -14 7 4 12 2 12 -5 0 -18 10 -5 15 20
5 26 3 26 -21 -1z"/>
<path d="M1661 794 c0 -11 3 -14 6 -6 3 7 2 16 -1 19 -3 4 -6 -2 -5 -13z"/>
<path d="M1696 782 c-3 -5 1 -9 9 -9 8 0 12 4 9 9 -3 4 -7 8 -9 8 -2 0 -6 -4
-9 -8z"/>
<path d="M1748 783 c6 -2 18 -2 25 0 6 3 1 5 -13 5 -14 0 -19 -2 -12 -5z"/>
<path d="M1440 760 c-13 -8 -12 -10 3 -10 9 0 17 5 17 10 0 12 -1 12 -20 0z"/>
<path d="M1470 762 c0 -4 9 -13 20 -20 11 -7 20 -9 20 -4 0 4 -9 13 -20 20
-11 7 -20 9 -20 4z"/>
<path d="M1525 760 c-3 -5 -1 -10 5 -10 6 0 8 -5 4 -12 -4 -7 -3 -8 4 -4 6 4
9 13 5 21 -6 18 -10 19 -18 5z"/>
<path d="M1571 753 c0 -11 3 -13 6 -5 2 6 10 9 15 6 7 -4 8 -2 4 4 -11 18 -26
14 -25 -5z"/>
<path d="M1314 710 c0 -13 4 -16 10 -10 7 7 7 13 0 20 -6 6 -10 3 -10 -10z"/>
<path d="M1253 685 c0 -8 4 -12 9 -9 5 3 6 10 3 15 -9 13 -12 11 -12 -6z"/>
<path d="M1004 669 c-3 -6 -1 -16 5 -22 9 -9 10 -7 5 8 -7 18 -6 19 12 5 18
-14 18 -14 5 3 -16 20 -18 20 -27 6z"/>
<path d="M966 594 c-5 -13 -4 -14 7 -6 8 7 18 8 22 4 5 -4 5 -1 1 6 -10 17
-23 15 -30 -4z"/>
<path d="M2480 491 c-8 -9 -17 -34 -18 -56 -5 -58 -5 -58 -25 -75 -13 -11 -19
-31 -21 -66 -1 -27 -6 -56 -11 -63 -5 -10 -4 -12 3 -7 19 12 14 -1 -13 -30
-13 -14 -23 -34 -21 -43 6 -30 18 -51 27 -45 5 3 9 0 9 -5 0 -6 5 -11 11 -11
5 0 7 5 4 10 -9 14 18 12 34 -3 11 -9 13 -9 7 1 -5 8 0 12 13 12 20 0 21 6 21
86 0 65 3 83 13 78 9 -6 9 -4 1 7 -7 8 -12 57 -13 118 0 57 -2 105 -3 106 -2
1 -10 -5 -18 -14z"/>
<path d="M1750 480 c-10 -10 -21 -16 -24 -12 -3 3 -6 1 -6 -4 0 -5 -65 -9
-148 -10 -145 0 -147 0 -174 -26 -56 -57 -41 -75 69 -74 45 0 80 4 77 7 -9 16
9 37 28 34 11 -3 28 0 38 5 10 5 21 6 24 2 11 -10 195 -9 188 2 -3 5 2 7 11 3
10 -3 17 -2 17 3 0 6 -5 10 -10 10 -6 0 -5 6 2 14 7 8 16 12 20 10 13 -8 56 7
54 19 -4 29 -19 36 -82 36 -50 0 -70 -5 -84 -19z"/>
<path d="M1868 423 c7 -3 16 -2 19 1 4 3 -2 6 -13 5 -11 0 -14 -3 -6 -6z"/>
<path d="M1615 390 c-3 -5 -1 -10 4 -10 6 0 11 5 11 10 0 6 -2 10 -4 10 -3 0
-8 -4 -11 -10z"/>
<path d="M1700 382 c0 -5 7 -9 15 -9 8 0 12 4 9 9 -3 4 -9 8 -15 8 -5 0 -9 -4
-9 -8z"/>
<path d="M1767 370 c3 -11 9 -22 13 -25 5 -3 6 4 3 15 -3 11 -9 22 -13 25 -5
3 -6 -4 -3 -15z"/>
<path d="M1793 375 c0 -8 4 -12 9 -9 5 3 6 10 3 15 -9 13 -12 11 -12 -6z"/>
<path d="M1650 374 c0 -1 6 -7 14 -13 10 -9 15 -8 19 2 3 8 -3 13 -14 13 -11
0 -19 -1 -19 -2z"/>
<path d="M1836 367 c3 -10 9 -15 12 -12 3 3 0 11 -7 18 -10 9 -11 8 -5 -6z"/>
<path d="M1870 355 c0 -22 -27 -30 -47 -14 -13 11 -15 11 -9 1 6 -10 -8 -12
-65 -11 -64 2 -74 -1 -89 -20 -14 -19 -25 -22 -76 -21 -132 4 -134 3 -134 -29
0 -17 5 -33 10 -36 6 -3 10 -1 10 6 0 8 4 8 15 -1 12 -10 15 -10 15 1 0 11 2
11 9 -1 12 -17 4 -33 -11 -24 -7 5 -8 2 -4 -5 6 -9 12 -9 25 3 10 9 21 13 26
9 4 -5 5 -2 1 5 -5 8 2 12 23 12 17 0 31 -5 31 -12 0 -6 7 -3 15 8 8 10 15 14
15 8 0 -5 14 -9 30 -8 21 1 33 -4 41 -17 5 -10 14 -19 20 -19 6 0 3 7 -5 16
-9 8 -16 21 -16 27 0 7 7 3 15 -7 14 -18 15 -19 15 -2 0 13 6 17 18 14 12 -3
19 0 19 9 0 8 -6 12 -16 8 -13 -5 -14 -4 -3 7 11 11 16 9 29 -7 15 -20 15 -20
9 2 -6 19 -4 21 26 17 18 -3 39 -7 46 -9 6 -2 12 -1 12 4 0 5 11 7 24 6 24 -3
41 16 28 30 -4 4 -8 15 -8 26 -3 37 -4 39 -24 39 -11 0 -20 -7 -20 -15z"/>
<path d="M1510 340 c0 -5 5 -10 11 -10 5 0 7 5 4 10 -3 6 -8 10 -11 10 -2 0
-4 -4 -4 -10z"/>
<path d="M1420 320 c8 -5 20 -10 25 -10 6 0 3 5 -5 10 -8 5 -19 10 -25 10 -5
0 -3 -5 5 -10z"/>
<path d="M1807 249 c4 -13 8 -18 11 -10 2 7 -1 18 -6 23 -8 8 -9 4 -5 -13z"/>
<path d="M1581 204 c0 -11 3 -14 6 -6 3 7 2 16 -1 19 -3 4 -6 -2 -5 -13z"/>
<path d="M156 193 c-6 -14 -5 -15 5 -6 7 7 10 15 7 18 -3 3 -9 -2 -12 -12z"/>
<path d="M1614 198 c-4 -7 -4 -10 1 -6 4 4 14 3 22 -4 11 -8 12 -7 7 6 -7 19
-20 21 -30 4z"/>
<path d="M1669 183 c-13 -16 -12 -17 4 -4 16 13 21 21 13 21 -2 0 -10 -8 -17
-17z"/>
<path d="M262 160 c7 -10 14 -18 15 -16 6 6 -9 36 -18 36 -5 0 -4 -9 3 -20z"/>
<path d="M1614 173 c5 -9 -2 -13 -26 -13 -23 0 -29 -3 -19 -9 8 -5 11 -16 8
-25 -7 -16 9 -21 61 -16 12 1 22 -4 22 -12 0 -8 3 -9 8 -2 4 6 15 13 24 17 11
4 15 13 11 26 -4 16 -13 21 -37 21 -18 0 -38 6 -45 13 -11 10 -13 10 -7 0z"/>
<path d="M226 162 c-3 -5 1 -9 9 -9 8 0 12 4 9 9 -3 4 -7 8 -9 8 -2 0 -6 -4
-9 -8z"/>
<path d="M185 119 c-27 -6 -25 -7 13 -6 23 0 42 1 42 3 0 7 -29 9 -55 3z"/>
<path d="M250 120 c0 -5 5 -10 11 -10 5 0 7 5 4 10 -3 6 -8 10 -11 10 -2 0 -4
-4 -4 -10z"/>
<path d="M113 113 c9 -2 23 -2 30 0 6 3 -1 5 -18 5 -16 0 -22 -2 -12 -5z"/>
<path d="M500 90 c-12 -7 -12 -11 -2 -20 6 -5 10 -7 7 -4 -3 4 0 13 6 21 13
15 10 16 -11 3z"/>
<path d="M610 96 c0 -2 7 -9 15 -16 13 -11 14 -10 9 4 -5 14 -24 23 -24 12z"/>
<path d="M646 87 c3 -10 9 -15 12 -12 3 3 0 11 -7 18 -10 9 -11 8 -5 -6z"/>
<path d="M590 85 c0 -5 5 -17 10 -25 5 -8 10 -10 10 -5 0 6 -5 17 -10 25 -5 8
-10 11 -10 5z"/>
</g>
</svg>
