<?xml version="1.0" standalone="no"?>
<!DOCTYPE svg PUBLIC "-//W3C//DTD SVG 20010904//EN"
 "http://www.w3.org/TR/2001/REC-SVG-20010904/DTD/svg10.dtd">
<svg version="1.0" xmlns="http://www.w3.org/2000/svg"
 width="775.000000pt" height="775.000000pt" viewBox="0 0 775.000000 775.000000"
 preserveAspectRatio="xMidYMid meet">
<metadata>
Created by potrace 1.11, written by Peter Selinger 2001-2013
</metadata>
<g transform="translate(0.000000,775.000000) scale(0.100000,-0.100000)"
fill="#000000" stroke="none">
<path d="M10 5030 l0 -2710 1160 0 1160 0 0 -1160 0 -1160 2708 2 c1489 2
2535 4 2325 5 l-383 3 0 380 0 380 380 0 380 0 0 2325 0 2325 -1155 0 -1155 0
0 1160 0 1160 -2710 0 -2710 0 0 -2710z m4640 1160 l0 -770 -1160 0 -1160 0 0
-1160 0 -1160 -770 0 -770 0 0 1930 0 1930 1930 0 1930 0 0 -770z m0 -2320 l0
-770 -770 0 -770 0 0 770 0 770 770 0 770 0 0 -770z m2320 -1160 l0 -1930
-1930 0 -1930 0 0 770 0 770 1160 0 1160 0 0 1160 0 1160 770 0 770 0 0 -1930z"/>
</g>
</svg>
