<?xml version="1.0" standalone="no"?>
<!DOCTYPE svg PUBLIC "-//W3C//DTD SVG 20010904//EN"
 "http://www.w3.org/TR/2001/REC-SVG-20010904/DTD/svg10.dtd">
<svg version="1.0" xmlns="http://www.w3.org/2000/svg"
 width="728.000000pt" height="728.000000pt" viewBox="0 0 728.000000 728.000000"
 preserveAspectRatio="xMidYMid meet">
<metadata>
Created by potrace 1.11, written by Peter Selinger 2001-2013
</metadata>
<g transform="translate(0.000000,728.000000) scale(0.100000,-0.100000)"
fill="#000000" stroke="none">
<path d="M30 4425 l0 -2845 1033 0 c567 0 1042 -3 1055 -6 l22 -6 0 -784 0
-784 2570 0 2570 0 0 2600 0 2600 -790 0 -790 0 0 1035 0 1035 -2835 0 -2835
0 0 -2845z m5280 -1040 l0 -1395 -1375 0 -1375 0 0 1395 0 1395 1375 0 1375 0
0 -1395z"/>
<path d="M483 3 c269 -2 705 -2 970 0 265 1 46 2 -488 2 -533 0 -750 -1 -482
-2z"/>
</g>
</svg>
